/* XPM */
static char * tele_pad_z_16px5_xpm[] = {
"16 16 7 1",
" 	c None",
".	c #573E10",
"+	c #413010",
"@	c #D94043",
"#	c #392809",
"$	c #AD0F13",
"%	c #CBBA9C",
"                ",
"          ...   ",
"         .+++.  ",
"        .+  ++  ",
"        ++@# ++ ",
"         @## +# ",
"     @@      ++ ",
"    $        +# ",
"     @      .+# ",
"           .++# ",
"    %%%%%%%%%+# ",
"  .%%$%$%$%$%%# ",
" .+%$%$%$%$%$%.#",
" +#.%%%%%%%%%.+#",
".##.+..++#..+#+#",
"##++##++##++##  "};
