/* XPM */
static char * tele_pad_z_16px1_xpm[] = {
"16 16 7 1",
" 	c None",
".	c #573E10",
"+	c #413010",
"@	c #392809",
"#	c #D94043",
"$	c #CBBA9C",
"%	c #AD0F13",
"                ",
"          ...   ",
"         .+++.  ",
"        .+  ++  ",
"        ++ @ ++ ",
"         +@@ +@ ",
"             ++ ",
"             +@ ",
"       #  # .+@ ",
"      #   #.++@ ",
"    $$#$$$$$$+@ ",
"  .$$%$%$%$%$$@ ",
" .+$%$%$%$%$%$.@",
" +@.$$$$$$$$$.+@",
".@@.+..++@..+@+@",
"@@++@@++@@++@@  "};
