/* XPM */
static char * finish_screen_xpm[] = {
"48 10 3 1",
" 	c None",
".	c #63D940",
"+	c #29B600",
"..   ..   ..   ..  ..     ..   ..   ..   ..   ..",
"++   ++  .++.  ++  ++     ++   ++  .++.  ++.  ++",
"++   ++ .++++. ++  ++     ++   ++ .++++. +++. ++",
"++. .++ ++  ++ ++  ++     ++   ++ ++  ++ ++++.++",
" ++.++  ++  ++ ++  ++     ++   ++ ++  ++ ++ ++++",
"  +++   ++  ++ ++  ++     ++ . ++ ++  ++ ++  +++",
"  +++   ++  ++ ++  ++     ++.+.++ ++  ++ ++   ++",
"  +++   ++..++ ++..++     +++++++ ++..++ ++   ++",
"  +++    ++++   ++++      +++ +++  ++++  ++   ++",
"  +++     ++     ++       ++   ++   ++   ++   ++"};
