/* XPM */
static char * path_xpm[] = {
"16 8 4 1",
" 	c None",
".	c #AC733B",
"+	c #94581D",
"@	c #D39A61",
"                ",
"                ",
".+ @ .+  .+. .@+",
"@.+.. @+@+  . +@",
" @.+ @+. +. @+ .",
".@+ .  @+.@  .+ ",
"                ",
"                "};
