/* XPM */
static char * cacti_16px_xpm[] = {
"16 16 11 1",
" 	c None",
".	c #9C4C41",
"+	c #B2564B",
"@	c #D36508",
"#	c #262D27",
"$	c #362B2B",
"%	c #224D29",
"&	c #D3D008",
"*	c #31843F",
"=	c #296E35",
"-	c #256330",
"    ...  ..     ",
"    .++@.+.#    ",
"  #$%.@&@.%%    ",
"   %.+.$++.%$#  ",
" #$*..=%...%-%  ",
" %*#**$=%$=-%-$#",
"#$*%*=%=%=%-#-% ",
" %*$*=#=$=#-%-$#",
"#$*%*=%=%=%-$-% ",
" %*#*=%=%$#-%-$#",
"#$*%*=#%=%--#-% ",
"  %*$*=%=#-%-$# ",
" #$%*%=$-%-#%   ",
"    %#*%-#-$#   ",
"   #$%%%%%%     ",
"                "};
