/* XPM */
static char * cacti_broken_16px_xpm[] = {
"16 16 7 1",
" 	c None",
".	c #224D29",
"+	c #362B2B",
"@	c #262D27",
"#	c #31843F",
"$	c #256330",
"%	c #296E35",
"                ",
"     .....+@    ",
"  @+..####..    ",
"   .#@.+.@$.+@  ",
" @+#.#%.%.%.$.  ",
" .#@##+%.+%$.$+@",
"@+#.#%.%.%.$@$. ",
" .#+#%@%+%@$.$+@",
"@+#.#%.%.%.$+$. ",
" .#@#%.%.+@$.$+@",
"@+#.#%@.%.$$@$. ",
"  .#+#%.%@$.$+@ ",
" @+.#.%+$.$@.   ",
"    .@#.$@$+@   ",
"   @+......     ",
"                "};
