/* XPM */
static char * fire_16px2_xpm[] = {
"16 16 8 1",
" 	c None",
".	c #EA4C00",
"+	c #F97D00",
"@	c #F9A900",
"#	c #F9C900",
"$	c #F1F900",
"%	c #FBFBFB",
"&	c #EBEDAA",
"         .      ",
"         +.     ",
"        .+.     ",
"        .@+.    ",
"       .+@+.    ",
"       .@@@+    ",
"      .+@#++.   ",
"     .+@#@++.   ",
"    ..@##@++.   ",
"   .+@@##@@+.   ",
"  ..@@#$$#@+.   ",
"  +@##$%&$#@+   ",
"   +##$&%%$#+   ",
"    #$#&$###    ",
"     #$$$#      ",
"                "};
