/* XPM */
static char * pyramid_xpm[] = {
"16 16 12 1",
" 	c None",
".	c #DF9602",
"+	c #BF8818",
"@	c #D08C02",
"#	c #A37414",
"$	c #F0B700",
"%	c #C18202",
"&	c #FFC100",
"*	c #D29F00",
"=	c #F0B500",
"-	c #EEA002",
";	c #13110C",
"       ..       ",
"      +.@#      ",
"     ..@@@@     ",
"    +$%&&%*#    ",
"    ...@@@@@    ",
"   +$%&&&=%*#   ",
"  +...@@@@@@@#  ",
"  +$%&&&===%*#  ",
" +...@@@@@@@@@# ",
" +$%&&&=====%*# ",
"+...@@@@@@@@@@@#",
"+$%&&&--..===%*#",
"...@@@.;;.@@@@@@",
"+%&&&&.;;@====%#",
"..@@@..;;@@@%%%%",
"                "};
