/* XPM */
static char * sand_16px_xpm[] = {
"16 16 4 1",
" 	c #F9D717",
".	c #C6AB0B",
"+	c #F9DD35",
"@	c #D4B80C",
"  ..  ..  ..  ..",
"++  ++  ++  ++  ",
"@@++@@++@@++@@++",
"..@@..@@..@@..@@",
"  ..  ..  ..  ..",
"++  ++  ++  ++  ",
"@@++@@++@@++@@++",
"..@@..@@..@@..@@",
"  ..  ..  ..  ..",
"++  ++  ++  ++  ",
"@@++@@++@@++@@++",
"..@@..@@..@@..@@",
"  ..  ..  ..  ..",
"++  ++  ++  ++  ",
"@@++@@++@@++@@++",
"..@@..@@..@@..@@"};
