/* XPM */
static char *chest03[] = {
/* columns rows colors chars-per-pixel */
"16 16 43 1 ",
"  c #110E0A",
". c #14100C",
"X c #18130C",
"o c #1B160F",
"O c #1F1914",
"+ c #201B13",
"@ c #211D13",
"# c #251D13",
"$ c #211D14",
"% c #241D14",
"& c #251E14",
"* c #2D271D",
"= c #30291D",
"- c #3C3628",
"; c #3F3729",
": c #50390A",
"> c #403728",
", c #40382A",
"< c #41382B",
"1 c #7D5C19",
"2 c #735021",
"3 c #715127",
"4 c #755729",
"5 c #747474",
"6 c #86560F",
"7 c #835915",
"8 c #80581E",
"9 c #895F1A",
"0 c #8C5D1E",
"q c #8D6513",
"w c #90601A",
"e c #A56B14",
"r c #A0681A",
"t c #A2701F",
"y c #825F28",
"u c #8E6322",
"i c #936927",
"p c #A97725",
"a c #848484",
"s c #8F8E8F",
"d c gray64",
"f c #C0C0C0",
"g c None",
/* pixels */
"g<---<<--><<<<=g",
"g<pqqqp79pprep$g",
"g-reee6::6rrre$g",
"g-*===&fa&==**.g",
"g-ooo  d5  ooo&g",
"g<oooo s5 oooo&g",
"g<====&oo&====$g",
"g<434422242444&g",
"g>w0000wwyw008#g",
"g<pppeqpptttpi+g",
"g-qqqpttqqqep1+g",
"g<ttppqqqqtttu+g",
"g>rerrreeeeer0@g",
"g<pppqpqqqqqti&g",
"g<i11ii1ii1uiy&g",
"g@@#$$#$@@@$O$Xg"
};
