/* XPM */
static char *chest06[] = {
/* columns rows colors chars-per-pixel */
"16 16 41 1 ",
"  c #110E0A",
". c #14100C",
"X c #18130C",
"o c #1B160F",
"O c #1F1914",
"+ c #201B13",
"@ c #211D13",
"# c #251D13",
"$ c #211D14",
"% c #241D14",
"& c #251E14",
"* c #2D271D",
"= c #30291D",
"- c #0C3730",
"; c #3C3628",
": c #403728",
"> c #40382A",
", c #41382B",
"< c #7D5C19",
"1 c #735021",
"2 c #715127",
"3 c #755729",
"4 c #747474",
"5 c #80581E",
"6 c #8C5D1E",
"7 c #8D6513",
"8 c #90601A",
"9 c #A56B14",
"0 c #A0681A",
"q c #A2701F",
"w c #825F28",
"e c #8E6322",
"r c #936927",
"t c #A97725",
"y c #30DBBD",
"u c #8F8E8F",
"i c gray64",
"p c #A2F6E7",
"a c #D1FAF3",
"s c white",
"d c None",
/* pixels */
"d,;;;,,,;,,,,,*d",
"d,*===&i4&==**.d",
"d;ooo -u4- ooo&d",
"d,oo -ssss- oo&d",
"d;o -spppay- o%d",
"d,oo        oo&d",
"d,============%d",
"d,323311131333&d",
"d:868w88666665@d",
"d:ttt97ttqqqtr@d",
"d;777tt07779t<+d",
"d,t0tt7777qqqe+d",
"d:098q99999906@d",
"d,ttt7t77777qr&d",
"d:r<<rr<rr<erw&d",
"d@@&O%@%@@@OO%Xd"
};
