/* XPM */
static char *chest09[] = {
/* columns rows colors chars-per-pixel */
"16 16 39 1 ",
"  c #110E0A",
". c #14100C",
"X c #18130C",
"o c #1B160F",
"O c #1F1914",
"+ c #201B13",
"@ c #211D13",
"# c #251D13",
"$ c #211D14",
"% c #241D14",
"& c #251E14",
"* c #2D271D",
"= c #30291D",
"- c #0C3730",
"; c #383025",
": c #3C3628",
"> c #403728",
", c #41382B",
"< c #7D5C19",
"1 c #755729",
"2 c #1B7B6B",
"3 c #747474",
"4 c #8C5D1E",
"5 c #A0681A",
"6 c #A2701F",
"7 c #825F28",
"8 c #8E6322",
"9 c #936927",
"0 c #A97725",
"q c #209581",
"w c #2CCDB1",
"e c #30DBBD",
"r c #4AEDD1",
"t c #8F8E8F",
"y c #8CF4E2",
"u c #A2F6E7",
"i c #D1FAF3",
"p c white",
"a c None",
/* pixels */
"a,:::,;t3;,,,,*a",
"a:*====&&===**.a",
"a,oo  ---- ooo&a",
"a,oi -pppp- io&a",
"a:o ipuuuiei o%a",
"a,o-piuuprr-oo&a",
"a,=-pupiiire-=%a",
"a,-pupyyyyqr-1&a",
"aiipuiyyyyqre-@a",
"a:-piwyyyyq22iia",
"a:-prrqqqqwwq-+a",
"a,6-r2wwww2w-8+a",
"a,5-e2wwww2q-4@a",
"a,00-qwwwwqi69&a",
"a,9<<i-----8i7%a",
"a@@#i%@%@@@OO%Xa"
};
