/* XPM */
static char *chest07[] = {
/* columns rows colors chars-per-pixel */
"16 16 42 1 ",
"  c #110E0A",
". c #14100C",
"X c #18130C",
"o c #1B160F",
"O c #1F1914",
"+ c #201B13",
"@ c #211D13",
"# c #251D13",
"$ c #211D14",
"% c #241D14",
"& c #251E14",
"* c #2D271D",
"= c #30291D",
"- c #0C3730",
"; c #383025",
": c #3C3628",
"> c #403728",
", c #41382B",
"< c #7D5C19",
"1 c #755729",
"2 c #747474",
"3 c #80581E",
"4 c #8C5D1E",
"5 c #8D6513",
"6 c #A56B14",
"7 c #A0681A",
"8 c #A2701F",
"9 c #825F28",
"0 c #8E6322",
"q c #936927",
"w c #A97725",
"e c #209581",
"r c #2CCDB1",
"t c #30DBBD",
"y c #4AEDD1",
"u c #8F8E8F",
"i c gray64",
"p c #8CF4E2",
"a c #A2F6E7",
"s c #D1FAF3",
"d c white",
"f c None",
/* pixels */
"f,:::,,i2;,,,,*f",
"f,*===&u2&==**.f",
"f:ooo ---- ooo.f",
"f,oo -dddd- oo&f",
"f:o -dadsst- o%f",
"f,o-dsspppe-oo&f",
"f,=-ddppppet-=%f",
"f,-darppppey-1&f",
"f>-daaeeeeyy-<Of",
"f:w-sayyyyy-wq+f",
"f:55--yyyy-6w<+f",
"f,88ww----7ww0+f",
"f,767776666674%f",
"f,www5w5555580%f",
"f>q<<qq<qq<0q9%f",
"f@o*oo*o*O%OO%Xf"
};
