/* XPM */
static char *chest04[] = {
/* columns rows colors chars-per-pixel */
"16 16 41 1 ",
"  c #110E0A",
". c #14100C",
"X c #18130C",
"o c #1B160F",
"O c #1F1914",
"+ c #201B13",
"@ c #211D13",
"# c #251D13",
"$ c #211D14",
"% c #241D14",
"& c #251E14",
"* c #2D271D",
"= c #30291D",
"- c #3C3628",
"; c #3F3729",
": c #50390A",
"> c #403728",
", c #40382A",
"< c #41382B",
"1 c #7D5C19",
"2 c #735021",
"3 c #715127",
"4 c #755729",
"5 c #747474",
"6 c #86560F",
"7 c #80581E",
"8 c #8C5D1E",
"9 c #8D6513",
"0 c #90601A",
"q c #A56B14",
"w c #A0681A",
"e c #A2701F",
"r c #825F28",
"t c #8E6322",
"y c #936927",
"u c #A97725",
"i c #848484",
"p c #8F8E8F",
"a c gray64",
"s c #C0C0C0",
"d c None",
/* pixels */
"d<;-;><<;;<<<<=d",
"d;0qqq6::6e0qq&d",
"d-====&si&==** d",
"d<o+oo a5 oooo&d",
"d;oo   p5   oo&d",
"d>oooo    oooo&d",
"d<====&oo&====&d",
"d<434422242444&d",
"d>088880888881$d",
"d<uuuq9uuueeuy+d",
"d;999uee999qu1+d",
"d;eeuu9999weut+d",
"d>wqwwwqqqqq00&d",
"d<uuu9u99999ey&d",
"d>y11yy1yy1tyr&d",
"d@@&$$#$@@$$O$Xd"
};
