/* XPM */
static char *chest02[] = {
/* columns rows colors chars-per-pixel */
"16 16 48 1 ",
"  c #110E0A",
". c #14100C",
"X c #18130C",
"o c #1B160F",
"O c #1F1914",
"+ c #201B13",
"@ c #211D13",
"# c #251D13",
"$ c #211D14",
"% c #241D14",
"& c #251E14",
"* c #2D271D",
"= c #30291D",
"- c #3C3628",
"; c #3F3729",
": c #402F0F",
"> c #50390A",
", c #403728",
"< c #40382A",
"1 c #41382B",
"2 c #5E451E",
"3 c #714B14",
"4 c #77551D",
"5 c #7D5C19",
"6 c #735021",
"7 c #715127",
"8 c #755729",
"9 c #747474",
"0 c #86560F",
"q c #835915",
"w c #80581E",
"e c #895F1A",
"r c #8C5D1E",
"t c #8D6513",
"y c #90601A",
"u c #A56B14",
"i c #A0681A",
"p c #A2701F",
"a c #825F28",
"s c #8E6322",
"d c #936927",
"f c #A97725",
"g c #848484",
"h c #8F8E8F",
"j c gray64",
"k c #C0C0C0",
"l c #CBCBCB",
"z c None",
/* pixels */
"z1---11--,1111=z",
"z1ftttfqeffiuf$z",
"z-iuuu0>>0iiyu$z",
"z1555d4lj>5yds&z",
"z-*===&kg&==== z",
"z1oooo j9 oooo&z",
"z1====&h9&====&z",
"z1878822::6888&z",
"z-yrrrr33rrrr5$z",
"z;fffutffippfd$z",
"z-tttfiftttuf5$z",
"z1ppffttttfpis$z",
"z1iuiiiuuuuuirOz",
"z1ffftftttttfd&z",
"z1d55dd5dd5sda$z",
"z@@#$$#$@@+$$$Xz"
};
