/* XPM */
static char *chest12[] = {
/* columns rows colors chars-per-pixel */
"16 16 37 1 ",
"  c black",
". c #070604",
"X c #110E0A",
"o c #14100C",
"O c #18130C",
"+ c #1B160F",
"@ c #1F1914",
"# c #201B13",
"$ c #211D13",
"% c #251D13",
"& c #211D14",
"* c #241D14",
"= c #251E14",
"- c #2D271D",
"; c #30291D",
": c #383025",
"> c #3C3628",
", c #403728",
"< c #41382B",
"1 c #7D5C19",
"2 c #735021",
"3 c #715127",
"4 c #755729",
"5 c #747474",
"6 c #80581E",
"7 c #8C5D1E",
"8 c #8D6513",
"9 c #90601A",
"0 c #A56B14",
"q c #A0681A",
"w c #A2701F",
"e c #825F28",
"r c #8E6322",
"t c #936927",
"y c #A97725",
"u c #8F8E8F",
"i c None",
/* pixels */
"i<>>><:u5:<<<<-i",
"i>-;;;;==;;;--oi",
"i<++XX....X+++=i",
"i<+XX..  ..XX+=i",
"i>+XX..  ..XX+*i",
"i<++XX....XX++=i",
"i<;;;;;;;;;;;;*i",
"i<434422242444=i",
"i,979e99977776$i",
"i,yyy08yywwwyt#i",
"i>888yyq8880y1#i",
"i<yqyy8888wwwr#i",
"i,q09w000000q7$i",
"i<yyy8y88888wt=i",
"i<t11tt1tt1rte*i",
"i$$%@*$*$$$@@*Oi"
};
