/* XPM */
static char *chest00[] = {
/* columns rows colors chars-per-pixel */
"16 16 47 1 ",
"  c #14100C",
". c #18130C",
"X c #1F1914",
"o c #201B13",
"O c #211D13",
"+ c #251D13",
"@ c #211D14",
"# c #241D14",
"$ c #251E14",
"% c #2D271D",
"& c #30291D",
"* c #3C3628",
"= c #3F3729",
"- c #402F0F",
"; c #50390A",
": c #403728",
"> c #40382A",
", c #41382B",
"< c #5E451E",
"1 c #754C12",
"2 c #714B14",
"3 c #77551D",
"4 c #7D5C19",
"5 c #735021",
"6 c #715127",
"7 c #755729",
"8 c #747474",
"9 c #86560F",
"0 c #835915",
"q c #80581E",
"w c #895F1A",
"e c #8C5D1E",
"r c #8D6513",
"t c #90601A",
"y c #A56B14",
"u c #A0681A",
"i c #A2701F",
"p c #825F28",
"a c #8E6322",
"s c #936927",
"d c #A97725",
"f c #848484",
"g c #8F8E8F",
"h c gray64",
"j c #C0C0C0",
"k c #CBCBCB",
"l c None",
/* pixels */
"llllllllllllllll",
"llllllllllllllll",
"l,***,,,*==*,,%l",
"l,drrri0tdddydol",
"l*uyyy9;;9uuuy@l",
"l,444s3kh;4taa$l",
"l*%&&&$jf$%&%% l",
"l,7677<h8-5777$l",
"l:teee2g81eeeqOl",
"l,dddyrddiiidsol",
"l*rrrdiirrryd4ol",
"l,iiddrrrriiiaol",
"l:uyuuuyyyyyueOl",
"l,dddrdrrrrris$l",
"l,s44ss4ss4asp$l",
"lOO+@@+@OOO@X@.l"
};
