/* XPM */
static char *_[] = {
/* columns rows colors chars-per-pixel */
"16 16 75 1 ",
"  c #B64000",
". c #B34400",
"X c #B84800",
"o c #B94901",
"O c #B84F03",
"+ c #BC4B04",
"@ c #BC5200",
"# c #BD5300",
"$ c #BD5800",
"% c #C05500",
"& c #C25C03",
"* c #C65F00",
"= c #C46300",
"- c #C66500",
"; c #C76600",
": c #C96700",
"> c #C66B00",
", c #C96D03",
"< c #CD7000",
"1 c #CB7400",
"2 c #CE7600",
"3 c #CF7700",
"4 c #CD7B01",
"5 c #CC7009",
"6 c #D17903",
"7 c #D27A05",
"8 c #D17E07",
"9 c #D58100",
"0 c #D58600",
"q c #D48C03",
"w c #D88A05",
"e c #D3800C",
"r c #D5810E",
"t c #D78E08",
"y c #D88F0A",
"u c #DB9C06",
"i c #DF9F0E",
"p c #DC9211",
"a c #D99511",
"s c #DA9613",
"d c #DC9817",
"f c #E0A010",
"g c #E2A214",
"h c #E0A617",
"j c #E4A91C",
"k c #E1AC1C",
"l c #E4AF21",
"z c #E5B626",
"x c #E6B727",
"c c #E5B732",
"v c #E8B934",
"b c #EBBC38",
"n c #ECBD39",
"m c #E9C03A",
"M c #EDC447",
"N c #EEC548",
"B c #EDCA4B",
"V c #EECD54",
"C c #F1CF57",
"Z c #F2D160",
"A c #F3D261",
"S c #F0D562",
"D c #F1D76B",
"F c #F2D86C",
"G c #F2DA74",
"H c #F3DB75",
"J c #F4DC76",
"K c #F4DD7E",
"L c #F8E491",
"P c #F9E699",
"I c #F9EAA9",
"U c #F9F3CA",
"Y c #FBF6D3",
"T c #FEFFFC",
"R c None",
/* pixels */
"RRRRRRRRRRRRRRRR",
"RRRRRRRRRRRRRRRR",
"RRRRRRRRRRRRRRRR",
"RRRRRRRR RRRRRRR",
"RRRRRRR  RRR .RR",
"RRRRRRR.X@@$o RR",
"R+oRR@r43;;>;oRR",
"Ro$$=0hmgw31;@RR",
"R8w5:1dvzd0tl>RR",
" bh4>*9hCPiut4&R",
"7ZThrwlxTTYhda;R",
"6HDca0aHMGj01,1O",
"#bfa,4IFLt<68>;R",
":nTmrTTVtITTTTsR",
"mTxe4hTTLMUDZSTT",
"&48&aTTkl#@p=tB@"
};
