/* XPM */
static char *_[] = {
/* columns rows colors chars-per-pixel */
"16 16 71 1 ",
"  c #B64000",
". c #B34400",
"X c #B44500",
"o c #B74700",
"O c #B84800",
"+ c #B94901",
"@ c #BC5200",
"# c #BD5300",
"$ c #BD5800",
"% c #C15600",
"& c #C15B02",
"* c #C25C03",
"= c #C65F00",
"- c #C46300",
"; c #C66500",
": c #C76600",
"> c #C96700",
", c #C66B00",
"< c #C96D03",
"1 c #CA6E05",
"2 c #CB6F07",
"3 c #CA7300",
"4 c #CE7000",
"5 c #CB7400",
"6 c #CE7600",
"7 c #CF7700",
"8 c #CD7B01",
"9 c #D07801",
"0 c #D17E07",
"q c #D38500",
"w c #D58600",
"e c #D48C03",
"r c #D5810E",
"t c #D78E08",
"y c #D88F0A",
"u c #DE9905",
"i c #DC9D08",
"p c #DF9F0E",
"a c #DC9211",
"s c #D99511",
"d c #DA9613",
"f c #DC9817",
"g c #E1A112",
"h c #E2A214",
"j c #E0A617",
"k c #E4A91C",
"l c #E4AF21",
"z c #E8B325",
"x c #E4B630",
"c c #E8B934",
"v c #EBBC38",
"b c #ECBD39",
"n c #E9C03A",
"m c #EDC447",
"M c #EDCA4B",
"N c #EDCC53",
"B c #EECD54",
"V c #F1CF57",
"C c #F2D058",
"Z c #F1D05F",
"A c #F1D76B",
"S c #F2DA74",
"D c #F4DD7E",
"F c #F7DF80",
"G c #F5DF86",
"H c #F9EAA9",
"J c #FAECB2",
"K c #FBF6D3",
"L c #FAF9DC",
"P c #FEFFFC",
"I c None",
/* pixels */
"IIIIIIIIIIIIIIII",
"IIIIIIIIIIIIIIII",
"IIIIIIIIIIIIIIII",
"IIIIIIIIIIIIIIII",
"IIIIIIII .o+IIII",
"IIIIIo>>-$$&%III",
"I ++#5ype5>;$oII",
"I;4-*,wgiwIrt&II",
"Idt2&&5azvtw0,@I",
"*lJa59fgSFVdw0$I",
"=vbhq8wvxmi0,;-I",
"ojdw;5mbne<22=$I",
"@jPj9HPvwVPHDP0I",
"tAj85iKPZvFANMLl",
"@55=wPPlk$$q;wl+",
"wPPyuIJP<5PPcBPP"
};
