/* XPM */
static char *_0[] = {
/* columns rows colors chars-per-pixel */
"16 16 42 1 ",
"  c #B64000",
". c #B34400",
"X c #B44500",
"o c #B74700",
"O c #B84800",
"+ c #B94901",
"@ c #B84F03",
"# c #BC4B04",
"$ c #BC5200",
"% c #BD5300",
"& c #BD5800",
"* c #C05500",
"= c #C15B02",
"- c #C25C03",
"; c #C46300",
": c #C66B00",
"> c #C96D03",
", c #CA6E05",
"< c #CB7400",
"1 c #CF7700",
"2 c #CD7B01",
"3 c #D17903",
"4 c #D58100",
"5 c #D58600",
"6 c #D88A05",
"7 c #D88F0A",
"8 c #DC9D08",
"9 c #DF9F0E",
"0 c #DC9211",
"q c #DC9817",
"w c #E0A617",
"e c #E4AF21",
"r c #E8B325",
"t c #E9C03A",
"y c #EBC848",
"u c #EDCA4B",
"i c #EECD54",
"p c #F0CF5E",
"a c #F9E8A1",
"s c #FAECB2",
"d c #FEFFFC",
"f c None",
/* pixels */
"ffffffffffffffff",
"ffffffffffffffff",
"ffffffffffffffff",
"ffffff  f  fffff",
"fffffff%ooOo.fff",
"fffffo$%o f ffff",
"ffOf %%@ff .ffff",
"fO&%O#Offfffffff",
"f#%*=>#fffffffff",
"f . @$O.ffffffff",
"fO#&=%ffoOfff ff",
"fw<27&-e5= o fff",
"fiw>=;8ddde=#*ff",
"%q0Of3ddddsady@f",
"f8d>f1rfffftq6-;",
"f6dd7*;pere4;u<>"
};
