/* XPM */
static char *_1[] = {
/* columns rows colors chars-per-pixel */
"16 16 46 1 ",
"  c #B64000",
". c #B34400",
"X c #B44500",
"o c #B74700",
"O c #B84800",
"+ c #B94901",
"@ c #B84F03",
"# c #BC4B04",
"$ c #BC5200",
"% c #BD5300",
"& c #C05500",
"* c #C15B02",
"= c #C46300",
"- c #C66500",
"; c #C66B00",
": c #CB6F07",
"> c #CD7000",
", c #CE7600",
"< c #CD7B01",
"1 c #CC7009",
"2 c #D17E07",
"3 c #D58100",
"4 c #D58600",
"5 c #D88A05",
"6 c #D3800C",
"7 c #D78E08",
"8 c #D88F0A",
"9 c #DF9F0E",
"0 c #DC9817",
"q c #E1A112",
"w c #E4A91C",
"e c #E4AF21",
"r c #E8B325",
"t c #E7B829",
"y c #E5B732",
"u c #E9C03A",
"i c #EBC23C",
"p c #F1CF57",
"a c #F2DA74",
"s c #F7DF80",
"d c #F5DF86",
"f c #FBF6D3",
"g c #F8F6D9",
"h c #FDFAEA",
"j c #FEFFFC",
"k c None",
/* pixels */
"kkkkkkkkkkkkkkkk",
"kkkkkkkkkkkkkkkk",
"kkkkkkkkkkkkkkkk",
"kkkkkkk.kk kkkkk",
"kkkkkkoo kkkkkkk",
"kkkkkoookkkkkkkk",
"kk+o.. kkkkkkkkk",
"k ++$*.kkkkkkkkk",
"kkkkoo.kkkkkkkkk",
"kk.#$okkkkkkkkkk",
"k6-;,$%5:@kkkkkk",
"kq8=&*5jsj8%.okk",
".36+k>jjjjpih9.k",
"k4f-k1ejjjjy02&o",
"k6jj2%-urtw6=q-%",
"kakh<gj7j0dujj<k"
};
