/* XPM */
static char *_2[] = {
/* columns rows colors chars-per-pixel */
"16 16 45 1 ",
"  c #B64000",
". c #B34400",
"X c #B74700",
"o c #B84800",
"O c #B94901",
"+ c #BC4B04",
"@ c #BC5200",
"# c #BD5800",
"$ c #C15B02",
"% c #C46300",
"& c #C66500",
"* c #C76600",
"= c #C96700",
"- c #C96D03",
"; c #CB6F07",
": c #CE7000",
"> c #CB7400",
", c #CE7600",
"< c #CF7700",
"1 c #CD7B01",
"2 c #CC7009",
"3 c #D07801",
"4 c #D17903",
"5 c #D17E07",
"6 c #D58600",
"7 c #D78E08",
"8 c #DC9211",
"9 c #E1A112",
"0 c #E2A214",
"q c #E0A617",
"w c #E4A91C",
"e c #E4AF21",
"r c #E5B626",
"t c #E6B727",
"y c #E8B325",
"u c #E8B934",
"i c #EBBC38",
"p c #E9C03A",
"a c #EBC848",
"s c #EECD54",
"d c #F7DF80",
"f c #F7E390",
"g c #FAEBAA",
"h c #FEFFFC",
"j c None",
/* pixels */
"jjjjjjjjjjjjjjjj",
"jjjjjjjjjjjjjjjj",
"jjjjjjjjjjjjjjjj",
"jjjjjjjjjjjjjjjj",
"jjjj   jjjjjjjjj",
"j  jjjjjjjjjjjjj",
"jj  Xojjjjjjjjjj",
"jjjj  jjjjjjjjjj",
"jjj .jjjjjjjjjjj",
"j&#$%Xo-$.jjjjjj",
"jj1$+@3sus3Xjjjj",
"j;2Xj&hhhfy9p5jj",
"j>p$$=qhhhhw7-oj",
"j<hh>@&eyy0<%6$j",
"jujf1ah7h8iyhh<j",
"3hdhhhrwjrgrhhhh"
};
