/* XPM */
static char *_4[] = {
/* columns rows colors chars-per-pixel */
"16 16 56 1 ",
"  c #B64000",
". c #B34400",
"X c #B44500",
"o c #B74700",
"O c #B84800",
"+ c #BC4B04",
"@ c #BC5200",
"# c #BD5300",
"$ c #BD5800",
"% c #C05500",
"& c #C15B02",
"* c #C65F00",
"= c #C66500",
"- c #C76600",
"; c #C96D03",
": c #CB6F07",
"> c #CD7000",
", c #CE7600",
"< c #D07801",
"1 c #D17E07",
"2 c #D58100",
"3 c #D48C03",
"4 c #D88A05",
"5 c #D3800C",
"6 c #D78E08",
"7 c #D88F0A",
"8 c #DE9905",
"9 c #DC9D08",
"0 c #DC9211",
"q c #DA9613",
"w c #E2A214",
"e c #E0A617",
"r c #E4A91C",
"t c #E4AF21",
"y c #E5B626",
"u c #E8B325",
"i c #E7B829",
"p c #E8B934",
"a c #EBBC38",
"s c #E9C03A",
"d c #EDC33D",
"f c #EDC447",
"g c #ECCB52",
"h c #F1CF57",
"j c #F5DF86",
"k c #F7E390",
"l c #F9E8A1",
"z c #FAE9A2",
"x c #FAECB2",
"c c #F9EEB9",
"v c #FAEFBA",
"b c #FBF0BB",
"n c #FBF4CB",
"m c #F8F6D9",
"M c #FEFFFC",
"N c None",
/* pixels */
"NNNNNNNNNNNNNNNN",
"NNNNNNNNNNNNNNNN",
"NNNNNNNNNNNNNNNN",
"NNNNNNNNNNNNNNNN",
"NNNNNNNNNNNNNNNN",
"NNNNNNNNNNNNNNNN",
"NNNNNNNNNNNNNNNN",
"NN  oNNo NNNNNNN",
"N%$o  $211@NNNNN",
"N@%NN%rgbr2>,@NN",
"N%<oN$6kNnf4>$NN",
"N&si&o*qew6:$*oN",
"N2ct:4i1t160Ml&N",
"OpajMMwqh8rrMMMu",
"9txNf7--lMMMMfl3",
"+idMMm$fNNNNNpMc"
};
