/* XPM */
static char *_5[] = {
/* columns rows colors chars-per-pixel */
"16 16 61 1 ",
"  c #B64000",
". c #B34400",
"X c #B74700",
"o c #B94901",
"O c #B84F03",
"+ c #BC4B04",
"@ c #BC5200",
"# c #BD5300",
"$ c #C15B02",
"% c #C25C03",
"& c #C46300",
"* c #C66500",
"= c #C96700",
"- c #C66B00",
"; c #C96D03",
": c #CB6F07",
"> c #CA7300",
", c #CB7400",
"< c #CE7600",
"1 c #CF7700",
"2 c #CD7B01",
"3 c #D07801",
"4 c #D17E07",
"5 c #D58100",
"6 c #D58600",
"7 c #D48C03",
"8 c #D88A05",
"9 c #D3800C",
"0 c #D78E08",
"q c #D88F0A",
"w c #DE9905",
"e c #DB9C06",
"r c #DC9D08",
"t c #DC9211",
"y c #D99511",
"u c #DA9613",
"i c #DC9817",
"p c #E0A010",
"a c #E0A617",
"s c #E4A91C",
"d c #E1AC1C",
"f c #E5B626",
"g c #E6B727",
"h c #E8B325",
"j c #E7B829",
"k c #E8B934",
"l c #EAC13B",
"z c #EDC33D",
"x c #EDC447",
"c c #EFC649",
"v c #F1CF57",
"b c #F2D160",
"n c #F2DA74",
"m c #F4DD7E",
"M c #F5DF86",
"N c #F6E28F",
"B c #F9E8A1",
"V c #FAE9A2",
"C c #FEF7E2",
"Z c #FEFFFC",
"A c None",
/* pixels */
"AAAAAAAAAAAAAAAA",
"AAAAAAAAAAAAAAAA",
"AAAAAAAAAAAAAAAA",
"AAAAAAAAAAAAAAAA",
"AAAAAAAAAAAAAAAA",
"AAAAAAAAAAAAAAAA",
"AAAAAAAAAAAAAAAA",
"A.o AAo-=*.AAAAA",
"A.oAAo0szq:%%.AA",
"AX& A@4xMva3*+AA",
"AOwt@ $6ii5*@@AA",
"A;ze*<y<u324mf@A",
"AialNZy6d8teCZZ9",
",wvVk7=*cZZZZcb>",
" rkZZn$fZZZZZjZh",
"VgZMAkaZZZZMapc-"
};
