/* XPM */
static char *_6[] = {
/* columns rows colors chars-per-pixel */
"16 16 57 1 ",
"  c #B64000",
". c #B34400",
"X c #B74700",
"o c #B94901",
"O c #BC5200",
"+ c #BD5800",
"@ c #C05500",
"# c #C15B02",
"$ c #C25C03",
"% c #C46300",
"& c #C66500",
"* c #C76600",
"= c #C66B00",
"- c #CA6E05",
"; c #CB6F07",
": c #CB7400",
"> c #CE7600",
", c #CF7700",
"< c #CD7B01",
"1 c #D17903",
"2 c #D27A05",
"3 c #D58100",
"4 c #D38500",
"5 c #D58600",
"6 c #D48C03",
"7 c #D3800C",
"8 c #D78E08",
"9 c #D88F0A",
"0 c #DB9C06",
"q c #DF9F0E",
"w c #DC9211",
"e c #D99511",
"r c #E0A010",
"t c #E1A112",
"y c #E0A617",
"u c #E4A91C",
"i c #E1AC1C",
"p c #E4AF21",
"a c #E8B934",
"s c #EBBC38",
"d c #ECBD39",
"f c #E9C03A",
"g c #EBC848",
"h c #EDCC53",
"j c #F0D562",
"k c #F2D86C",
"l c #F3DB75",
"z c #F4DD7E",
"x c #F7E390",
"c c #F8E491",
"v c #F8E7A0",
"b c #F9EEB9",
"n c #FEF7E2",
"m c #FFF8E3",
"M c #FCFBF2",
"N c #FEFFFC",
"B c None",
/* pixels */
"BBBBBBBBBBBBBBBB",
"BBBBBBBBBBBBBBBB",
"BBBBBBBBBBBBBBBB",
"BBBBBBBBBBBBBBBB",
"BBBBBBBBBBBBBBBB",
"BBBBBBBBBBBBBBBB",
"B  BBB @@OBBBBBB",
"BB BB :8q1$OoBBB",
"BBOBBX;ufp8=O BB",
"B.<>XB@<86>$ooBB",
"B#q4#&2=3;;:p9XB",
"B<eysk4<w<78jNl#",
"@4pgu3&%iNNNNsa$",
"B5uNNd+yNNNNNpN5",
"rrmznprNNNNcq0i#",
"B9M>&:NNNbhveNNx"
};
