/* XPM */
static char *_7[] = {
/* columns rows colors chars-per-pixel */
"16 16 60 1 ",
"  c #B64000",
". c #B34400",
"X c #B74700",
"o c #B94901",
"O c #BC4B04",
"+ c #BC5200",
"@ c #BD5800",
"# c #C05500",
"$ c #C15B02",
"% c #C25C03",
"& c #C65F00",
"* c #C46300",
"= c #C66500",
"- c #C76600",
"; c #C96700",
": c #C66B00",
"> c #C96D03",
", c #CB6F07",
"< c #CA7300",
"1 c #CB7400",
"2 c #CE7600",
"3 c #CD7B01",
"4 c #D07801",
"5 c #D17903",
"6 c #D27A05",
"7 c #D17E07",
"8 c #D58100",
"9 c #D38500",
"0 c #D48C03",
"q c #D3800C",
"w c #D5810E",
"e c #D78E08",
"r c #D88F0A",
"t c #DE9905",
"y c #DC9D08",
"u c #DC9211",
"i c #D99511",
"p c #DA9613",
"a c #DC9817",
"s c #E1A112",
"d c #E2A214",
"f c #E0A617",
"g c #E4A91C",
"h c #E1AC1C",
"j c #E4AF21",
"k c #E8B325",
"l c #EDC447",
"z c #EDCC53",
"x c #F1CF57",
"c c #F1D05F",
"v c #EFD569",
"b c #F3D261",
"n c #F4DC76",
"m c #F5DF86",
"M c #FAE9A2",
"N c #FCF2C3",
"B c #FBF4CB",
"V c #FCFBF2",
"C c #FEFFFC",
"Z c None",
/* pixels */
"ZZZZZZZZZZZZZZZZ",
"ZZZZZZZZZZZZZZZZ",
"ZZZZZZZZZZZZZZZZ",
"ZZZZZZZZZZZZZZZZ",
"ZZZZZZZZZZZZZZZZ",
"ZZZZZZZXX ZZZZZZ",
"ZZZZZZ&2w-+ ZZZZ",
"Z..ZZ *udi5$oZZZ",
"ZZ*&ZZ+<w7>#.ZZZ",
"OO8<+#;*<---01ZZ",
"Z-qryj2,3Z,7kmg.",
" <tha5&%imCCMjso",
"Z2aVCf@iCCCCBfx:",
"<ebxmfaCCCCmauio",
"Z9c5-<CCCNxviCCj",
"OCCC%@-6tnlzCCC*"
};
