/* XPM */
static char *_8[] = {
/* columns rows colors chars-per-pixel */
"16 16 60 1 ",
"  c #B64000",
". c #B34400",
"X c #B84800",
"o c #B94901",
"O c #BC4B04",
"+ c #BC5200",
"@ c #BD5800",
"# c #C05500",
"$ c #C15B02",
"% c #C25C03",
"& c #C65F00",
"* c #C46300",
"= c #C66500",
"- c #C76600",
"; c #C66B00",
": c #CA6E05",
"> c #CB6F07",
", c #CA7300",
"< c #CD7000",
"1 c #CE7600",
"2 c #CF7700",
"3 c #CD7B01",
"4 c #CC7009",
"5 c #D17903",
"6 c #D17E07",
"7 c #D58100",
"8 c #D38500",
"9 c #D58600",
"0 c #D48C03",
"q c #D3800C",
"w c #D78E08",
"e c #DE9905",
"r c #DF9F0E",
"t c #DC9211",
"y c #D99511",
"u c #DC9817",
"i c #E0A010",
"p c #E4A91C",
"a c #E4AF21",
"s c #E8B325",
"d c #E8B934",
"f c #EBBC38",
"g c #ECBD39",
"h c #EBC23C",
"j c #EDC33D",
"k c #EBC848",
"l c #EDCC53",
"z c #EECD54",
"x c #F2D160",
"c c #F0D562",
"v c #F0D66A",
"b c #F1D973",
"n c #F2DA74",
"m c #F7DF80",
"M c #F5DF86",
"N c #FAECB2",
"B c #F9F8DA",
"V c #FFF8E3",
"C c #FEFFFC",
"Z c None",
/* pixels */
"ZZZZZZZZZZZZZZZZ",
"ZZZZZZZZZZZZZZZZ",
"ZZZZZZZZZZZZZZZZ",
"ZZZZZZZZZZZZZZZZ",
"ZZZZZZZZZZZZZZZZ",
"ZZZZZZ+*;#.ZZZZZ",
"ZZZZZZ@306=+ ZZZ",
"ZZ++ZZX=2<*OZZZZ",
"Z ;&XX@@=%@$<%ZZ",
"Z#>38wZ*;**4us9Z",
"Z&8y9>$@qdmCzr0Z",
"Z=9vCt#8CCCBnep+",
"#5sgkuwCCCCct97Z",
"Z2a2=,NZZNzjtCC9",
" CMc@#=6uhadCVN@",
"CxnCCCi3>bCCCCCC"
};
