/* XPM */
static char *_9[] = {
/* columns rows colors chars-per-pixel */
"16 16 65 1 ",
"  c #B64000",
". c #B34400",
"X c #B44500",
"o c #B74700",
"O c #B94901",
"+ c #BC4B04",
"@ c #BC5200",
"# c #BD5300",
"$ c #BD5800",
"% c #C05500",
"& c #C15600",
"* c #C15B02",
"= c #C25C03",
"- c #C65F00",
"; c #C46300",
": c #C66500",
"> c #C96700",
", c #C66B00",
"< c #CA6E05",
"1 c #CB6F07",
"2 c #CA7300",
"3 c #CB7400",
"4 c #CE7600",
"5 c #CF7700",
"6 c #CD7B01",
"7 c #CC7009",
"8 c #D17903",
"9 c #D17E07",
"0 c #D58600",
"q c #D48C03",
"w c #D3800C",
"e c #D5810E",
"r c #D78E08",
"t c #D88F0A",
"y c #DE9905",
"u c #D99511",
"i c #DC9817",
"p c #E2A214",
"a c #E4A91C",
"s c #E1AC1C",
"d c #E4AF21",
"f c #E5B626",
"g c #E5B732",
"h c #E8B934",
"j c #EAC13B",
"k c #EDC33D",
"l c #EDC447",
"z c #EEC548",
"x c #EBC848",
"c c #EDCC53",
"v c #F2D160",
"b c #F3D261",
"n c #F4DD7E",
"m c #F7E390",
"M c #F8E598",
"N c #F9E699",
"B c #F9E8A1",
"V c #FCF2C3",
"C c #FBF6D3",
"Z c #FAF9DC",
"A c #FFF8E3",
"S c #FDFAEA",
"D c #FCFBF2",
"F c #FEFFFC",
"G c None",
/* pixels */
"GGGGGGGGGGGGGGGG",
"GGGGGGGGGGGGGGGG",
"GGGGGGGGGGGGGGGG",
"GGGGGGGGGGGGGGGG",
"GGGGGG #$oGGGGGG",
"GGGGGGO,5,$.GGGG",
"GG. GG.*>;$ GGGG",
"GG$#  +@*$##=+GG",
"Go-,13*$=$&;wt>G",
"G#2w5:#@1yhFdr5G",
"G$8fBw#5CVDnjrr ",
"G>yad0eFFFFz092G",
"G>i2;1cGAmldqFF>",
"GFjd$#:6udpsFNv#",
"FzzVSFr7,kFFFFFF",
"aFb6g0kFFFFFFMZr"
};
