/* XPM */
static char *_[] = {
/* columns rows colors chars-per-pixel */
"16 16 64 1 ",
"  c #B64000",
". c #B34400",
"X c #B74700",
"o c #B84800",
"O c #B94901",
"+ c #BC4B04",
"@ c #BC5200",
"# c #BD5300",
"$ c #BD5800",
"% c #C05500",
"& c #C15B02",
"* c #C25C03",
"= c #C65F00",
"- c #C46300",
"; c #C66500",
": c #C76600",
"> c #C96700",
", c #C66B00",
"< c #C96D03",
"1 c #CB6F07",
"2 c #CD7000",
"3 c #CE7600",
"4 c #CF7700",
"5 c #CD7B01",
"6 c #CC7009",
"7 c #D07801",
"8 c #D27A05",
"9 c #D17E07",
"0 c #D38500",
"q c #D58600",
"w c #D48C03",
"e c #D88A05",
"r c #D3800C",
"t c #D5810E",
"y c #D78E08",
"u c #D88F0A",
"i c #DF9A08",
"p c #DC9D08",
"a c #DC9211",
"s c #DC9817",
"d c #E0A010",
"f c #E1A112",
"g c #E0A617",
"h c #E4A91C",
"j c #E4AF21",
"k c #E5B626",
"l c #E8B325",
"z c #E8B934",
"x c #EBBC38",
"c c #E9C03A",
"v c #EDC33D",
"b c #EFC649",
"n c #EBC848",
"m c #EECD54",
"M c #F1CF57",
"N c #F3D261",
"B c #F4DD7E",
"V c #F7DF80",
"C c #F8E598",
"Z c #FAECB2",
"A c #FCF2C3",
"S c #F9F8DA",
"D c #FEFFFC",
"F c None",
/* pixels */
"FFFFFFFFFFFFFFFF",
"FFFFFFFFFFFFFFFF",
"FFFFFFFFFFFFFFFF",
"FFFFFFFFFFFFFFFF",
"FFFFFF%$$OO@OFFF",
"FF  X-4q4>&$+FFF",
"F@=%%=7ye3,<4@FF",
"F47F%%,0if946* F",
"oac9;,tyxcj041oF",
"+dgu418ggju4-$@F",
"Fyq7-,gghr;;-%oF",
".yNu6vDhrkDbxD6F",
",ls43aVDxjMvxzm9",
".<<$9DAhp*&5;9s ",
"<DDeaFBA>,SDgjZD",
"DCDDpnw&oouq1-g@"
};
