/* XPM */
static char *_0[] = {
/* columns rows colors chars-per-pixel */
"16 16 67 1 ",
"  c #B34400",
". c #B44500",
"X c #B74700",
"o c #B84800",
"O c #B94901",
"+ c #B84F03",
"@ c #BC4B04",
"# c #BC5200",
"$ c #BD5800",
"% c #C05500",
"& c #C15B02",
"* c #C25C03",
"= c #C65F00",
"- c #C46300",
"; c #C66500",
": c #C76600",
"> c #C96700",
", c #C66B00",
"< c #C96D03",
"1 c #CA6E05",
"2 c #CB6F07",
"3 c #CB7400",
"4 c #CE7600",
"5 c #CD7B01",
"6 c #D17903",
"7 c #D27A05",
"8 c #D17E07",
"9 c #D58100",
"0 c #D38500",
"q c #D58600",
"w c #D3800C",
"e c #D5810E",
"r c #D78E08",
"t c #DD9802",
"y c #DE9905",
"u c #DC9D08",
"i c #DF9F0E",
"p c #DC9211",
"a c #DA9613",
"s c #DC9817",
"d c #E2A214",
"f c #E0A617",
"g c #E4A91C",
"h c #E4AF21",
"j c #E8B325",
"k c #E5B732",
"l c #E8B934",
"z c #EBBC38",
"x c #EAC13B",
"c c #EDC33D",
"v c #EDC447",
"b c #EDCA4B",
"n c #EDCC53",
"m c #F1CF57",
"M c #EFD569",
"N c #F2DA74",
"B c #F7DF80",
"V c #F5DF86",
"C c #F7E390",
"Z c #F9E8A1",
"A c #FAE9A2",
"S c #F9EAA9",
"D c #F9EBB0",
"F c #FBF4CB",
"G c #FEF7E2",
"H c #FEFFFC",
"J c None",
/* pixels */
"JJJJJJJJJJJJJJJJ",
"JJJJJJJJJJJJJJJJ",
"JJJJJJJJJJJJJJJJ",
"JJJJJJJ XJJJJJJJ",
"JJJJJJJ*-*oJJJJJ",
"JJJJJJJ#**@JJJJJ",
"JJoXJJJX#@XX@JJJ",
"JJ#&*=###++$13#J",
"JJ-1>&oo-8yms5-J",
"Jo,yl2o:vnNcgw3J",
"J$qtu74BHHHkw3-J",
"J&e<=>hCCMld9NA#",
"Jxfp##-7riauHmk ",
"HhjbmG8::hHHFHHH",
"rHz5fqhHHHHHHVDw",
"#5:%sy9SJJAJJ88V"
};
