/* XPM */
static char *_2[] = {
/* columns rows colors chars-per-pixel */
"16 16 68 1 ",
"  c #B64000",
". c #B34400",
"X c #B44500",
"o c #B74700",
"O c #B84800",
"+ c #B94901",
"@ c #BC5200",
"# c #BD5300",
"$ c #BD5800",
"% c #C05500",
"& c #C15B02",
"* c #C25C03",
"= c #C65F00",
"- c #C46300",
"; c #C66500",
": c #C76600",
"> c #C96700",
", c #C66B00",
"< c #CA6E05",
"1 c #CB6F07",
"2 c #CB7400",
"3 c #CE7600",
"4 c #CF7700",
"5 c #CD7B01",
"6 c #D07801",
"7 c #D17903",
"8 c #D17E07",
"9 c #D58100",
"0 c #D38500",
"q c #D58600",
"w c #D48C03",
"e c #D3800C",
"r c #D5810E",
"t c #D78E08",
"y c #D88F0A",
"u c #DE9905",
"i c #DC9D08",
"p c #DC9211",
"a c #D99511",
"s c #DA9613",
"d c #E0A010",
"f c #E4A91C",
"g c #E4AF21",
"h c #E5B626",
"j c #E6B727",
"k c #E8B325",
"l c #E5B732",
"z c #EBBC38",
"x c #E9C03A",
"c c #EBC23C",
"v c #EDC33D",
"b c #EFC649",
"n c #EDCA4B",
"m c #F1D05F",
"M c #F3D261",
"N c #F1D76B",
"B c #F4DD7E",
"V c #F6E28F",
"C c #F7E390",
"Z c #FAE9A2",
"A c #F9EAA9",
"S c #FCF2C3",
"D c #FBF4CB",
"F c #FFF8E3",
"G c #FDFAEA",
"H c #FCFBF2",
"J c #FEFFFC",
"K c None",
/* pixels */
"KKKKKKKKKKKKKKKK",
"KKKKKKKKKKKKKKKK",
"KKKKKKKKK  KKKKK",
"KKKKKKK OXKKKKKK",
"KKKKKKKK KKKKKKK",
"KKK .XKKKKK OOKK",
"KKX@@OKKO&,01*XK",
"KK@<5% @episK>@K",
"K -36K*sjmNs<*OK",
"KX-&%&0fjki0<pyK",
"K33,OX$1508ekd0K",
"y0tyyu:%*wJJnVFj",
"&cs2060lJDJJJbv=",
"K>=@363cZKCGA923",
"K-J::S35JJJJJBJ&",
"K:DJJi6y3MKKHJzJ"
};
