/* XPM */
static char *_3[] = {
/* columns rows colors chars-per-pixel */
"16 16 62 1 ",
"  c #B64000",
". c #B34400",
"X c #B44500",
"o c #B74700",
"O c #B94901",
"+ c #BC4B04",
"@ c #BC5200",
"# c #BD5300",
"$ c #BD5800",
"% c #C05500",
"& c #C15B02",
"* c #C25C03",
"= c #C65F00",
"- c #C46300",
"; c #C66500",
": c #C76600",
"> c #C66B00",
", c #C96D03",
"< c #CB6F07",
"1 c #CA7300",
"2 c #CD7000",
"3 c #CB7400",
"4 c #CE7600",
"5 c #CF7700",
"6 c #CD7B01",
"7 c #D07801",
"8 c #D17903",
"9 c #D38500",
"0 c #D48C03",
"q c #D3800C",
"w c #D5810E",
"e c #D78E08",
"r c #D88F0A",
"t c #DF9A08",
"y c #DF9F0E",
"u c #DC9211",
"i c #D99511",
"p c #DC9817",
"a c #E0A010",
"s c #E4A91C",
"d c #E1AC1C",
"f c #E4AF21",
"g c #E5B626",
"h c #E6B727",
"j c #E8B325",
"k c #EBBC38",
"l c #EAC13B",
"z c #EEC548",
"x c #EBC848",
"c c #EDCA4B",
"v c #F1CF57",
"b c #F2D160",
"n c #F3D261",
"m c #F1D76B",
"M c #F7DF80",
"N c #F5DF86",
"B c #F8E491",
"V c #F8E598",
"C c #FAECB2",
"Z c #FBF4CB",
"A c #FEFFFC",
"S c None",
/* pixels */
"SSSSSSSSSSSSSSSS",
"SSSSSSSSSSSSSSSS",
"SSSSSSSS SSSSSSS",
"SSSSSSSSSSSSSSSS",
"SSSSSSSSSSSS SSS",
"SSSooSSS +&,*#SS",
"SSo*;OSO>89q1$.S",
"SS%;;$%6pfg9;% S",
"SS%%##3uaar8;8<S",
"S*;&..#;3834i02S",
"-14846S#%6nAflxw",
"Oy9,4<4pZnSSCgd#",
"S*&#;,2snAmBb8,&",
"S$M*=k,8AAAAAzA+",
"S&nAAu1w6nSSCAgA",
"S%jSSt%jVcevNAAo"
};
