/* XPM */
static char *_4[] = {
/* columns rows colors chars-per-pixel */
"16 16 62 1 ",
"  c #B64000",
". c #B34400",
"X c #B74700",
"o c #B84800",
"O c #B94901",
"+ c #B84F03",
"@ c #BC4B04",
"# c #BC5200",
"$ c #BD5800",
"% c #C05500",
"& c #C15B02",
"* c #C25C03",
"= c #C46300",
"- c #C66500",
"; c #C76600",
": c #C96700",
"> c #C66B00",
", c #C96D03",
"< c #CA6E05",
"1 c #CB6F07",
"2 c #CA7300",
"3 c #CD7000",
"4 c #CB7400",
"5 c #CE7600",
"6 c #CF7700",
"7 c #CD7B01",
"8 c #D17903",
"9 c #D17E07",
"0 c #D38500",
"q c #D3800C",
"w c #D5810E",
"e c #D78E08",
"r c #D88F0A",
"t c #DD9802",
"y c #DC9D08",
"u c #D99511",
"i c #DA9613",
"p c #DC9817",
"a c #E0A010",
"s c #E0A617",
"d c #E4A91C",
"f c #E4AF21",
"g c #E8B325",
"h c #E7B829",
"j c #E8B934",
"k c #EBBC38",
"l c #E9C03A",
"z c #EAC13B",
"x c #EFC649",
"c c #EDCA4B",
"v c #F1CF57",
"b c #F1D05F",
"n c #EFD569",
"m c #F3D261",
"M c #F3DB75",
"N c #FAE9A2",
"B c #FAEFBA",
"V c #FBF0BB",
"C c #FBF6D3",
"Z c #F9F8DA",
"A c #FEFFFC",
"S c None",
/* pixels */
"SSSSSSSSSSSSSSSS",
"SSSSSSSSSSSSSSSS",
"SSSSSSSSSSSSSSSS",
"SSSSSSSSSSSSSSSS",
"SSSSSSSSS o$# SS",
"SSS#% SS$-3<-+SS",
"SSo$*@o:qit6*oSS",
"SSoooo-9rrq1&>$S",
"So%#SS@*>1>>96*S",
"o*::--#o#2fbysa*",
"S04=>=:qkhCBbsu ",
"S%%@&=-pkZxvj7-X",
"S+d$$i:5VAAAAfm ",
"S#gAA0>57cSSMNsk",
"S@sZSr$pkgrknSZ ",
"AAdbAAzm71>#4cSk"
};
