/* XPM */
static char *_5[] = {
/* columns rows colors chars-per-pixel */
"16 16 67 1 ",
"  c #B64000",
". c #B34400",
"X c #B44500",
"o c #B74700",
"O c #B84800",
"+ c #B94901",
"@ c #B84F03",
"# c #BC4B04",
"$ c #BC5200",
"% c #BD5300",
"& c #BD5800",
"* c #C05500",
"= c #C15B02",
"- c #C25C03",
"; c #C65F00",
": c #C46300",
"> c #C66500",
", c #C76600",
"< c #C66B00",
"1 c #C96D03",
"2 c #CA6E05",
"3 c #CD7000",
"4 c #CB7400",
"5 c #CE7600",
"6 c #CF7700",
"7 c #CD7B01",
"8 c #D07801",
"9 c #D17E07",
"0 c #D38500",
"q c #D58600",
"w c #D3800C",
"e c #D5810E",
"r c #D78E08",
"t c #DB9C06",
"y c #DF9A08",
"u c #DC9D08",
"i c #DC9211",
"p c #D99511",
"a c #DC9817",
"s c #E0A010",
"d c #E2A214",
"f c #E0A617",
"g c #E4A91C",
"h c #E4AF21",
"j c #E5B626",
"k c #E8B325",
"l c #E8B934",
"z c #EBBC38",
"x c #EAC13B",
"c c #EEC548",
"v c #EFC649",
"b c #EBC848",
"n c #EDCA4B",
"m c #EDCC53",
"M c #EECD54",
"N c #EFD461",
"B c #EFD569",
"V c #F3D261",
"C c #F2DA74",
"Z c #F4DC76",
"A c #F6E28F",
"S c #F8E491",
"D c #F9EEB9",
"F c #FBF6D3",
"G c #FCFBF2",
"H c #FEFFFC",
"J c None",
/* pixels */
"JJJJJJJJJJJJJJJJ",
"JJJJJJJJJJJJJJJJ",
"JJJJJJJJJJJJJJJJ",
"JJJJJJJJJJ O JJJ",
"JJ..oJJJ+&:-*.JJ",
"JJJ#@. &19w>$.JJ",
"JJ . o&1794:%&oJ",
"JJJoJJo&:>:;1J$J",
"J$=&**o.+:igqreo",
"J1>&-&=2tuMMkpwJ",
"J+$o$&-0fNjlf4-J",
"J.0$$7;2mSHHCysJ",
"JoaHB6;26zGDbbpq",
"JopZFJ*wdsrkvHVJ",
"ADuMHHkh3>>$6vHa",
"<8rHHHHx:-.9HHHk"
};
