/* XPM */
static char *_7[] = {
/* columns rows colors chars-per-pixel */
"16 16 56 1 ",
"  c #B64000",
". c #B34400",
"X c #B44500",
"o c #B74700",
"O c #B84800",
"+ c #B94901",
"@ c #BC4B04",
"# c #BC5200",
"$ c #BD5300",
"% c #BD5800",
"& c #C05500",
"* c #C15B02",
"= c #C25C03",
"- c #C46300",
"; c #C66500",
": c #C76600",
"> c #C96700",
", c #C66B00",
"< c #C96D03",
"1 c #CB6F07",
"2 c #CA7300",
"3 c #CD7000",
"4 c #CB7400",
"5 c #CE7600",
"6 c #CF7700",
"7 c #CD7B01",
"8 c #D17903",
"9 c #D17E07",
"0 c #D38500",
"q c #D58600",
"w c #D3800C",
"e c #D5810E",
"r c #D78E08",
"t c #DE9905",
"y c #DC9D08",
"u c #DF9F0E",
"i c #DC9211",
"p c #D99511",
"a c #DC9817",
"s c #E0A010",
"d c #E0A617",
"f c #E4A91C",
"g c #E4AF21",
"h c #E5B732",
"j c #E9C03A",
"k c #EAC13B",
"l c #EDC33D",
"z c #EEC548",
"x c #EDCA4B",
"c c #EFD569",
"v c #F0D562",
"b c #F8E491",
"n c #FAECB2",
"m c #FCF2C3",
"M c #FEFFFC",
"N c None",
/* pixels */
"NNNNNNNNNNNNNNNN",
"NNNNNNNNNNNNNNNN",
"NNNNNNNNNN..NNNN",
"NNNNNNN #*=# NNN",
"NNNNNNN#=-*#oNNN",
"NNNNNNNo#&#@#ONN",
"NNo  NNN #>6;;&N",
"NOOoo.o#>2ip02=N",
"NN N oO;7tiie-ON",
"NN&  $#=pgbky6>N",
"NN,dr=#*,yzjsa1O",
"NN6dg<O-8eepdbaN",
",p9gMMi7-=%#3fM=",
"o,eMMMMa%O >MMM0",
".o=iNNvMnMhMlmN*",
"MucxMMMxnMMMMM0r"
};
