/* XPM */
static char *_9[] = {
/* columns rows colors chars-per-pixel */
"16 16 54 1 ",
"  c #B64000",
". c #B34400",
"X c #B74700",
"o c #B84800",
"O c #B94901",
"+ c #BC4B04",
"@ c #BC5200",
"# c #BD5800",
"$ c #C05500",
"% c #C15600",
"& c #C15B02",
"* c #C25C03",
"= c #C65F00",
"- c #C66500",
"; c #C66B00",
": c #CB6F07",
"> c #CD7000",
", c #CE7600",
"< c #CD7B01",
"1 c #D17903",
"2 c #D17E07",
"3 c #D38500",
"4 c #D58600",
"5 c #D3800C",
"6 c #D78E08",
"7 c #D88F0A",
"8 c #DF9F0E",
"9 c #D99511",
"0 c #DC9817",
"q c #E0A617",
"w c #E4A91C",
"e c #E4AF21",
"r c #E8B934",
"t c #EBBC38",
"y c #EDC33D",
"u c #EEC548",
"i c #EDCA4B",
"p c #EDCC53",
"a c #F0D562",
"s c #F1D76B",
"d c #F2DA74",
"f c #F4DD7E",
"g c #F7DF80",
"h c #F5DF86",
"j c #F8E598",
"k c #F8E7A0",
"l c #FBEAA3",
"z c #FBF0BB",
"x c #FBF6D3",
"c c #FFF6DB",
"v c #FFF8E3",
"b c #FDFAEA",
"n c #FEFFFC",
"m c None",
/* pixels */
"mmmmmmmmmmmmmmmm",
"mmmmmmmmm .mmmmm",
"mmmmmmmmXOXmmmmm",
"mmmmmmmm . mmmmm",
"mmmmmmmmmmmm+Xmm",
"mmmmmmmmO$O$-$ m",
"mmmmmmmO*>>>-@mm",
"mmmmm  +:386,&Xm",
"mmO;=X O&5092>@m",
"mm#1<$ +*;:<30;m",
"m&-6xh>*@@@@-4wm",
"m$>umva,O m$wjn&",
"mm$4sctkwu6xwpiO",
"7,7wnnnrdnnnlg2m",
"hzwjnnnnvmmm6;:m",
"nnnbfmmqnnne-OOm"
};
