/* XPM */
static char *_[] = {
/* columns rows colors chars-per-pixel */
"16 16 66 1 ",
"  c #B64000",
". c #B34400",
"X c #B44500",
"o c #B74700",
"O c #B84800",
"+ c #B94901",
"@ c #BC4B04",
"# c #BC5200",
"$ c #BD5800",
"% c #C05500",
"& c #C15B02",
"* c #C25C03",
"= c #C65F00",
"- c #C46300",
"; c #C66500",
": c #C76600",
"> c #C96700",
", c #C66B00",
"< c #C96D03",
"1 c #CA6E05",
"2 c #CB6F07",
"3 c #CB7400",
"4 c #CE7600",
"5 c #CF7700",
"6 c #CD7B01",
"7 c #CC7009",
"8 c #D07801",
"9 c #D17903",
"0 c #D17E07",
"q c #D38500",
"w c #D58600",
"e c #D88A05",
"r c #D3800C",
"t c #D5810E",
"y c #D78E08",
"u c #D88F0A",
"i c #DB9C06",
"p c #DC9D08",
"a c #DF9F0E",
"s c #DC9211",
"d c #D99511",
"f c #DA9613",
"g c #DC9817",
"h c #E0A010",
"j c #E1A112",
"k c #E2A214",
"l c #E0A617",
"z c #E4A91C",
"x c #E2AD1E",
"c c #E4AF21",
"v c #E7B829",
"b c #E8B934",
"n c #EBBC38",
"m c #EAC13B",
"M c #EDC447",
"N c #EDCA4B",
"B c #ECCB52",
"V c #F1D05F",
"C c #F0D562",
"Z c #F3DB75",
"A c #F4DD7E",
"S c #F8E598",
"D c #FAECB2",
"F c #FBF4CB",
"G c #FEFFFC",
"H c None",
/* pixels */
"HHHHHHHHHHHHHHHH",
"HHHHHHHHHHHHHHHH",
"HHHHHHHHHHHHHHHH",
"HHHHHHXXOX . HHH",
"HHHHH#;2;$#@.HHH",
"H.#OO%,68>**-.HH",
"H=;%@@=4we2,-#HH",
"H9p1**7rhlg4>* H",
"Hwsr>;2ysit,&#XH",
"H491&;ysd4=&$@ H",
"H9x0;kVg9pGzhS*H",
"#dw1,wMGzhbcxll&",
"H-;%4ZChs*&3;4wH",
"$GGtwHNB;-MSsgMF",
"FADSdcw&O@wr1;gO",
"mNecnGc#gG*;&v&H"
};
