/* XPM */
static char *_0[] = {
/* columns rows colors chars-per-pixel */
"16 16 56 1 ",
"  c #B64000",
". c #B34400",
"X c #B44500",
"o c #B74700",
"O c #B94901",
"+ c #B84F03",
"@ c #BC5200",
"# c #BD5300",
"$ c #BD5800",
"% c #C25C03",
"& c #C65F00",
"* c #C46300",
"= c #C76600",
"- c #C96700",
"; c #CB6F07",
": c #CA7300",
"> c #CB7400",
", c #CE7600",
"< c #CF7700",
"1 c #CD7B01",
"2 c #CC7009",
"3 c #D07801",
"4 c #D17E07",
"5 c #D58100",
"6 c #D58600",
"7 c #D3800C",
"8 c #D78E08",
"9 c #D88F0A",
"0 c #DD9802",
"q c #DC9817",
"w c #E0A010",
"e c #E1A112",
"r c #E0A617",
"t c #E4A91C",
"y c #E1AC1C",
"u c #E2AD1E",
"i c #E4AF21",
"p c #E7B829",
"a c #EBBC38",
"s c #E9C03A",
"d c #EDC33D",
"f c #EDC447",
"g c #EDCA4B",
"h c #F1CF57",
"j c #F3D261",
"k c #F0D66A",
"l c #F2D86C",
"z c #F2DA74",
"x c #F5DF86",
"c c #F6E28F",
"v c #F9EBB0",
"b c #FAEFBA",
"n c #FFF6DB",
"m c #FFF8E3",
"M c #FEFFFC",
"N c None",
/* pixels */
"NNNNNNNNNNNNNNNN",
"NNNNNNNNN NNNNNN",
"NNNNNNNNNNNNNNNN",
"NNNNNNNNN NNNNNN",
"NNNNNNNN  NNNNNN",
"NNNNNNN @*XN XNN",
"NNNNNNNX&:=*=NNN",
"NN $@ N.@:652=XN",
"NNO--ON.qs=;,7$N",
"NO$1di*@sMsO%16N",
"NONtbki=Xshh9azN",
"N3@4alta9bbbhpu ",
"**1qMMbufMMMha, ",
"wf0jbNNlbNNmzz*N",
"fMvcxlliMMnzyyuN",
"wgr*5MMMMkNy1z+@"
};
