/* XPM */
static char *_[] = {
/* columns rows colors chars-per-pixel */
"16 16 63 1 ",
"  c #B64000",
". c #B34400",
"X c #B44500",
"o c #B74700",
"O c #B84800",
"+ c #B94901",
"@ c #B84F03",
"# c #BC4B04",
"$ c #BC5200",
"% c #BD5300",
"& c #BD5800",
"* c #C05500",
"= c #C15B02",
"- c #C25C03",
"; c #C65F00",
": c #C46300",
"> c #C66500",
", c #C76600",
"< c #C96700",
"1 c #C66B00",
"2 c #C96D03",
"3 c #CA6E05",
"4 c #CB6F07",
"5 c #CD7000",
"6 c #CB7400",
"7 c #CE7600",
"8 c #CF7700",
"9 c #CD7B01",
"0 c #CC7009",
"q c #D07801",
"w c #D17E07",
"e c #D38500",
"r c #D58600",
"t c #D88A05",
"y c #D3800C",
"u c #D5810E",
"i c #D78E08",
"p c #D88F0A",
"a c #DB9C06",
"s c #DC9D08",
"d c #DF9F0E",
"f c #DC9211",
"g c #D99511",
"h c #DC9817",
"j c #DEA413",
"k c #E0A010",
"l c #E2A214",
"z c #E0A617",
"x c #E4A91C",
"c c #E1AC1C",
"v c #E4AF21",
"b c #E5B626",
"n c #E8B325",
"m c #E4B630",
"M c #E8B934",
"N c #EEC548",
"B c #EDCA4B",
"V c #EDCC53",
"C c #F0D66A",
"Z c #F3DB75",
"A c #F9E8A1",
"S c #FEFFFC",
"D c None",
/* pixels */
"DDDDDDDDDDDDDDDD",
"DDDDDDDDDDDDDDDD",
"DDDDDDDDDDDDDDDD",
"DDDDDX*-*#+DDDDD",
"DD.  +-2<=$$$DDD",
"D#&+XX*<77:-*XDD",
"D>y:$$:5tiu>-DDD",
"D6w0-&:9rr9>$XDD",
"D>3:%&qyu1=%$.DD",
"D<i0-tcr3tBprn$D",
"Dwq>>9vAhgzhafrX",
"D&-$<mMhr-=1:36D",
"XSS79Zbc--dMuejx",
"nBCNtsy&++q8<:e ",
"fnrdvSk#wV=-%g$D",
"jf<o32wl-<+D+&uS"
};
