/* XPM */
static char *_[] = {
/* columns rows colors chars-per-pixel */
"16 16 63 1 ",
"  c #B64000",
". c #B34400",
"X c #B44500",
"o c #B74700",
"O c #B84800",
"+ c #B94901",
"@ c #BC4B04",
"# c #BC5200",
"$ c #BD5300",
"% c #BD5800",
"& c #C05500",
"* c #C15B02",
"= c #C25C03",
"- c #C65F00",
"; c #C46300",
": c #C66500",
"> c #C96700",
", c #C66B00",
"< c #C96D03",
"1 c #CA6E05",
"2 c #CB6F07",
"3 c #CA7300",
"4 c #CD7000",
"5 c #CE7000",
"6 c #CB7400",
"7 c #CE7600",
"8 c #CF7700",
"9 c #CD7B01",
"0 c #CC7009",
"q c #D07801",
"w c #D17903",
"e c #D17E07",
"r c #D38500",
"t c #D58600",
"y c #D48C03",
"u c #D88A05",
"i c #D3800C",
"p c #D5810E",
"a c #D88F0A",
"s c #DF9F0E",
"d c #DC9211",
"f c #D99511",
"g c #DA9613",
"h c #DC9817",
"j c #DEA413",
"k c #E0A010",
"l c #E1A112",
"z c #E0A617",
"x c #E1AC1C",
"c c #E4AF21",
"v c #E6B727",
"b c #E8B325",
"n c #E8B934",
"m c #ECBD39",
"M c #E9C03A",
"N c #EBC848",
"B c #EECD54",
"V c #F2DA74",
"C c #F5DF86",
"Z c #F7E390",
"A c #FBEAA3",
"S c #FEFFFC",
"D c None",
/* pixels */
"DDDDDDDDDDDDDDDD",
"DDDDDDDDDDDDDDDD",
"DDDDDDX$O DDDDDD",
"DDDDDX$**$OXXDDD",
"DDO D @*::&$ODDD",
"D$,&OOD;8q1*$XDD",
"D;1;$$%288>%O DD",
"D%;%@#><3:$OODDD",
"D%8;$8a9:wlw5t.D",
"D>,*=2hmtrdDti0D",
"D$$O=gjuw*$:=::D",
"DNZ15vld=$rg56t8",
"rbmxey9&XO,1;=6D",
"3spazSaO,s&&$wOD",
"9i;O11wt==XD.#5B",
"StsACx$XhV0@=n9-"
};
