/* XPM */
static char *_[] = {
/* columns rows colors chars-per-pixel */
"16 16 50 1 ",
"  c #B64000",
". c #B34400",
"X c #B44500",
"o c #B74700",
"O c #B84800",
"+ c #B94901",
"@ c #B84F03",
"# c #BC4B04",
"$ c #BC5200",
"% c #BD5300",
"& c #BD5800",
"* c #C05500",
"= c #C15600",
"- c #C15B02",
"; c #C25C03",
": c #C65F00",
"> c #C46300",
", c #C66500",
"< c #C76600",
"1 c #C96700",
"2 c #C66B00",
"3 c #CB6F07",
"4 c #CA7300",
"5 c #CD7000",
"6 c #CB7400",
"7 c #CE7600",
"8 c #CF7700",
"9 c #CD7B01",
"0 c #D17E07",
"q c #D38500",
"w c #D58600",
"e c #D48C03",
"r c #D3800C",
"t c #D5810E",
"y c #D78E08",
"u c #D88F0A",
"i c #DD9802",
"p c #DE9905",
"a c #DC9D08",
"s c #DC9211",
"d c #D99511",
"f c #E0A617",
"g c #E4A91C",
"h c #E4AF21",
"j c #E5B626",
"k c #E8B934",
"l c #F3DB75",
"z c #F7DF80",
"x c #FEFFFC",
"c c None",
/* pixels */
"cccccccccccccccc",
"ccccccc cccccccc",
"ccccccoc@X ccccc",
"ccccccX$&%OO ccc",
"cX&Oc O=11>$occc",
"c$;=XO$:12;$Xccc",
"cO&$OO-><&O.cccc",
"cO<=c<72;1q1>2cc",
"cc;%$<qa770073;c",
"c.#o%0y93%=;%;%c",
"cph><put=$39<c3=",
">pfd695% .;>;%<c",
"&e9tdx0X;0$##<.c",
";4;O1256%=.c O<q",
"l9qkjd$Xtg:.$s3O",
"0xhzx6dxxp;d3;<c"
};
