/* XPM */
static char *_[] = {
/* columns rows colors chars-per-pixel */
"16 16 46 1 ",
"  c #B64000",
". c #B34400",
"X c #B44500",
"o c #B74700",
"O c #B84800",
"+ c #B94901",
"@ c #BC4B04",
"# c #BC5200",
"$ c #BD5300",
"% c #BD5800",
"& c #C05500",
"* c #C15B02",
"= c #C25C03",
"- c #C65F00",
"; c #C46300",
": c #C66500",
"> c #C76600",
", c #C96700",
"< c #C66B00",
"1 c #C96D03",
"2 c #CA6E05",
"3 c #CB6F07",
"4 c #CA7300",
"5 c #CD7000",
"6 c #CE7600",
"7 c #CF7700",
"8 c #CD7B01",
"9 c #D07801",
"0 c #D17903",
"q c #D17E07",
"w c #D58100",
"e c #D38500",
"r c #D58600",
"t c #D48C03",
"y c #D3800C",
"u c #D88F0A",
"i c #D99511",
"p c #DC9817",
"a c #E0A617",
"s c #EBC23C",
"d c #EDCA4B",
"f c #EECD54",
"g c #FFF8E3",
"h c #FFFBEB",
"j c #FEFFFC",
"k c None",
/* pixels */
"kkkkkkkllkkkkkkk",
"kkkkkkkX.kkkkkkk",
"kkkkkkOO@O kkkkk",
"kkO kk @%=$Okkkk",
"k.$OkkX&==$XOkkk",
"k OO  k%*#Okkkkk",
"k &OX&>=$*2$$&kk",
"kO$OO%4w,,32,;Ok",
"kk. @385>$$&$&Ok",
"k9t%=k85$X;,%$=k",
"Owuy,2>Ok &$$$&k",
"O056ed3.$,OOX%kk",
"X>&X;>>;@Okkk.$=",
"p36pi8OX2r$kO6kk",
"<jasj2rjhr%6>$&k",
"*kg6>0fjjjjq2pOk"
};
