/* XPM */
static char *_[] = {
/* columns rows colors chars-per-pixel */
"16 16 40 1 ",
"  c #B64000",
". c #B34400",
"X c #B44500",
"o c #B74700",
"O c #B84800",
"+ c #B94901",
"@ c #B84F03",
"# c #BC4B04",
"$ c #BC5200",
"% c #BD5300",
"& c #BD5800",
"* c #C05500",
"= c #C15B02",
"- c #C25C03",
"; c #C65F00",
": c #C46300",
"> c #C66500",
", c #C96700",
"< c #C66B00",
"1 c #C96D03",
"2 c #CA6E05",
"3 c #CB6F07",
"4 c #CE7000",
"5 c #CB7400",
"6 c #CE7600",
"7 c #CF7700",
"8 c #CD7B01",
"9 c #D17903",
"0 c #D27A05",
"q c #D38500",
"w c #D99511",
"e c #E0A010",
"r c #E0A617",
"t c #EBBC38",
"y c #EAC13B",
"u c #EDCC53",
"i c #EECD54",
"p c #F4DD7E",
"a c #FEFFFC",
"s c None",
/* pixels */
"ssssssssssssssss",
"sssssssss ssssss",
"sssssss.s@osssss",
"sso ssso%$osssss",
"ss. sss#$o sssss",
"ssO.sO&$O%-Oooss",
"sso..%:3-s:;=%ss",
"sssso;<>-OO@OOOs",
"s-3#%33:O.%-%%#s",
"s303-:=ossO%OoOs",
"s,,<5e:so*.  Oss",
"s&%o;;-*o.sssso ",
"<:>88<o -3os ;&s",
"&awrp<9au7%:*@Os",
"%sp5:5yaaaa2s8os",
"qitOsqaaaaaaaa,s"
};
