/* XPM */
static char *_[] = {
/* columns rows colors chars-per-pixel */
"16 16 38 1 ",
"  c #B64000",
". c #B34400",
"X c #B44500",
"o c #B74700",
"O c #B84800",
"+ c #B94901",
"@ c #BC4B04",
"# c #BC5200",
"$ c #BD5300",
"% c #BD5800",
"& c #C05500",
"* c #C15B02",
"= c #C25C03",
"- c #C65F00",
"; c #C46300",
": c #C66500",
"> c #C96700",
", c #C66B00",
"< c #C96D03",
"1 c #CD7000",
"2 c #CF7700",
"3 c #D58100",
"4 c #D38500",
"5 c #D3800C",
"6 c #D88F0A",
"7 c #DC9211",
"8 c #E1A112",
"9 c #E0A617",
"0 c #E4AF21",
"q c #E8B325",
"w c #E9C03A",
"e c #EAC13B",
"r c #EFD569",
"t c #F3DB75",
"y c #F9EAA9",
"u c #FBFDFA",
"i c #FEFFFC",
"p c None",
/* pixels */
"pppppppppppppppp",
"pppppppp..pppppp",
"ppppppp oo ppppp",
"ppppppp.o pppppp",
"pppp  +o.o+.pppp",
"pppppo&=##%#$.pp",
"ppppp$*%#. o. pp",
"p+*.o=;%.po@oo p",
"p*>-$%$ pp.o. pp",
"p*=*>3%ppoppp.pp",
"p+oo&%&+pppppppp",
"+&%>>= p$% pp$op",
"ot460-<y9>o%+o p",
"+pw1-,0iiir:%:pp",
">09+p5iiiiiiiu*p",
"pqi2 5qppppw87:7"
};
