/* XPM */
static char * mimic_16px8_xpm[] = {
"16 16 10 1",
" 	c None",
".	c #692E11",
"+	c #DEAF86",
"@	c #9B6230",
"#	c #E9BB41",
"$	c #EFB210",
"%	c #CD8A50",
"&	c #E6D9CE",
"*	c #5C280F",
"=	c #4F220D",
" .............. ",
".++++++++++++++.",
".+@@@@@@@@@@@@+.",
".+@#@#$$$$$@$@+.",
".+@$$$@$$@$$$@+.",
".%@@@@@@@@@@@@%.",
".%@@@&+++++@@@%.",
".%%%%+....+%%%%.",
".***=%....%=***.",
".%@@@%%%%%%@@@%.",
".%@@@@@++@@@@@%.",
".%@@@@@%%@@@@@%.",
".%%@@@@%%@@@@%%.",
".%@%@@@%%@@@%@%.",
".%%%%%%%%%%%%%%.",
"................"};
