/* XPM */
static char * mimic_open_16px4_xpm[] = {
"16 16 21 1",
" 	c #692E11",
".	c #DEAF86",
"+	c #9B6230",
"@	c #E9BB41",
"#	c #EFB210",
"$	c #CD8A50",
"%	c #E6D9CE",
"&	c #9F2121",
"*	c #EE2222",
"=	c #5C280F",
"-	c #150A04",
";	c #FF5300",
">	c #C60000",
",	c #B70000",
"'	c #FFFFFF",
")	c #A80000",
"!	c #FAFAFA",
"~	c #AEAEAE",
"{	c #F2F2F2",
"]	c #EAEAEA",
"^	c #E40000",
" .............. ",
" .+@+@#####+#+. ",
" $+++%.....+++$ ",
"&&&$$.    .$$&&&",
" &*& $    $ &*& ",
"=-;*-$$$$$$-*;-=",
"=--------------=",
" ------>,------ ",
" --'---,))---!- ",
" $~{--{>)-!+~{$ ",
" $+++~]>)~{+++$ ",
" $+++++$)+++++$ ",
" $$++++$,++++$$ ",
" $+$+++^$+++$+$ ",
" $$$$$$$$$$$$$$ ",
"                "};
