/* XPM */
static char * mimic_open_16px8_xpm[] = {
"16 16 25 1",
" 	c #692E11",
".	c #CD8A50",
"+	c #9B6230",
"@	c #E6D9CE",
"#	c #DEAF86",
"$	c #9F2121",
"%	c #ED1414",
"&	c #221006",
"*	c #5C280F",
"=	c #FF5300",
"-	c #150A04",
";	c #2F1608",
">	c #B70000",
",	c #632E10",
"'	c #D50000",
")	c #C60000",
"!	c #3C1C0A",
"~	c #F2F2F2",
"{	c #F30000",
"]	c #A80000",
"^	c #AEAEAE",
"/	c #EAEAEA",
"(	c #FAFAFA",
"_	c #8A0000",
":	c #990000",
" .+++@#####+++. ",
"$....#    #....$",
"$$$  .    .  $$$",
"$%%$&......&$%%$",
"*&=%$&----&$%=&*",
"*--&&---&--&;&-*",
" ------&>,----- ",
" -----&')>!---- ",
" --~--&{)]&--^- ",
" .^/--(&_]~+^^. ",
" .+++^/.:]/+++. ",
" .+++++.]]++++. ",
" ..++++.>])++.. ",
" .+.+++..:]>.+. ",
" ..........:>.. ",
"                "};
