/* XPM */
static char * mimic_open_16px7_xpm[] = {
"16 16 28 1",
" 	c #692E11",
".	c #CD8A50",
"+	c #9B6230",
"@	c #E6D9CE",
"#	c #DEAF86",
"$	c #9F2121",
"%	c #ED1414",
"&	c #3C1C0A",
"*	c #2F1608",
"=	c #5C280F",
"-	c #221006",
";	c #FF5300",
">	c #150A04",
",	c #B70000",
"'	c #D50000",
")	c #F2F2F2",
"!	c #56280E",
"~	c #F30000",
"{	c #A80000",
"]	c #FFFFFF",
"^	c #BEBEBE",
"/	c #EAEAEA",
"(	c #8A0000",
"_	c #AEAEAE",
":	c #F6F6F6",
"<	c #B6B6B6",
"[	c #990000",
"}	c #E40000",
" .+++@#####+++. ",
"$....#    #....$",
"$$$  .    .  $$$",
"$%%$&......*$%%$",
"=-;%$*>>>&*$%;-=",
"=>->*>>&>>>>>->=",
" >>>>>>&,&>>>>> ",
" >>>>>-',,>>>>> ",
" >>)>>!~,{>>>]> ",
" .^/>>)-(,)+_:. ",
" .+++</.[,/+++. ",
" .+++++.,{++++. ",
" ..++++.''+++.. ",
" .+.+++.({++.+. ",
" .......[}..... ",
"         ',     "};
