/* XPM */
static char * mimic_open_16px1_xpm[] = {
"16 16 11 1",
" 	c #692E11",
".	c #DEAF86",
"+	c #9B6230",
"@	c #E9BB41",
"#	c #EFB210",
"$	c #CD8A50",
"%	c #AC2424",
"&	c #E6D9CE",
"*	c #EE2222",
"=	c #9F2121",
"-	c #FF5300",
" .............. ",
" .++++++++++++. ",
" .+@+@#####+#+. ",
" .+###+##+###+. ",
" $++++++++++++$ ",
" %+++&.....+++% ",
" %*$$.    .$$*% ",
" =-= $    $ =-= ",
"     $$$$$$     ",
" $+++++..+++++$ ",
" $+++++$$+++++$ ",
" $+++++$$+++++$ ",
" $$++++$$++++$$ ",
" $+$+++$$+++$+$ ",
" $$$$$$$$$$$$$$ ",
"                "};
