/* XPM */
static char * mimic_16px4_xpm[] = {
"16 16 13 1",
" 	c None",
".	c #692E11",
"+	c #DEAF86",
"@	c #9B6230",
"#	c #E9BB41",
"$	c #EFB210",
"%	c #CD8A50",
"&	c #E6D9CE",
"*	c #4F220D",
"=	c #581D27",
"-	c #B70B2A",
";	c #7F3315",
">	c #9F221A",
" .............. ",
".++++++++++++++.",
".+@@@@@@@@@@@@+.",
".+@#@#$$$$$@$@+.",
".+@$$$@$$@$$$@+.",
".%@@@@@@@@@@@@%.",
".%@@@&+++++@@@%.",
".%%%%+....+%%%%.",
".*=-=%....%=-=*.",
".%;>;%%%%%%;>;%.",
".%@@@@@++@@@@@%.",
".%@@@@@%%@@@@@%.",
".%%@@@@%%@@@@%%.",
".%@%@@@%%@@@%@%.",
".%%%%%%%%%%%%%%.",
"................"};
