/* XPM */
static char * mimic_open_16px6_xpm[] = {
"16 16 27 1",
" 	c #692E11",
".	c #CD8A50",
"+	c #9B6230",
"@	c #E6D9CE",
"#	c #DEAF86",
"$	c #9F2121",
"%	c #EE2222",
"&	c #221006",
"*	c #3C1C0A",
"=	c #5C280F",
"-	c #FF5D0F",
";	c #ED1414",
">	c #150A04",
",	c #632E10",
"'	c #EF3030",
")	c #2F1608",
"!	c #49220C",
"~	c #B70000",
"{	c #D50000",
"]	c #EAEAEA",
"^	c #8A4016",
"/	c #F30000",
"(	c #A80000",
"_	c #703412",
":	c #AEAEAE",
"<	c #8A0000",
"[	c #990000",
" .+++@#####+++. ",
" ....#    #.... ",
"$$$  .    .  $$$",
"$%%$&......*$%%$",
"=&-;$&>>>>,$'-*=",
"=>>>&>>>&>>)!&>=",
" >>>>>>,~)>>>>> ",
" >>>>>!{~~!>>>> ",
" >>]>>^/~(_>>:> ",
" .:]>>]&<(]+::. ",
" .+++:].[(]+++. ",
" .+++++.~(++++. ",
" ..++++~([+++.. ",
" .+.++([[+++.+. ",
" ....([........ ",
"                "};
