/* XPM */
static char * mimic_16px7_xpm[] = {
"16 16 13 1",
" 	c None",
".	c #692E11",
"+	c #DEAF86",
"@	c #9B6230",
"#	c #E9BB41",
"$	c #EFB210",
"%	c #CD8A50",
"&	c #E6D9CE",
"*	c #4F220D",
"=	c #281107",
"-	c #0E0603",
";	c #351709",
">	c #351609",
" .............. ",
".++++++++++++++.",
".+@@@@@@@@@@@@+.",
".+@#@#$$$$$@$@+.",
".+@$$$@$$@$$$@+.",
".%@@@@@@@@@@@@%.",
".%@@@&+++++@@@%.",
".%%%%+....+%%%%.",
".*=-=%....%;=>*.",
".%@@@%%%%%%@@@%.",
".%@@@@@++@@@@@%.",
".%@@@@@%%@@@@@%.",
".%%@@@@%%@@@@%%.",
".%@%@@@%%@@@%@%.",
".%%%%%%%%%%%%%%.",
"................"};
