/* XPM */
static char * mimic_open_16px5_xpm[] = {
"16 16 27 1",
" 	c #692E11",
".	c #CD8A50",
"+	c #9B6230",
"@	c #E6D9CE",
"#	c #DEAF86",
"$	c #9F2121",
"%	c #EE2222",
"&	c #2F1608",
"*	c #49220C",
"=	c #ED1414",
"-	c #5C280F",
";	c #FF712D",
">	c #221006",
",	c #150A04",
"'	c #3C1C0A",
")	c #56280E",
"!	c #B70000",
"~	c #D50000",
"{	c #EAEAEA",
"]	c #F30000",
"^	c #A80000",
"/	c #FFFFFF",
"(	c #AEAEAE",
"_	c #F2F2F2",
":	c #8A0000",
"<	c #C60000",
"[	c #990000",
" .+++@#####+++. ",
" ....#    #.... ",
"$$$  .    .  $$$",
"$%%$&......*$=%$",
"-&;=$>,,,>'$=;>-",
"-,,,,,,,),,,,,,-",
" ,,,,,,>!',,,,, ",
" ,,,,,>~!!>,,,, ",
" ,,{,,,]!^,,,/, ",
" .({~,_,:^_+(/. ",
" .++!<{.[^{+++. ",
" .+++!~<^^++++. ",
" ..+++!!^++++.. ",
" .+.+++..+++.+. ",
" .............. ",
"                "};
