/* XPM */
static char * tele_pad_y_16px2_xpm[] = {
"16 16 7 1",
" 	c None",
".	c #573E10",
"+	c #413010",
"@	c #392809",
"#	c #7E4FE9",
"$	c #CBBA9C",
"%	c #5C23E0",
"                ",
"          ...   ",
"         .+++.  ",
"        .+  ++  ",
"        ++ @ ++ ",
"         +@@ +@ ",
"             ++ ",
"      #  #   +@ ",
"       #  # .+@ ",
"      #    .++@ ",
"    $$$$$$$$$+@ ",
"  .$$%$%$%$%$$@ ",
" .+$%$%$%$%$%$.@",
" +@.$$$$$$$$$.+@",
".@@.+..++@..+@+@",
"@@++@@++@@++@@  "};
