/* XPM */
static char * key_16px2_xpm[] = {
"16 16 4 1",
" 	c None",
".	c #E9B33C",
"+	c #DCB11D",
"@	c #DC971D",
"                ",
"      .++.      ",
"     ++++++     ",
"    .++@@+++    ",
"    ++@++@++    ",
"   .+@++++@+@   ",
"   ++@++++.++   ",
"   ++@++++.++   ",
"   ++@++++.++   ",
"   ++@++++.++   ",
"   @+@++++.+@   ",
"    ++@++.++    ",
"    @++..+++    ",
"     @+++++     ",
"      @@+@      ",
"                "};
