/* XPM */
static char *mc_01[] = {
/* columns rows colors chars-per-pixel */
"16 16 98 2 ",
"   c #776435",
".  c #7E6332",
"X  c #786334",
"o  c #796638",
"O  c #7E6539",
"+  c #7F663A",
"@  c #816635",
"#  c #896B35",
"$  c #826739",
"%  c #836838",
"&  c #826B39",
"*  c #836A3A",
"=  c #876A38",
"-  c #866B3B",
";  c #846F3B",
":  c #846D3D",
">  c #896C3A",
",  c #896F3E",
"<  c #8D703A",
"1  c #8E713B",
"2  c #88713D",
"3  c #8E733D",
"4  c #89763E",
"5  c #8F743C",
"6  c #91743A",
"7  c #92753B",
"8  c #93763C",
"9  c #91763E",
"0  c #94773D",
"q  c #97793C",
"w  c #987A3D",
"e  c #997B3E",
"r  c #9E7F3F",
"t  c #877543",
"y  c #8B7140",
"u  c #8D7543",
"i  c #8D7745",
"p  c #8E7644",
"a  c #8F7943",
"s  c #8F7A45",
"d  c #917640",
"f  c #927941",
"g  c #917B43",
"h  c #937A43",
"j  c #927B46",
"k  c #937D47",
"l  c #937F47",
"z  c #957C45",
"x  c #977E45",
"c  c #9F7E43",
"v  c #997D45",
"b  c #967E48",
"n  c #9A8141",
"m  c #998247",
"M  c #9D8047",
"N  c #968048",
"B  c #978149",
"V  c #9A8348",
"C  c #9A814A",
"Z  c #9A834A",
"A  c #9D8349",
"S  c #9C834A",
"D  c #9C854A",
"F  c #9D864B",
"G  c #9E864A",
"H  c #9E834E",
"J  c #9E854C",
"K  c #9E874C",
"L  c #A58545",
"P  c #A98847",
"I  c #A2874C",
"U  c #A2894C",
"Y  c #A4894C",
"T  c #A48B4E",
"R  c #A78E4F",
"E  c #A98D49",
"W  c #AB8D4B",
"Q  c #A78C51",
"!  c #A38A54",
"~  c #A78D56",
"^  c #AA8F52",
"/  c #A69055",
"(  c #AC9050",
")  c #A89157",
"_  c #AA9457",
"`  c #A99258",
"'  c #AC9659",
"]  c #AC945B",
"[  c #AE965B",
"{  c #AE975D",
"}  c #AE985B",
"|  c #AF985E",
" . c #B0995B",
".. c #B19B5E",
"X. c #B69F5F",
"o. c #B79E62",
"O. c #B7A062",
"+. c #BAA363",
/* pixels */
"E [ _ 3 @ # < 2 J > N B N 5 C 2 ",
"7 9 , 9 I v C g j ( X.X.+.N a j ",
"E S @ % m q B B C O.I O.k k k R ",
". a X.R 7 9 s # [ O C - n u ^ g ",
"> o.Y m J 7 2 7 Q X t 9 Y ; x / ",
"I  .G M Y p G G j G > u - g C D ",
"I / U B C ! o 5 2 k L { { Y g C ",
"h 5 G = < ~ Y O e C g x % [ < 9 ",
"L F ( 0 k [ R 3 9 q 9 ; N ] > % ",
"2 y W # x S [ j u _ C Y : ! Q J ",
"9 j % G k Y B ) ( g } @ % @ : % ",
"O ^ u 9 b % % x C 8 ' G g s O J ",
"Q 7 u Y 9 z C @ B } x a G ) Q b ",
"u P 4 j : 2 = g K C q v ` - c g ",
"{ x c X ..I k 5 : # z k Q c # % ",
"x p ~ ..3 ) - q Q 0 a D i = O : "
};
