/* XPM */
static char *mc_19[] = {
/* columns rows colors chars-per-pixel */
"16 16 8 1 ",
"  c #0C3730",
". c #209581",
"X c #2CCDB1",
"o c #4AEDD1",
"O c #8CF4E2",
"+ c #A2F6E7",
"@ c #D1FAF3",
"# c None",
/* pixels */
"################",
"################",
"#######  #######",
"###### +@ ######",
"###### +o ######",
"###### ++ ######",
"###### @@ ######",
"###### @O ######",
"###### @. ######",
"###### O. ######",
"###### .. ######",
"###### XX ######",
"###### XX ######",
"###### XX ######",
"#######  #######",
"################"
};
