/* XPM */
static char *mc_18[] = {
/* columns rows colors chars-per-pixel */
"16 16 2 1 ",
"  c #0C3730",
". c None",
/* pixels */
"................",
"................",
".......  .......",
".......  .......",
".......  .......",
".......  .......",
".......  .......",
".......  .......",
".......  .......",
".......  .......",
".......  .......",
".......  .......",
".......  .......",
".......  .......",
".......  .......",
"................"
};
