/* XPM */
static char *mc_03[] = {
/* columns rows colors chars-per-pixel */
"16 16 53 1 ",
"  c #127401",
". c #3D6334",
"X c #416838",
"o c #436A38",
"O c #456A3A",
"+ c #466C3B",
"@ c #466F3C",
"# c #47703C",
"$ c #47713C",
"% c #48723C",
"& c #48733D",
"* c #4B763D",
"= c #4C773E",
"- c #4C7840",
"; c #4C7940",
": c #4E7B43",
"> c #4E7C43",
", c #4F7D44",
"< c #507E44",
"1 c #507F45",
"2 c #098500",
"3 c #388A01",
"4 c #518046",
"5 c #548346",
"6 c #548448",
"7 c #548548",
"8 c #568749",
"9 c #58884A",
"0 c #59894B",
"q c #59884C",
"w c #5B8C4C",
"e c #5C8F4E",
"r c #5D904E",
"t c #5E9250",
"y c #5E9350",
"u c #5F9450",
"i c #609550",
"p c #609652",
"a c #629754",
"s c #629854",
"d c #639955",
"f c #649B56",
"g c #659C57",
"h c #69A25A",
"j c #6AA45B",
"k c #6AA55B",
"l c #6CA85D",
"z c #70AD60",
"x c #73B062",
"c c #1090D4",
"v c #21ACF9",
"b c #21BDFA",
"n c #28CCFA",
/* pixels */
"8x8=;4$,w9,;,p.4",
"81rqq*q*%su7z,;,",
"y,$;;;414eygco*k",
"o;>95q%8**4 ncy$",
"y;bvfvbgz.3cv$,1",
"qqcc=vvq;3v*O;,8",
"$wi33 ,%3cnv9uq4",
"1cv 1% *2gv=4w*p",
"ubvfg%z bv$8;8u$",
"9=h118z2cc8s,je%",
"qwqi=j13zou*4;i6",
"=g=yq*62 74+k*+:",
"lq=;q5-%26,$eiOq",
"=iO8%q%z38pqe;sg",
"yyzOhf68289;ie1O",
";q;;y86  z+f-1;e"
};
