/* XPM */
static char *mc_05[] = {
/* columns rows colors chars-per-pixel */
"16 16 53 1 ",
"  c #3A7515",
". c #3D6334",
"X c #436938",
"o c #436A38",
"O c #466C3B",
"+ c #466F3C",
"@ c #47703C",
"# c #47713C",
"$ c #48723C",
"% c #48733D",
"& c #4B763D",
"* c #4C773E",
"= c #4C7840",
"- c #4C7940",
"; c #4C7941",
": c #4D7A41",
"> c #4E7B43",
", c #4E7C43",
"< c #4F7D44",
"1 c #507E44",
"2 c #507F45",
"3 c #458220",
"4 c #51912B",
"5 c #518046",
"6 c #528246",
"7 c #548346",
"8 c #548448",
"9 c #568749",
"0 c #58884A",
"q c #58884B",
"w c #59884C",
"e c #5B8C4C",
"r c #5B8E4D",
"t c #5D904E",
"y c #5E9250",
"u c #5E9350",
"i c #5F9450",
"p c #609550",
"a c #629754",
"s c #629854",
"d c #649A56",
"f c #649B56",
"g c #659C57",
"h c #669D57",
"j c #69A25A",
"k c #6AA45B",
"l c #6AA55B",
"z c #6CA85D",
"x c #71AE5F",
"c c #73B062",
"v c #F0F09A",
"b c #D6DCE4",
"n c #E2E8F0",
/* pixels */
"9c9*&6#<ew6--u.5",
"92tw0&w&#gi6c5-<",
"u<#-;,626tid-o%l",
"o-,06w#9+&6922u%",
"u-g*gd-glo%pg==2",
"wwoa&90w-w-&o-29",
"#ep29&>b--kd7uw2",
"2-e22vnvbg-*7u#a",
"twkddb43knv8=8a#",
"w%zvn9bnn4ba2kw%",
"et9n4l bv3p&2=s6",
"*g-u 43>48nvj%+2",
"z9%2wnv3474bep+w",
"*sX8+nb444dwu-ad",
"uuxOjd94399=ae2o",
"=w--p9742x%a=8-e"
};
