/* XPM */
static char *mc_07[] = {
/* columns rows colors chars-per-pixel */
"16 16 61 1 ",
"  c #2D7403",
". c #307D06",
"X c #3D6334",
"o c #416838",
"O c #436A38",
"+ c #446A38",
"@ c #466C3B",
"# c #466F3C",
"$ c #47703C",
"% c #47713C",
"& c #48723C",
"* c #48733D",
"= c #4B763D",
"- c #4C773E",
"; c #4C7940",
": c #4C7941",
"> c #4D7A41",
", c #4E7C43",
"< c #4F7D44",
"1 c #507E44",
"2 c #507F45",
"3 c #CC5C06",
"4 c #CF570A",
"5 c #D1670A",
"6 c #DF6F1A",
"7 c #DC7115",
"8 c #DF781A",
"9 c #E17008",
"0 c #3D8517",
"q c #448A1E",
"w c #4B981E",
"e c #4C9028",
"r c #4F9F28",
"t c #51A42A",
"y c #518046",
"u c #528246",
"i c #548346",
"p c #548448",
"a c #568749",
"s c #58884A",
"d c #59894B",
"f c #59884C",
"g c #5B8C4C",
"h c #5B8E4D",
"j c #5D904E",
"k c #5D914F",
"l c #5E9250",
"z c #5E9350",
"x c #5F9450",
"c c #609550",
"v c #629854",
"b c #649A56",
"n c #649B56",
"m c #659C57",
"M c #69A25A",
"N c #6AA45B",
"B c #6AA55B",
"V c #6CA85D",
"C c #71AE5F",
"Z c #70AD60",
"A c #73B062",
/* pixels */
"aAa-;2&<gf<;;zXu",
"a2jff=f=%mxpAu:<",
"z<%;;;22yjxn:O%B",
"O;,sif9a8=ys2uz%",
"z;m=mb575o-zm%;u",
"ff+v=a364a:=O:2a",
"%gc2a=,4-:Bmicfu",
"2;g2t#z sq;-2k%v",
"cfBbqtZeNeq2;iv#",
"s-B2.tC.:t.buNf-",
"fjsc.wq..e.-2,xu",
"-m-j.0.qtq.+N%%2",
"Vs-;se0qe.;&gz@f",
"-v+p&t0t.ymfz;vm",
"xjC@Bt0q.sa;ng2+",
":s:,zfy0yV#n=y;g"
};
