/* XPM */
static char *mc_04[] = {
/* columns rows colors chars-per-pixel */
"16 16 62 1 ",
"  c #3D6334",
". c #436A38",
"X c #456A3A",
"o c #466C3B",
"O c #466F3C",
"+ c #47703C",
"@ c #47713C",
"# c #48723C",
"$ c #48733D",
"% c #4B763D",
"& c #4C773E",
"* c #4C7840",
"= c #4C7940",
"- c #4C7941",
"; c #4E7B43",
": c #4E7C43",
"> c #4F7D44",
", c #507E44",
"< c #507F45",
"1 c #5BA539",
"2 c #62AA3F",
"3 c #68AE39",
"4 c #518046",
"5 c #548346",
"6 c #548448",
"7 c #548548",
"8 c #578649",
"9 c #568749",
"0 c #58884A",
"q c #59884C",
"w c #5B8C4C",
"e c #5C8F4E",
"r c #5D904E",
"t c #5E9250",
"y c #5E9350",
"u c #5F9450",
"i c #609550",
"p c #629754",
"a c #629854",
"s c #639955",
"d c #649B56",
"f c #659C57",
"g c #669D57",
"h c #6BB248",
"j c #69A25A",
"k c #6AA45B",
"l c #6AA55B",
"z c #6CA85D",
"x c #71AE5F",
"c c #7DBE56",
"v c #70AD60",
"b c #73B062",
"n c #87C65F",
"m c #B258F9",
"M c #B662F9",
"N c #BA6CF9",
"B c #BD73F9",
"V c #C483F9",
"C c #C88CF9",
"Z c #D4A7F9",
"A c #DCB8F9",
"S c #DFC0F9",
/* pixels */
"9b9&&4$4w04&4u 4",
"9<rq9%0%$ar7x4->",
"y>@=%:BMBrrg-.$l",
".=:04CMNAM4044r$",
"y=f&BABAMmVrd$-4",
"qq.pmmZAMVm%.-40",
"@wi<9SBmABld7u04",
"<=w<<OmhBA=%7r$u",
"i8lsp&znza$9*9i+",
"q&l4<5vh=76p<jw$",
"wr8i&j<hv.i&<=i9",
"&g=u8&6h99<oj$+;",
"z9&;q6*c;5=$ei.8",
"&i.6+q$ny6fqe<pg",
"yyv.gf63$98=iw<X",
"*9*<y991<v+p*6*e"
};
