/* XPM */
static char *mc_02[] = {
/* columns rows colors chars-per-pixel */
"16 16 57 1 ",
"  c #330000",
". c #440000",
"X c #5F0000",
"o c #046000",
"O c #046B00",
"+ c #057000",
"@ c #3D6334",
"# c #436A38",
"$ c #456A3A",
"% c #466C3B",
"& c #47703C",
"* c #47713C",
"= c #48723C",
"- c #48733D",
"; c #4B763D",
": c #4C773E",
"> c #4C7840",
", c #4C7940",
"< c #4C7941",
"1 c #4D7A41",
"2 c #4E7B43",
"3 c #4E7C43",
"4 c #4F7D44",
"5 c #507E44",
"6 c #507F45",
"7 c #8D0400",
"8 c #8F0400",
"9 c #B80D01",
"0 c #CF1300",
"q c #F41B03",
"w c #098500",
"e c #518046",
"r c #528246",
"t c #548346",
"y c #548448",
"u c #578649",
"i c #568749",
"p c #58884A",
"a c #59884C",
"s c #5B8C4C",
"d c #5C8F4E",
"f c #5D904E",
"g c #5E9250",
"h c #5E9350",
"j c #5F9450",
"k c #609550",
"l c #629754",
"z c #629854",
"x c #649A56",
"c c #649B56",
"v c #659C57",
"b c #669D57",
"n c #69A25A",
"m c #6AA55B",
"M c #6CA85D",
"N c #71AE5F",
"B c #73B062",
/* pixels */
"iBi::e*4fpe,3f@e",
"i6fap;a;*vkeBe34",
"h4*,,4eeefhx,#-m",
"#,3pea*y*;epeef*",
"h,v:vx<cM#;jv-<e",
"aa#l;ips99<;#<ep",
"*sk6i;9X890cifpe",
"6,s6600 .88;tf*z",
"jpnccqq977*i<pj*",
"a;me2i0Ooyyc4nf*",
"sspj;myiw#j;6,ji",
":v<hi;p,wye%n-*,",
"Mi*4ai;#wu,-dh#a",
":v#y*OwBwiwwh4lv",
"hhN#nc+iOOi>la6#",
",p,4hii+oO-l:u,s"
};
