/* XPM */
static char *mc_25[] = {
/* columns rows colors chars-per-pixel */
"16 16 5 1 ",
"  c #21190B",
". c #413421",
"X c #695433",
"o c #9F844D",
"O c None",
/* pixels */
"OOOOOOOOOOOOOOOO",
"OOOOOOOOOOOOOOOO",
"OOOOOOOOOOOoXOOO",
"OOOOOOOOOOOoXOOO",
"OOOOOOOOOOOoXOOO",
"OOOOOOOOOOOoXOOO",
"OOOOOOOOOOOo OOO",
"OOOOOOOOOOOoXOOO",
"OOOOOOOOOOOoXOOO",
"OOOOOOOOOOOoXOOO",
"OOOOOOOOOOOo OOO",
"OOOOOOOOOOOoXOOO",
"OOOOOOOOOOOoXOOO",
"OOOOOOOOOOOoXOOO",
"OOOOOOOOOOOXXOOO",
"OOOOOOOOOOO..OOO"
};
