/* XPM */
static char *netherack[] = {
/* columns rows colors chars-per-pixel */
"16 16 100 2 ",
"   c black",
".  c #0C0100",
"X  c #120000",
"o  c #180000",
"O  c #1B0302",
"+  c #1E0000",
"@  c #1F0606",
"#  c #200504",
"$  c #200606",
"%  c #240506",
"&  c #2B0000",
"*  c #280809",
"=  c #2B0F0D",
"-  c #310000",
";  c #370000",
":  c #3B0000",
">  c #3F0000",
",  c #331313",
"<  c #3A1414",
"1  c #3E1515",
"2  c #410000",
"3  c #4B0000",
"4  c #570000",
"5  c #5A0000",
"6  c #5D0000",
"7  c #5A140A",
"8  c #451B1B",
"9  c #471B1B",
"0  c #401E1D",
"q  c #4A1E1F",
"w  c #600000",
"e  c #650000",
"r  c #700100",
"t  c #730101",
"y  c #790202",
"u  c #7C0202",
"i  c #6A2819",
"p  c #4C2020",
"a  c #4E2020",
"s  c #502626",
"d  c #582627",
"f  c #582B2B",
"g  c #5E2A2B",
"h  c #5A2E2E",
"j  c #5C3030",
"k  c #602B2B",
"l  c #622E2E",
"z  c #652F2F",
"x  c #613231",
"c  c #643434",
"v  c #693231",
"b  c #6D3434",
"n  c #6F3434",
"m  c #683839",
"M  c #713737",
"N  c #723838",
"B  c #763A3A",
"V  c #753F3E",
"C  c #7C3D3D",
"Z  c #810303",
"A  c #850303",
"S  c #870303",
"D  c #8F0405",
"F  c #980606",
"G  c #8B4C3A",
"H  c #8E4E3B",
"J  c #93543E",
"K  c #813F40",
"L  c #864444",
"P  c #814848",
"I  c #844A4A",
"U  c #864B4B",
"Y  c #8B4E4E",
"T  c #984F4F",
"R  c #8D504F",
"E  c #9C5E47",
"W  c #905252",
"Q  c #935555",
"!  c #9D5150",
"~  c #9C5A5A",
"^  c #9E5B5B",
"/  c #A45656",
"(  c #A75959",
")  c #AA5959",
"_  c #A6684F",
"`  c #A86A51",
"'  c #AD7056",
"]  c #A76060",
"[  c #AB6363",
"{  c #AD6464",
"}  c #B06666",
"|  c #B66A6A",
" . c #BA6C6C",
".. c #C07171",
"X. c #C87676",
"o. c #D17B7B",
"O. c #BD8063",
"+. c #DFA37F",
"@. c #D78080",
"#. c #E3A884",
/* pixels */
"../ / T O.N a a q Z  .( N q )  .",
"../ > U X q ..Z q 4 W 4 e i g [ ",
"f M U @ q Z ..5 o . C 4 $ j ; R ",
"V 0 . j ) m ^ ' = q @ , q | A h ",
"+...G j ..R R o h ! Y ] 1 ` u h ",
"3 R b j v w U = | o.P W J h . % ",
"4 U M j d X = a j e { U l U 4 - ",
"M U $ s ! ..q 1 j & = W 4 = : D ",
"b . j A Z ` E / | b a 0 *   @.+.",
"C q ..A 6 , / 2 #.L O.j a o.4 5 ",
"q y _ U N . / M U M B X j q r B ",
"j ; [ U g X U M ^ b $ &  .q ; = ",
" ./ @ = $ X c 4 1 . ..t U M G j ",
"X.U g X.y ) j X m F | 5 ~ 4 C = ",
"z $ + { 5 c 4 ; p ; ` e Q L $ = ",
"/ / P < 7 . @ ; ( ` 9 H , < ,  ."
};
