/* XPM */
static char *mc_30[] = {
/* columns rows colors chars-per-pixel */
"16 16 86 1 ",
"  c black",
". c #000001",
"X c #000101",
"o c #000002",
"O c #000102",
"+ c #000003",
"@ c #000103",
"# c #010006",
"$ c #000106",
"% c #010206",
"& c #020207",
"* c #040404",
"= c #040407",
"- c #020209",
"; c #030309",
": c #040409",
"> c #03030C",
", c #03030F",
"< c #04030D",
"1 c #04030F",
"2 c #04040C",
"3 c #04040D",
"4 c #04040F",
"5 c #030313",
"6 c #040313",
"7 c #040410",
"8 c #060410",
"9 c #040314",
"0 c #0F071F",
"q c #100920",
"w c #140D24",
"e c #181026",
"r c #1A1229",
"t c #291A45",
"y c #2F224C",
"u c #342750",
"i c #372952",
"p c #3B2D57",
"a c #41345D",
"s c #100087",
"d c #1B0080",
"f c #1F0083",
"g c #180086",
"h c #180089",
"j c #1E0092",
"k c #200086",
"l c #22008F",
"z c #250092",
"x c #220094",
"c c #240095",
"v c #260094",
"b c #2D0095",
"n c #22009A",
"m c #270098",
"M c #2D009C",
"N c #32009A",
"B c #3300A3",
"V c #3400A0",
"C c #3100A5",
"Z c #3B00A0",
"A c #3B00A5",
"S c #3A00AA",
"D c #3D00AB",
"F c #3E00AA",
"G c #4000AA",
"H c #4300AD",
"J c #4300AE",
"K c #4500AD",
"L c #4A00AB",
"P c #4A00AD",
"I c #4D00AC",
"U c #5000AA",
"Y c #5500AE",
"T c #5900AE",
"R c #5600B0",
"E c #5500B5",
"W c #6204BA",
"Q c #6604B9",
"! c #690BB8",
"~ c #6E0BBA",
"^ c #720AC0",
"/ c #7B18C5",
"( c #801AC4",
") c #8025C4",
"_ c #8927C4",
"` c None",
/* pixels */
"````````````````",
"`2OOO*6<Oy<<6Oi`",
"`Ouii--Oiw6-Oiw`",
"`Owe-**aww:<O<<`",
"`Ow<F!WCBE(Iw,<`",
"`<:%(~zNnhK!<<-`",
"`*7</SlmMhgPOOO`",
"`<O%ANZscNfktiw`",
"`OiwPRSERNkcqw:`",
"`<<6/LT^HSNjw-<`",
"`<7,Q)R_RGgf<%<`",
"`OO<b~YAUzdFOpw`",
"`iuefcKcxkVW<=-`",
"`<ww9Ow<Orww<6<`",
"`2<w2<%,O0www<,`",
"`-<5<2<<<7:<<:,`"
};
