/* XPM */
static char *mc_26[] = {
/* columns rows colors chars-per-pixel */
"16 16 40 1 ",
"  c black",
". c #000001",
"X c #000101",
"o c #000002",
"O c #000102",
"+ c #000003",
"@ c #000103",
"# c #010006",
"$ c #000106",
"% c #010206",
"& c #020207",
"* c #040404",
"= c #040407",
"- c #020209",
"; c #030309",
": c #040409",
"> c #03030C",
", c #03030F",
"< c #04030D",
"1 c #04030F",
"2 c #04040C",
"3 c #04040D",
"4 c #04040F",
"5 c #030313",
"6 c #040313",
"7 c #040410",
"8 c #060410",
"9 c #040314",
"0 c #0F071F",
"q c #100920",
"w c #140D24",
"e c #181026",
"r c #1A1229",
"t c #291A45",
"y c #2F224C",
"u c #342750",
"i c #372952",
"p c #3B2D57",
"a c #41345D",
"s c None",
/* pixels */
"ssssssssssssssss",
"s2OOO*9<Oy<<8Ois",
"sOuii--Oiw8-Oiws",
"sOwe-**aww-<O><s",
"sOw<ssssssssw7>s",
"s<:%ssssssss<<-s",
"s*7<ssssssssOO%s",
"s<O%sssssssstiws",
"sOiwssssssssqw-s",
"s<<9ssssssssw-2s",
"s<7>ssssssss<%<s",
"sOO<ssssssssOpws",
"siuessssssss<%:s",
"s<ww9Ow<Orww<87s",
"s2<w2<%>%0www<>s",
"s->7<7<<<>:2<<>s"
};
