/* XPM */
static char *mc_28[] = {
/* columns rows colors chars-per-pixel */
"16 16 88 1 ",
"  c black",
". c #000001",
"X c #000101",
"o c #000002",
"O c #000102",
"+ c #000003",
"@ c #000103",
"# c #010006",
"$ c #000106",
"% c #010206",
"& c #020207",
"* c #040404",
"= c #040407",
"- c #020209",
"; c #030309",
": c #040409",
"> c #03030C",
", c #03030F",
"< c #04030D",
"1 c #04030F",
"2 c #04040C",
"3 c #04040D",
"4 c #04040F",
"5 c #030313",
"6 c #040313",
"7 c #040410",
"8 c #060410",
"9 c #040314",
"0 c #0F071F",
"q c #100920",
"w c #140D24",
"e c #181026",
"r c #1A1229",
"t c #291A45",
"y c #2F224C",
"u c #342750",
"i c #372952",
"p c #3B2D57",
"a c #41345D",
"s c #170080",
"d c #100087",
"f c #1B0080",
"g c #1F0083",
"h c #180086",
"j c #180089",
"k c #18008E",
"l c #1E0092",
"z c #200086",
"x c #22008F",
"c c #250092",
"v c #240095",
"b c #260094",
"n c #2D0095",
"m c #22009A",
"M c #270098",
"N c #2D009C",
"B c #32009A",
"V c #3300A3",
"C c #3100A5",
"Z c #3B00A0",
"A c #3B00A5",
"S c #3A00AA",
"D c #3C00AA",
"F c #3D00AB",
"G c #3E00AA",
"H c #4000AA",
"J c #4300AD",
"K c #4300AE",
"L c #4500AD",
"P c #4A00AB",
"I c #4A00AD",
"U c #4D00AC",
"Y c #5000AA",
"T c #5500AE",
"R c #5900AE",
"E c #5600B0",
"W c #5500B5",
"Q c #6204BA",
"! c #6604B9",
"~ c #6709BE",
"^ c #690BB8",
"/ c #6E0BBA",
"( c #720AC0",
") c #7B18C5",
"_ c #801AC4",
"` c #8025C4",
"' c #8927C4",
"] c None",
/* pixels */
"]]]]]]]]]]]]]]]]",
"]2OOO*5<Oy<<8Oi]",
"]Ouii--Oiw8-Oiw]",
"]Owe-**aww-<O,<]",
"]Ow<GfcYAT/nw,<]",
"]<:%zhHE'E`!<<-]",
"]*7<lBSJ(RP)OOO]",
"]<O%bzBEWSEItiw]",
"]OiwggBvdZZAqw-]",
"],,8IhjNMxC)w-2]",
"]<,,^LjmBc/_<%<]",
"]O%<U_WVCQ^GOpw]",
"]iuesI(JG~Ck<:-]",
"]<ww8Ow,Orww<<<]",
"]2<w2<%,%0www<,]",
"]-<5<<<:,4%8<:,]"
};
