/* XPM */
static char *mc_29[] = {
/* columns rows colors chars-per-pixel */
"16 16 87 1 ",
"  c black",
". c #000001",
"X c #000101",
"o c #000002",
"O c #000102",
"+ c #000003",
"@ c #000103",
"# c #010006",
"$ c #000106",
"% c #010206",
"& c #020207",
"* c #040404",
"= c #040407",
"- c #020209",
"; c #030309",
": c #040409",
"> c #03030C",
", c #03030F",
"< c #04030D",
"1 c #04030F",
"2 c #04040C",
"3 c #04040D",
"4 c #04040F",
"5 c #030313",
"6 c #040313",
"7 c #040410",
"8 c #060410",
"9 c #040314",
"0 c #0F071F",
"q c #100920",
"w c #140D24",
"e c #181026",
"r c #1A1229",
"t c #291A45",
"y c #2F224C",
"u c #342750",
"i c #372952",
"p c #3B2D57",
"a c #41345D",
"s c #100087",
"d c #1B0080",
"f c #1F0083",
"g c #180086",
"h c #180089",
"j c #1D008A",
"k c #1E0092",
"l c #200086",
"z c #22008F",
"x c #250092",
"c c #240095",
"v c #260094",
"b c #2D0095",
"n c #22009A",
"m c #270098",
"M c #2D009A",
"N c #2D009C",
"B c #32009A",
"V c #3300A3",
"C c #3100A5",
"Z c #3B00A0",
"A c #3B00A5",
"S c #3A00AA",
"D c #3D00AB",
"F c #3E00AA",
"G c #4000AA",
"H c #4300AD",
"J c #4500AD",
"K c #4A00AB",
"L c #4A00AD",
"P c #4D00AC",
"I c #5000AA",
"U c #5500AE",
"Y c #5900AE",
"T c #4E00B6",
"R c #5600B0",
"E c #5500B5",
"W c #6204BA",
"Q c #6604B9",
"! c #690BB8",
"~ c #6E0BBA",
"^ c #720AC0",
"/ c #7B18C5",
"( c #801AC4",
") c #8527C2",
"_ c #8025C4",
"` c #8927C4",
"' c None",
/* pixels */
"''''''''''''''''",
"'2OOO%6<Oy<<9Oi'",
"'Ouii;;Oiw6;Oiw'",
"'Owe;**aww*<O<<'",
"'Ow<bQ/LA/(Fw,<'",
"'<:%~_KRZC~!<<;'",
"'*7<UUYSZzxWOOO'",
"'<O%A`^EsmBCtiw'",
"'OiwIRJRcNnVqw;'",
"'<<9xGSBBhhEw;<'",
"'<2,dgBlfgJ(,%<'",
"'OO,FlkclL!POpw'",
"'iue)DMET^Fj<*;'",
"'<ww9Ow<Orww<<7'",
"'<<w2<%,%0www<,'",
"';,7<<:<<,:<<:,'"
};
