/* XPM */
static char *mc_21[] = {
/* columns rows colors chars-per-pixel */
"16 16 13 1 ",
"  c #482B07",
". c #523610",
"X c #573A14",
"o c #044E04",
"O c #14620D",
"+ c #1F6C15",
"@ c #6D4F27",
"# c #72522A",
"$ c #72542A",
"% c #7D5E32",
"& c #3B8D28",
"* c #54AB39",
"= c None",
/* pixels */
"================",
"===========*====",
"====**====*&o===",
"====+&=**&=&%===",
"===*%Oo=&o XXo==",
"===&@oo=o%X  %==",
"=====@% %X o=*&=",
"===*o=.X**==*&o=",
"===&=%##&Oo =o==",
"====&$ X%oXX#%*=",
"===*O =*o  *o=o&",
"==*&oo=&o% ====o",
"==&o=o= %*+=====",
"=======%$ o=====",
"=======%X ======",
"=======@X ======"
};
