/* XPM */
static char *mc_09[] = {
/* columns rows colors chars-per-pixel */
"16 16 11 1 ",
"  c #0C3730",
". c #1B7B6B",
"X c #209581",
"o c #2CCDB1",
"O c #30DBBD",
"+ c #4AEDD1",
"@ c #8CF4E2",
"# c #A2F6E7",
"$ c #D1FAF3",
"% c white",
"& c None",
/* pixels */
"&&&&&&&&&&&&&&&&",
"&&&&&&&&&&&&&&&&",
"&&&&&&    &&&&&&",
"&&&&& %%%% &&&&&",
"&&&& %###$O &&&&",
"&&& %$##%++ &&&&",
"&&& %#%$$$+O &&&",
"&& %#%@@@@X+ &&&",
"&& %#$@@@@X+O &&",
"&& %$o@@@@X.. &&",
"&& %++XXXXooX &&",
"&&& +.oooo.o &&&",
"&&& O.oooo.X &&&",
"&&&& XooooX &&&&",
"&&&&&      &&&&&",
"&&&&&&&&&&&&&&&&"
};
