/* XPM */
static char * pacman_16px12_xpm[] = {
"16 16 2 1",
" 	c None",
".	c #FFFB00",
"     ......     ",
"   ..........   ",
"  ............  ",
"   ............ ",
"    ........... ",
"     ...........",
"      ..........",
"       .........",
"        ........",
"       .........",
"      ..........",
"     .......... ",
"    ........... ",
"  ............  ",
"   ..........   ",
"     ......     "};
