/* XPM */
static char * pacman_16px8_xpm[] = {
"16 16 2 1",
" 	c None",
".	c #FFFB00",
"     ......     ",
"   ..........   ",
"  ............  ",
" ............   ",
" ...........    ",
"...........     ",
"..........      ",
".........       ",
"........        ",
".........       ",
"..........      ",
" ..........     ",
" ...........    ",
"  ............  ",
"   ..........   ",
"     ......     "};
