/* XPM */
static char * evil_chick_16px3_xpm[] = {
"16 16 13 1",
" 	c None",
".	c #E42222",
"+	c #CD1818",
"@	c #FFFFFF",
"#	c #E7E7E7",
"$	c #C60000",
"%	c #D13030",
"&	c #F7F7F7",
"*	c #FFF300",
"=	c #EFEFEF",
"-	c #DFDFDF",
";	c #AFAFAF",
">	c #F0E400",
" .              ",
" +.@@# .        ",
"  @@@..+        ",
"  @@$@+  %%&    ",
"***@@@@=%..@@& @",
"   .@@=@..@@@@@@",
"   .-@@%..@@@@@@",
"    #@@.@@.@@@%@",
"     ;@@@@@@@%.#",
"      @@@@@@%.& ",
"       #=&&&.   ",
"        > *     ",
"        > *     ",
"        > %     ",
"       .> .     ",
"         >*     "};
