/* XPM */
static char * evil_chick_16px2_xpm[] = {
"16 16 14 1",
" 	c None",
".	c #E42222",
"+	c #CD1818",
"@	c #FFFFFF",
"#	c #E7E7E7",
"$	c #F7F7F7",
"%	c #D13030",
"&	c #812929",
"*	c #EFEFEF",
"=	c #FFF300",
"-	c #AFAFAF",
";	c #DFDFDF",
">	c #D7D7D7",
",	c #F0E400",
"                ",
" .              ",
" +.@@# .       $",
"  @@@..+$%$%$ $@",
"  @@&@+*@%.@@$@@",
"===@@@@*@..@@@@@",
"   .$@*@@@.@@@@@",
"   .#@@@@@@@@@.@",
"     -;$@@@@@.. ",
"       $;@@@@.  ",
"        *$$$>   ",
"        , =     ",
"        , =     ",
"       ,, .     ",
"       .  .     ",
"         ,=     "};
