/* XPM */
static char * evil_chick_16px1_xpm[] = {
"16 16 13 1",
" 	c None",
".	c #E42222",
"+	c #FFFFFF",
"@	c #E7E7E7",
"#	c #CD1818",
"$	c #DE4545",
"%	c #F7F7F7",
"&	c #FFF300",
"*	c #EFEFEF",
"=	c #D13030",
"-	c #DFDFDF",
";	c #AFAFAF",
">	c #F0E400",
" .              ",
" ..++@ .        ",
"  +++..#        ",
"  ++$+# %%%    +",
"&&&++++*++=.+ ++",
"   .++*++=.+++++",
"   .-++++.++++++",
"    @+++++++++++",
"     ;+++++++=% ",
"      ++++++=.  ",
"       @*%%=.   ",
"        > &     ",
"       >> &     ",
"       >  .     ",
"      .>  .     ",
"         >&     "};
