/* XPM */
static char * evil_chick_16px0_xpm[] = {
"16 16 14 1",
" 	c None",
".	c #E42222",
"+	c #FFFFFF",
"@	c #E7E7E7",
"#	c #CD1818",
"$	c #C60000",
"%	c #FFF300",
"&	c #D13030",
"*	c #DFDFDF",
"=	c #AFAFAF",
"-	c #D7D7D7",
";	c #EFEFEF",
">	c #F7F7F7",
",	c #F0E400",
" ..++@ .        ",
"  +++..#        ",
"  ++$+#         ",
"%%%+++++        ",
"   .++++&&+++  +",
"   .*++++..+++++",
"    *+++++.+++++",
"    @++++.+++++.",
"     =+++++++&.@",
"     -++++++&.. ",
"      *@;>>>.   ",
"        , %     ",
"        , %     ",
"        , &     ",
"       ., .     ",
"         ,%     "};
