/* XPM */
static char * desert2_xpm[] = {
"32 48 20 1",
" 	c #2994A2",
".	c #2B96A4",
"+	c #2799A8",
"@	c #1BA0B1",
"#	c #179EAF",
"$	c #1AAABC",
"%	c #FFDB1E",
"&	c #E7C525",
"*	c #C29803",
"=	c #E6C208",
"-	c #E9C933",
";	c #35BCCD",
">	c #62DAE9",
",	c #FFE257",
"'	c #FFE981",
")	c #E8C938",
"!	c #E2C021",
"~	c #D3B215",
"{	c #E1BE16",
"]	c #E7C213",
"                                ",
"                                ",
"           ......             ..",
"................................",
"................................",
"................................",
".......++++.....................",
"+++++++++++++++++++++++++.......",
"++++++++++++++++@@@+++++++++++++",
"#@++++@@@@@@@@@@@@@@@@@@++++++++",
"#@@@@@@@@@@@@@@@@@@@@@@@@@@@@@@#",
"#@@@@@@@@@@@@@@@@@@@@@@@@@@@@@@#",
"#@@@@@@@@@@@@@@@@@@@@@@@@@@@@@@#",
"@@@@@@@@@@@@@@@@@@@@@@@@@@@@@@@@",
"@@@@@@@$$$$$$$@@$$$$$@@@@@@@@@@@",
"$$$$$$$$$$$$$$$$$$%$$$$$$$$$$$$@",
"$&&&*$$$$$$$$$$$$%==$$$$$$$$$$$$",
"&&-&****;;;;;;;;%%===;;;;;;;;;;;",
"-&&&&&****;;;>>%%%====>>>>;;;;-&",
"&&-&&-******>>%%%======>>>>>&&&&",
"&&&&&&&******,'',)))))))>>&-&&&-",
"&-&&-&&&****',,,))))))))!&&&-&&&",
"&&&&&&&&-&*',,,,))!!))))!!&&&&&&",
"&&&-&-&&&&,,'',,)))!!!)))!!-&&-&",
"-&&&&&&-&,,,,,,)))))))))))))&&&&",
"&&&-&&&&,,',,,')))))))))!))))&&&",
"-&&&---,,',,,,')!!))))!!))))))&&",
"~~~~~~~~~~~~',))))))))))))!!)))&",
"~~~~~~~~~~~~~~~~~~~~~)!!!!~~~~~~",
"~~~~~~~~~~~~~~~~~~~~~~~~~~~~~~~~",
"~~~~~~~~~~~~~~~~~~~~~~~~~~~~~~~~",
"~~~~~{{~~~~~~~~~~~~~~~~~~~~~~~~~",
"~~~{{~~~~{{~~~{{~{{~~~~~~~~~~~~~",
"{~{~{{{{~~{{~{{~{{~~{{{~~{{~~{{~",
"{{{{{{~~{{{{{~{{{{{{~{~~~~{{{{~~",
"{{{{{{{{{{{{{{{{{{{{{~~~{{~{{~~~",
"{{{{{{{{{{{{{{{{{{{{{{{{~{{{{{{{",
"{{{]{{{{{{{{{{{{{{{{{{{{{{{{{{{{",
"]{]{]{]]{]{{{]]{{{{]{{{{{{{{{{{{",
"]]]{{]]]]{{{]]{{{]{{{]]{{]{{]{]{",
"]]]]]]]{{]]]{]]]{{]]]]{]{{]]{]]{",
"]]]]]]]]]]]]]]]]]]{{]]]]]]]]]]]]",
"]]]]]]]]]]]]]]]]]]]]]]]]]]]]]]]]",
"]]]]]]]]]]]]]]]]]]]]]]]]]]]]]]]]",
"]]]]]]]]]]]]]]]]]]]]]]]]]]]]]]]]",
"]]]]]]]]]]]]]]]]]]]]]]]]]]]]]]]]",
"]]]]]]]]]]]]]]]]]]]]]]]]]]]]]]]]",
"]]]]]]]]]]]]]]]]]]]]]]]]]]]]]]]]"};
