/* XPM */
static char * desert1_xpm[] = {
"32 48 17 1",
" 	c #2994A2",
".	c #2B96A4",
"+	c #DAD6C2",
"@	c #2799A8",
"#	c #179EAF",
"$	c #1BA0B1",
"%	c #1AAABC",
"&	c #C29803",
"*	c #35BCCD",
"=	c #E9C933",
"-	c #E7C525",
";	c #62DAE9",
">	c #80DFEB",
",	c #A67E25",
"'	c #D3B215",
")	c #E1BE16",
"!	c #E7C213",
"                                ",
"                                ",
"                              . ",
"     ......                .  ..",
"................................",
".++....@@@@@@@@@@@@.............",
"....@@@@@@@@@@@@@@@@@@@@@@@.....",
"..@@@@@@@@@@@@@@@@@@@@@@@@@@@...",
"@@@@@@@@@##########@@@@@@@@@@@@@",
"@@@@################++#####@@@@@",
"##################+++++#########",
"######$$$######$$$#####$$$$#####",
"##$$$$$$$$$$$$$$$$$$$$$$$$$$####",
"$$$$$$$$$$$$$$$$$$$$$$$$$$$$$$$$",
"$$$$%%%%%%%$$$$%%%%%$$$$%%%$$$$$",
"%%%%%%%%%%%%%%%%%%%%%%%%%%%%%%%%",
"&%%%%%%%%%%%%%%%%%%%%%%%%%%%%%%%",
"&&&****%%%%*********=--&&*%%%%%%",
"&&&&**************---=&&&&***%%-",
"&&&&&*********;;;-----&&&&&&**-=",
"&&&&&&**;;;;;;;--=---=&&&&&&--=-",
"&&&&&&&;;;;;;--------&&&&&&&=---",
"&&&&&&&&&;>>-=---=--&&&&&&&---=-",
"&&&&&&&--=---------&&&&&&-------",
"&&&&&&------=------&&&&&--------",
"&&&,--------------&&&------==--=",
"'',',','''''''=-----------------",
"',',',',''''''''''''''''''''''''",
"'',,,',','''''''''''''''''''''''",
"''''',,,''''''''''''''''''''''''",
"''''''''''''''''''''''''''''''''",
"''''''''''''''''''''''''''''''''",
"''''''''''''''''''''''''''''''''",
"''''''''''''''''''''''''''''''''",
")')'''''''''''''''''''))''')''))",
"))))''))))''''))''''))')))''))))",
")))')))))'))')'))'')')))))))))))",
"))))')))')))))))))))))))))))))))",
"))))))))))))))))'))))))'))))))))",
"!!)))))))))))))))))))))))))!)!))",
")!!)))!!)))))!!)))))!))))!))))!!",
"!!!!)))!!)))))!!!))!!!!!!!!!!!!!",
"!!!!!!!!!)))!!!!!!!!!!!!!!!!!!!!",
"!!!!!!!!!!!!!!!!!!!!!!!!!!!!!!!!",
"!!!!!!!!!!!!!!!!!!!!!!!!!!!!!!!!",
"!!!!!!!!!!!!!!!!!!!!!!!!!!!!!!!!",
"!!!!!!!!!!!!!!!!!!!!!!!!!!!!!!!!",
"!!!!!!!!!!!!!!!!!!!!!!!!!!!!!!!!"};
