/* XPM */
static char * desert0_xpm[] = {
"32 48 13 1",
" 	c #2994A2",
".	c #2B96A4",
"+	c #DAD6C2",
"@	c #2799A8",
"#	c #179EAF",
"$	c #E9C933",
"%	c #E7C525",
"&	c #1BA0B1",
"*	c #C29803",
"=	c #1AAABC",
"-	c #D3B215",
";	c #E1BE16",
">	c #E7C213",
"                                ",
"                                ",
".      ......                   ",
"..............................  ",
"................................",
".................++.............",
".........@@@@@@@++++@...........",
"....@@@@@@@@@@@@@@@@@@@@@@@@@@@.",
"@@@@@@@@@@@@@@@@@@@@@@@@@@@@@@@@",
"@@@@@@@@@@@##########@@@@@@@@@@@",
"####@@##########################",
"################################",
"#######$%%&######&&&#####&&&&&##",
"&&&&&%%%%%%**&&&&&&&&&&&&&&&&&&&",
"&&&%%%%$%$%%***&&=====&&&&===&&&",
"=%%$%%%%%%%%%****===============",
"$%%%$%%%%%%%%%****==========%$%*",
"%%$%%%%$%%$%$%%*****=====%%$%%**",
"%%%%%%%%%%%%%%%%%****==%%%%%$***",
"%%%%%%$%%%%%%%%$%%%***%%%$%%****",
"%%%$%%%%$%%$%%$%%$%%%%%$%%%*****",
"$%%%%%%%$%%%%%%%%%%%%%%%%%******",
"%%%$%%%%%%$%%%%%%%%%$%%$%*******",
"%%%%%%%%%%%%%%%$%%%%%%%%********",
"%$%%%%%%$%%%%%%%%$%%%%%%********",
"%%%%%%$%%%%%%%%%%%%%%%%*********",
"%%$%%%%%%%%%%%%%%%%%%$%%%***----",
"%%%%---------%%%%%%-------------",
"--------------------------------",
"--------------------------------",
"--------------------------------",
"--------------------------------",
"--------------------------------",
"---------------------;;------;-;",
"--;;---;-;;--;;--;;-;--;-;;-;;--",
"---;;-;;--;;;;--;--;-;---;-;;-;-",
";-;-;;;;;;--;;;;--;;;;;;;-;;;;-;",
";;;--;;;;;;;;;;;;;;;;;;;;;;;;;;;",
";;;;;;;;;;;;;;;;;;;;;;;;;;;;;;;;",
";;;;;;;;;;;;;;>;;;;;;;;;;;;;;;;;",
";;;;;;;;>;;;;>;;>;;>>;;;>>>;>;;;",
";>>;;;;;;>;;>>>>>;>>>;>>>>>>>>;>",
";;;>;>;;;>>>>>>>>>>>>>;;>>>>>>>>",
";>>>>>>>>;>>>>>>>>>>>>>>>>>>>>>>",
">>>>>>>>>>>>>>>>>>>>>>>>>>>>>>>>",
">>>>>>>>>>>>>>>>>>>>>>>>>>>>>>>>",
">>>>>>>>>>>>>>>>>>>>>>>>>>>>>>>>",
">>>>>>>>>>>>>>>>>>>>>>>>>>>>>>>>"};
