/* XPM */
static char *lake_1[] = {
/* columns rows colors chars-per-pixel */
"32 48 31 1 ",
"  c #4A0C21",
". c #57152B",
"X c #5D152D",
"o c #9F722E",
"O c #26B720",
"+ c #34BE2F",
"@ c #6F840B",
"# c #7A8D1B",
"$ c #528225",
"% c #5D912C",
"& c #659F2E",
"* c #6DA934",
"= c #78AC35",
"- c #0DC606",
"; c #88B74B",
": c #24999B",
"> c #209C9F",
", c #179EAF",
"< c #2994A2",
"1 c #2B96A4",
"2 c #2799A8",
"3 c #1EA9AC",
"4 c #1BA0B1",
"5 c #1AAABC",
"6 c #2AA2A4",
"7 c #3ABCBE",
"8 c #91A2A0",
"9 c #CF9CD1",
"0 c #E5B2E8",
"q c #B9CBC9",
"w c #F2D7F3",
/* pixels */
"<<<<<<<<<<<<<<<<<<<<<<<<<<<<<<<<",
"<<<<<<<<<<<<<<<<<<<<<<<<<<<<<<<<",
"<<<<<<<<<<<<<<<<<<<<<qqqqqqq<<1<",
"<<<<<111111<<<<<<<<qqqqqqqqqq<11",
"111111111111111qqqq88qqqqqqqqqq1",
"1qq11112222222qqqqq8888qqqqqqqqq",
"1111qqq222222qqqqqqqq8888888qqqq",
"112qqqqq22qqqqqq88qqqqq888888qqq",
"2qqqqqq88q88qq8888888qqq2222==28",
"22qq8888qqqq888888qqqq,,,,,=;==q",
",,,,,,,,,,,,,,,,,,8888q,,,;,;;=8",
"q,,,,,444qqq,,,444,,,,,444=.;;=;",
"qq44444qqqqqqq44=&&&&&4qq;.;=;=;",
"8qq44qqqqq88q&==&==&=&&&&;=;=;=;",
"888q55qqq88&&=&=.=&=;=&&&;=;==;=",
"55555555&&&&;=;=;=X=;==&&;;=;=;=",
"555&&&&&&&&;=;=;&=;=;=;=&;&=;X&=",
"&&&&&&&&&&&;=;=;%=;=;=;=&=;&;X&&",
"&&&%&&&%%&%&=;=;.=;=;=%=&=;&X.%&",
"&%%%%&%%%%&%&%%.X.;=&=&%&%;XX..%",
"%&$%&%%$$%%&%%. .X.%%&$&%$.%.% %",
"3%%$%%$%$%$%$. $. . %$%%$%.% % 3",
">>73773>%$%$o $% %. $%$373 > 3 >",
"733>>3o3$$$%@$%$ %% %>37>377 >33",
"$73733#$$o%@#@$$$%$%$%%3373>33>7",
"$$$$%#@#$#$#@#$$$$%$%%$$$%$$3773",
"*****@#@#@#@#@%$%%$$$$$%$$%$%$$%",
"%*%*%#@#@#@%@*******************",
"*%*%%%#*#@#*o%%%*%%%%*%**%****%*",
"%%%%%$o%$#%$o%%%%%%**%%%%**%*%%%",
"%%%%$%o$%o$%o%$$%%%%%%%%%%%%%%%%",
"$$%$%$o%$o%%o$%%%%%$%%$%%%%$%%%$",
"3333$$o$$o$$o%$$%$$%%$%%%$$$%$$%",
"333333o36o:6o3333:33$$%$$$%6336:",
"333333o6:o6:33333333366:63333333",
"663633333o333333633333:3:6333333",
"36633333663366363333333333366:63",
"3333333333666:63333333333366:336",
"6333333666:::6::6:33366333333333",
"333336::6::666:66666w33::3333333",
"33366:63:333336::66w6w:666633333",
"33333333333333366:66w:6636666333",
"33333333333666::3306w60633333333",
"66333333333333339000900096633333",
":66333333333333O990999099O333663",
"3333666:333333O-999999999-O33366",
"333333:6::6333O++9999999-+O33333",
"333333336::6633OOOOOOOOOOO363333"
};
