/* XPM */
static char *lake_2[] = {
/* columns rows colors chars-per-pixel */
"32 48 28 1 ",
"  c #4A0C21",
". c #57152B",
"X c #5D152D",
"o c #26B720",
"O c #34BE2F",
"+ c #528225",
"@ c #5D912C",
"# c #659F2E",
"$ c #6DA934",
"% c #78AC35",
"& c #0DC606",
"* c #88B74B",
"= c #24999B",
"- c #209C9F",
"; c #179EAF",
": c #2994A2",
"> c #2B96A4",
", c #2799A8",
"< c #1EA9AC",
"1 c #1BA0B1",
"2 c #1AAABC",
"3 c #2AA2A4",
"4 c #37A9AB",
"5 c #3AADAF",
"6 c #3ABCBE",
"7 c #35BCCD",
"8 c #91A2A0",
"9 c #B9CBC9",
/* pixels */
"::::::::::::::::::::::::::::::::",
"::::999:::::::::::::::::::::::::",
":99999999::>>>>>>:::::::::::::>9",
">>998888>>>>>>>>>>>>>>>>>>>>9999",
">>>>>>>>>>>>9999>>>>>>>>8>999988",
">>>>>>>>>>999889999>>>>89>>>>>>>",
"9>>>>>>,,,,>>>8888>>>>>899>>>>>>",
"999,,,,,,,,,,,,99999,,8899>>>>>>",
"99999,,,,,,99999888999988999,,,,",
"9888991111999888111889999999999,",
"8811111111111111111111899998991;",
";111111111111111111111111118811;",
";111111111111%111119991111%1111;",
"111111111111%%*119988999*%%*%111",
"1*%11112222%*%*%9988888*%.%*%*11",
"%%*%#222222%*%*%%*22222*%*%*%*21",
"*.*%*###2%%**.**%*%2222*%*%*2*22",
"*.*%*@#@%*%*%.%*.*%*777*%*%*77##",
"*X*%*#@*%*%*%X%*.*%*777*7*.*####",
"*..@*@#*%*%#.X#7X.%*####.XX#@#@#",
"@X.@+#@*%X##X.X#X.#*#@@#.#X #@#@",
"..X @@@*@X@@.#.##X#@@#@@ 6 # <<6",
". .< @@+@..@@@.@@X.@@@@< -<< 66-",
"<<.-<<+@.+. <<.++.. +@+@+@<-<-++",
"66<<6<<--< -66-< + + <<+@+@@+@++",
"<<6<@+-6<<6<--<< < <<66<<@@+@++@",
"+++@@@@+@+@<<<6<66-<---<6+@@+++@",
"$$$$$$$$$$$$++++-6-<6<-<+@@+++@+",
"@@@$$@$@@@$$$$$$$$$$$++++@$$$$$$",
"@@$@@$@@$$@@$$$@@$$@@$$$$$$@$$@$",
"@$@@@@@$@@$$@$@@$@@@$@@@$$@$$@$@",
"@@@@+@@@@@@@+@@@@@@@@@@@$$@@@@@@",
"+@@+@@@@@+@+@@+@@@@@@+@@@@@+@@+@",
"=<<<<<+@++@+++@++@@++@@+@@+@@+@@",
"<<<<=<<<<<<<<<+++@+++++@++++@+++",
"<<<<<==<<<<33333=3<<<<<<<++@++++",
"<333<<333333===3333<33<<<<<<<3==",
"3<<333<<<<<<<<<<<3=33==<<<<<3=<<",
"<<<<<<<<<<<<<<<<33=<<<<33<<<<<<<",
"33===333<<<<<<<===33<<<<<3<<<<<<",
"<<<<<<<==3333<<<<<<<<<<<==3<<<<3",
"<<<<33333<==333<<<<<<<3333<3<<3=",
"<<oooo<<33333<3333<===<<<<<<<<<<",
"<oO&&Oo<<<<<<33===3<<<<<<3<<<<<<",
"oO&oOO&o<<<<===<<<<<<<<3<3<3<444",
"o&ooO&Oo<<oo<<<<<<<<<33<<<<<4455",
"oo<o&Oo33o&Oo<<<<333<<<<<<<<4444",
"<<<ooo<<=<oo<<<<<<<<<<<33<3<<4<4"
};
