/* XPM */
static char * mountain0_xpm[] = {
"32 48 26 1",
" 	c #2994A2",
".	c #90CAD1",
"+	c #9BCFD5",
"@	c #2B96A4",
"#	c #2799A8",
"$	c #CDE3EF",
"%	c #AACEE3",
"&	c #C2DCEB",
"*	c #179EAF",
"=	c #304955",
"-	c #3B5969",
";	c #5D7A8B",
">	c #7491A2",
",	c #416173",
"'	c #1BA0B1",
")	c #4E6B7C",
"!	c #6B8A9C",
"~	c #1AAABC",
"{	c #195926",
"]	c #13411C",
"^	c #164D21",
"/	c #136F25",
"(	c #342511",
"_	c #3F2D15",
":	c #157C29",
"<	c #17892D",
"                                ",
"  .++                           ",
"@....++@@@@@@                   ",
"@@@@@@@@@@@@@@@@@@@@@@@@@@@@@@  ",
"@@@@@@@@@@@@@@@@@@@@@@@@@@@@@@@@",
"@@@@@+++@@@@@@@@@@@@@@@++++@@@@@",
"@@@@...++##+++#######.+..+++@@@@",
"@@@.....$+....+####.........++++",
"#######%&$.#################...#",
"######%%&$#**********###########",
"****#=%%&&$*********************",
"*****=-%&;>>***.++**$***********",
"****=--,;;&>>****.+%$$***'''+'**",
">''==--,);&&!>''''=%%&>''''+.++'",
"$>==--,,);;&&!>''~=,!&$'''~~~>''",
"&!>--,,,);;;;&!>~=-%;!&&$~~~-$>~",
"%&!>,,,,,);;;&!!>=%%;!!&>>~--%>>",
";!&!>,,,,));;;!!!!%,;;!!!>=-,;&>",
";;&&>,,,,));;;;!!!,,);;&!>$,);!&",
";;;&&>,,,));;;;!!!,,);;!&$>,{;!!",
";;;!&!>,,)));;;;!!),));;!&>>{;;!",
";;;{!!>{,,)){;;;!!!,{);;!!!]^));",
");]^{!]^{,))^{;;{!!)^);;;{)]^{))",
"))]^{!]^{,)]^{;]^!!)^{))^{)]^{))",
")]]^{]]^^{]]^^;]^{!]]{))]{]]^^{)",
"]]]^^{]]^{]]^^{]]{)]]^)]]^{]^^^)",
"]]]^^^]]^^{]^^^]]^^]]^^]]^{]^^^/",
")]]^^^]]^^)]]^)]]^^]]^^]]^^]^^//",
"///(_))(_///(//]]^/]]^//]^//(///",
"///(_//(_///(///(///(////(//(///",
"////////////////////////////////",
"////////////////////////////////",
"////////////////////////////////",
"////////////////////////////////",
"////////////////////:::::::::///",
"///::::::::::://::::::::::::::::",
"::::::::::::::::::::::::::::::::",
"::::::::::::::::::::::::::::::::",
"::::::::::::::::::::::::::::::::",
"::::::::::::::::::::::::::::::::",
"::::::::::::::::::::::::<<<:::::",
"::::::::::::<<<<<::<<<<<<<<<<<::",
"<<<<<<<<<<<<<<<<<<<<<<<<<<<<<<<<",
"<<<<<<<<<<<<<<<<<<<<<<<<<<<<<<<<",
"<<<<<<<<<<<<<<<<<<<<<<<<<<<<<<<<",
"<<<<<<<<<<<<<<<<<<<<<<<<<<<<<<<<",
"<<<<<<<<<<<<<<<<<<<<<<<<<<<<<<<<",
"<<<<<<<<<<<<<<<<<<<<<<<<<<<<<<<<"};
