/* XPM */
static char * mountain1_xpm[] = {
"32 48 29 1",
" 	c #2994A2",
".	c #2B96A4",
"+	c #9BCFD5",
"@	c #90CAD1",
"#	c #2799A8",
"$	c #179EAF",
"%	c #1BA0B1",
"&	c #1AAABC",
"*	c #35BCCD",
"=	c #304955",
"-	c #7491A2",
";	c #164D21",
">	c #416173",
",	c #195926",
"'	c #62DAE9",
")	c #3B5969",
"!	c #6B8A9C",
"~	c #C2DCEB",
"{	c #5D7A8B",
"]	c #13411C",
"^	c #80DFEB",
"/	c #4E6B7C",
"(	c #136F25",
"_	c #9A8C0B",
":	c #342511",
"<	c #3F2D15",
"[	c #8C7F0A",
"}	c #157C29",
"|	c #17892D",
"                                ",
"                                ",
"                              . ",
"     ......              ++++ ..",
"....................@@++@@@@@+..",
".......############...@@@@@@@...",
"....#######################.....",
"..###########################...",
"#########$$$$$$$$$$#############",
"####$$$$$$$+++$$$$$$$$$$$$$#####",
"$$$$$+++$$@@@@+$$$$$$$$$$$$$$$$$",
"$$$$@@@@+@@@@@@+%%$$$$$%%%%$$$$$",
"$$%%%%%%@@%%%%%%%%%%%%%%%%%%$$$$",
"%%%%%%%%%%%%%%%%%%%%%%%%%%%%%%%%",
"%%%%&&&&&&&%%%%&&&&&%%%%&+++%%%%",
"&&&&&&&&&&&&&&&&&&&&&&&@@@@++&&&",
"&&&&&&&&&&&&&&&&&&&&&&@@@@@@@+@&",
"&&&****&&&&**********=-*;*&&&&&&",
"********************=>--;,***&&*",
"-*************''''*=)>!-;,***;**",
"-*******''''''''==)))>!!;,***;**",
"~-'''''''''''''==))>>{{];,,-];,*",
"!-''''''''^^^=))))>>>{{];;,-];,'",
"!!-^^^^^^^^==))))>>>//]];;,,];,,",
"!!--^^^^^===)))>>>>>//]]];;,];,,",
"{!!--^==)))))>>>>>>////]]];]]];,",
"(_(_--_-)_)_((((((((((((:<{{]]]!",
"([_[__[__[_[((((((((((((:<(((:((",
"([([(([(([([(((((((((((((((((:((",
"((((((((((((((((((((((((((((((((",
"((((((((((((((((((((((((((((((((",
"((((((((((((((((((((((((((((((((",
"((((((((((((((((((((((((((((((((",
"((((((((((((((((((((((((((((((((",
"}}}(((((((((((((((((((}}}}}}}}}}",
"}}}}}}}}}}((((}}}}}}}}}}}}}}}}}}",
"}}}}}}}}}}}}}}}}}}}}}}}}}}}}}}}}",
"}}}}}}}}}}}}}}}}}}}}}}}}}}}}}}}}",
"}}}}}}}}}}}}}}}}}}}}}}}}}}}}}}}}",
"}}}}}}}}}}}}}}}}}}}}}}}}}}}}}}}}",
"}}}}}}}}}}}}}}}}}}}}}}}}}}}}}}||",
"||||}}}}}}}}}}}}}}}}||||||||||||",
"|||||||||}}}||||||||||||||||||||",
"||||||||||||||||||||||||||||||||",
"||||||||||||||||||||||||||||||||",
"||||||||||||||||||||||||||||||||",
"||||||||||||||||||||||||||||||||",
"||||||||||||||||||||||||||||||||"};
