/* XPM */
static char * chest_16px09_xpm[] = {
"16 16 10 1",
" 	c #703D11",
".	c #CD8A50",
"+	c #B17139",
"@	c #E6D9CE",
"#	c #371D07",
"$	c #DEAF86",
"%	c #E9B33C",
"&	c #DCB11D",
"*	c #DC971D",
"=	c #E2E2E2",
" .+++@####$+++. ",
" ....#%&&%#.... ",
"    #&&&&&&#    ",
" ###%&&**&&&### ",
" ###=&*&&*&&### ",
" ##%&*&&&&*&*## ",
" ##&&*&&&&%&&## ",
" ##&&*&&&&%&&## ",
" ##&&*&&&&%&&## ",
" .#&&*&&&&%&&#. ",
" .#*&*&&&&%&*#. ",
" .+#&&*&&%&&#+. ",
" ..#*&&%%&&&#.. ",
" .+.#*&&&&&#.+. ",
" ....#**&*#.... ",
"      ####      "};
