/* XPM */
static char * chest_16px02_xpm[] = {
"16 16 8 1",
" 	c #703D11",
".	c #DEAF86",
"+	c #B17139",
"@	c #E9BB41",
"#	c #EFB210",
"$	c #CD8A50",
"%	c #E6D9CE",
"&	c #371D07",
" .............. ",
" .++++++++++++. ",
" .+@+@#####+#+. ",
" .+###+##+###+. ",
" $++++++++++++$ ",
" $+++%.....+++$ ",
" $$$$.    .$$$$ ",
"     $    $     ",
" &&&&$$$$$$&&&& ",
" $+++++%.+++++$ ",
" $+++++..+++++$ ",
" $+++++$$+++++$ ",
" $$++++$$++++$$ ",
" $+$+++$$+++$+$ ",
" $$$$$$$$$$$$$$ ",
"                "};
