/* XPM */
static char * chest_16px13_xpm[] = {
"16 16 8 1",
" 	c #703D11",
".	c #CD8A50",
"+	c #B17139",
"@	c #371D07",
"#	c #E9B33C",
"$	c #DCB11D",
"%	c #DC971D",
"&	c #E6D9CE",
" .+++@@@@@@+++. ",
" ...@##$$$%@... ",
"   @&$$$$$$$@   ",
" @@#$$%%%%$$$@@ ",
" @&$$%&$$$%$$$@ ",
"@#$$%$$$$$$%$$%@",
"@$$%&$$$$$$$#$$@",
"@$$%$$$$$$$$#$$@",
"@$$%$$$$$$$$#$$@",
"@$$%$$$$$$$$#$$@",
"@%$$%$$$$$$#$$%@",
" @$$$%$$$$#$$$@ ",
" .@$$$####$$$@. ",
" .+@$$$$$$$$@+. ",
" ...@%$$$$%@... ",
"     @@@@@@     "};
