/* XPM */
static char * chest_16px05_xpm[] = {
"16 16 8 1",
" 	c #703D11",
".	c #CD8A50",
"+	c #B17139",
"@	c #E6D9CE",
"#	c #DEAF86",
"$	c #371D07",
"%	c #E9BB41",
"&	c #EFB210",
" .+++@#####+++. ",
" ....#    #.... ",
"     .    .     ",
" $$$$......$$$$ ",
" $$$$$$$$$$$$$$ ",
" $$%%&$$$$$$$$$ ",
" $$%&%&&&$$$$$$ ",
" $$$&&%%&&&$$$$ ",
" $$$$$&&&&&&$$$ ",
" .++++$$$&&&$+. ",
" .+++++##$$$++. ",
" .+++++..+++++. ",
" ..++++..++++.. ",
" .+.+++..+++.+. ",
" .............. ",
"                "};
