/* XPM */
static char * chick_grave_16px0_xpm[] = {
"16 16 8 1",
" 	c None",
".	c #C00606",
"+	c #DD8510",
"@	c #353330",
"#	c #5F2641",
"$	c #551F38",
"%	c #F05B26",
"&	c #353033",
"     ...+..     ",
"   .. ..@. ..   ",
"  .   .#$.   .% ",
" .   . #$ .   +%",
"%.   .    .   & ",
"+%  .      .  #&",
"&#............#$",
"#$..        ..#$",
"#$ ..      ..  .",
". .  ..  ..  . .",
". .    ..   %. .",
" . % ..  .. +%. ",
" . +.      .&#. ",
"  #&        #$  ",
"  #$.      .#$  ",
"     ......     "};
