/* XPM */
static char * tele_pad_b_16px4_xpm[] = {
"16 16 7 1",
" 	c None",
".	c #573E10",
"+	c #413010",
"@	c #EB9347",
"#	c #392809",
"$	c #CF6306",
"%	c #CBBA9C",
"                ",
"          ...   ",
"         .+++.  ",
"        .+  ++  ",
"        ++@# ++ ",
"         @## +# ",
"     $@  @   ++ ",
"    @  @     +# ",
"            .+# ",
"           .++# ",
"    %%%%%%%%%+# ",
"  .%%$%$%$%$%%# ",
" .+%$%$%$%$%$%.#",
" +#.%%%%%%%%%.+#",
".##.+..++#..+#+#",
"##++##++##++##  "};
