/* XPM */
static char * ghost_16px3_xpm[] = {
"16 16 5 1",
" 	c None",
".	c #E9E9E9",
"+	c #343434",
"@	c #CBC5C5",
"#	c #0E0E0E",
"                ",
"                ",
"                ",
"       .......  ",
"      ......... ",
"     ....+@@+.. ",
"     ...+#@@+#. ",
"    ....##@@##. ",
"   ....@@@@@@@  ",
"   .....@.....@ ",
"  ....@@....@@  ",
"  ...........   ",
"  ...........   ",
" .............  ",
"  ..........    ",
"                "};
