/* XPM */
static char * ghost_16px0_xpm[] = {
"16 16 5 1",
" 	c None",
".	c #7AE9E9E9",
"+	c #7A343434",
"@	c #7ACBC5C5",
"#	c #7A0E0E0E",
"                ",
"                ",
"      .......   ",
"     .........  ",
"    ....+@@+..  ",
"    ...+#@@+#.  ",
"   ....##@@##.  ",
"   ...@@@@@@@   ",
"   ..........   ",
"   .......@....@",
"  ......@@...@@ ",
"  ...........   ",
"  ...........   ",
" .............  ",
"  ..........    ",
"                "};
