/* XPM */
static char * swing_16px17_xpm[] = {
"16 16 11 1",
" 	c None",
".	c #FFBE00",
"+	c #6D3B14",
"@	c #FFE18B",
"#	c #FDCB39",
"$	c #6E6E6E",
"%	c #9E9E9E",
"&	c #EAE7E7",
"*	c #C5C5C5",
"=	c #E3DFDF",
"-	c #F9F9F9",
"                ",
"                ",
"                ",
"                ",
"                ",
"                ",
"                ",
"             . +",
"            @#..",
"              @#",
"             $% ",
"             $% ",
"            $%  ",
"       &    %*  ",
"        &  %*   ",
"        == *-   "};
