/* XPM */
static char * swing_16px8_xpm[] = {
"16 16 13 1",
" 	c None",
".	c #62310B",
"+	c #FFBE00",
"@	c #FFE18B",
"#	c #6D3B14",
"$	c #FDCB39",
"%	c #9E9E9E",
"&	c #6E6E6E",
"*	c #F9F9F9",
"=	c #C5C5C5",
"-	c #EAE7E7",
";	c #E3DFDF",
">	c #FFFFFF",
"                ",
"                ",
"                ",
"                ",
"                ",
"                ",
"                ",
".  +@           ",
"#.+$            ",
"#+$%%%          ",
" +$&&%%*=*-;    ",
" $    %=%=*;;   ",
"  $      -;;>   ",
"         -;;    ",
"        -;;     ",
"       -;;      "};
