/* XPM */
static char * swing_16px16_xpm[] = {
"16 16 13 1",
" 	c None",
".	c #EAE7E7",
"+	c #FDCB39",
"@	c #FFBE00",
"#	c #6D3B14",
"$	c #62310B",
"%	c #6E6E6E",
"&	c #E3DFDF",
"*	c #9E9E9E",
"=	c #FFE18B",
"-	c #C5C5C5",
";	c #F9F9F9",
">	c #FFFFFF",
"                ",
"                ",
"                ",
"                ",
"                ",
"                ",
"                ",
"                ",
"   .       +@   ",
"            +@#$",
"  .        %+@$#",
"  .&    *%%**=@ ",
"  &&&  *-***  = ",
"   & --;>    =  ",
"    >>;         ",
"                "};
