/* XPM */
static char * swing_16px13_xpm[] = {
"16 16 6 1",
" 	c None",
".	c #FFFFFF",
"+	c #C5C5C5",
"@	c #9E9E9E",
"#	c #F9F9F9",
"$	c #6E6E6E",
"        .+@@    ",
"         ##+@$  ",
"           #+@$$",
"             ++@",
"               +",
"                ",
"                ",
"                ",
"                ",
"                ",
"                ",
"                ",
"                ",
"                ",
"                ",
"                "};
