/* XPM */
static char * swing_16px19_xpm[] = {
"16 16 6 1",
" 	c None",
".	c #6E6E6E",
"+	c #9E9E9E",
"@	c #C5C5C5",
"#	c #F9F9F9",
"$	c #FFFFFF",
"  .+@           ",
"  .@            ",
" .+@            ",
" +@             ",
"+@#             ",
"+#              ",
"@#              ",
"$               ",
"                ",
"                ",
"                ",
"                ",
"                ",
"                ",
"                ",
"                "};
