/* XPM */
static char * swing_16px1_xpm[] = {
"16 16 6 1",
" 	c None",
".	c #FFFFFF",
"+	c #F9F9F9",
"@	c #C5C5C5",
"#	c #9E9E9E",
"$	c #6E6E6E",
"                ",
"                ",
"                ",
"                ",
"                ",
"                ",
"                ",
"                ",
"               .",
"              +@",
"              +#",
"             +@#",
"             @# ",
"            @#$ ",
"            @$  ",
"           @#$  "};
