/* XPM */
static char * swing_16px2_xpm[] = {
"16 16 12 1",
" 	c None",
".	c #E3DFDF",
"+	c #FFFFFF",
"@	c #F9F9F9",
"#	c #C5C5C5",
"$	c #9E9E9E",
"%	c #FFE18B",
"&	c #6E6E6E",
"*	c #FFBE00",
"=	c #FDCB39",
"-	c #62310B",
";	c #6D3B14",
"                ",
"                ",
"                ",
"           .+   ",
"          ....  ",
"          .@... ",
"          @#....",
"          #$  ..",
"          @#   .",
"          $$    ",
"         $$     ",
"       % $&     ",
"       *=$&     ",
"        *== =   ",
"        -**=    ",
"       -;;      "};
