/* XPM */
static char * swing_16px5_xpm[] = {
"16 16 10 1",
" 	c None",
".	c #E3DFDF",
"+	c #C5C5C5",
"@	c #9E9E9E",
"#	c #F9F9F9",
"$	c #6E6E6E",
"%	c #FFE18B",
"&	c #FDCB39",
"*	c #FFBE00",
"=	c #6D3B14",
"                ",
"                ",
"                ",
"                ",
"                ",
"                ",
"                ",
"  .             ",
"..              ",
".               ",
"                ",
"+@              ",
"#+@$   %        ",
"  +@$$ &*       ",
"    @@%*        ",
"      &*=       "};
