/* XPM */
static char * swing_16px4_xpm[] = {
"16 16 12 1",
" 	c None",
".	c #E3DFDF",
"+	c #FFFFFF",
"@	c #C5C5C5",
"#	c #F9F9F9",
"$	c #9E9E9E",
"%	c #6E6E6E",
"&	c #FDCB39",
"*	c #FFBE00",
"=	c #FFE18B",
"-	c #62310B",
";	c #6D3B14",
"                ",
"                ",
"   ...          ",
"  ...  .        ",
" + .            ",
" +@             ",
" #@             ",
"  #$            ",
"  +@$           ",
"   $%           ",
"   $%           ",
"   $$% &        ",
"    $&&*        ",
"  = =**         ",
"   =*-;         ",
"     ;-         "};
