/* XPM */
static char * swing_16px3_xpm[] = {
"16 16 12 1",
" 	c None",
".	c #F9F9F9",
"+	c #E3DFDF",
"@	c #FFFFFF",
"#	c #C5C5C5",
"$	c #9E9E9E",
"%	c #6E6E6E",
"&	c #FFE18B",
"*	c #FDCB39",
"=	c #FFBE00",
"-	c #62310B",
";	c #6D3B14",
"                ",
"                ",
"        .+++    ",
"       @#+++++  ",
"       .#++ +++ ",
"       #$      +",
"       .#       ",
"       #$       ",
"       $$       ",
"       $%       ",
"     & $% *     ",
"     =&***=     ",
"      ====      ",
"       -;       ",
"       ;-       ",
"       -;       "};
