/* XPM */
static char * swing_16px20_xpm[] = {
"16 16 13 1",
" 	c None",
".	c #6D3B14",
"+	c #62310B",
"@	c #FDCB39",
"#	c #FFBE00",
"$	c #6E6E6E",
"%	c #9E9E9E",
"&	c #FFE18B",
"*	c #EAE7E7",
"=	c #C5C5C5",
"-	c #F9F9F9",
";	c #E3DFDF",
">	c #FFFFFF",
"      ..+       ",
"    @##+        ",
"   @ @@#        ",
"     $%@#       ",
"     $% &       ",
"     %%         ",
"    %%          ",
"*   =-          ",
";*  %=          ",
";;**=-          ",
" ;;;-;          ",
"  ;;;;          ",
"   >;           ",
"                ",
"                ",
"                "};
