/* XPM */
static char * swing_16px9_xpm[] = {
"16 16 13 1",
" 	c None",
".	c #FFBE00",
"+	c #FFE18B",
"@	c #62310B",
"#	c #6D3B14",
"$	c #FDCB39",
"%	c #9E9E9E",
"&	c #C5C5C5",
"*	c #F9F9F9",
"=	c #FFFFFF",
"-	c #6E6E6E",
";	c #EAE7E7",
">	c #E3DFDF",
"                ",
"                ",
"                ",
"                ",
"                ",
"    .+          ",
"   .+           ",
"@#@.$%%%&*&*=   ",
"#@#.$--%%&%&&*  ",
"   .$      ;>>  ",
"    .$     ;>>  ",
"            ;>  ",
"           ;>   ",
"           ;>   ",
"           >    ",
"          ;     "};
