/* XPM */
static char * swing_16px15_xpm[] = {
"16 16 13 1",
" 	c None",
".	c #E3DFDF",
"+	c #EAE7E7",
"@	c #FDCB39",
"#	c #FFBE00",
"$	c #F9F9F9",
"%	c #C5C5C5",
"&	c #9E9E9E",
"*	c #6E6E6E",
"=	c #6D3B14",
"-	c #62310B",
";	c #FFFFFF",
">	c #FFE18B",
"     .          ",
"    +           ",
"   +.           ",
"   +.           ",
"  +.            ",
"  +..     @#    ",
"  +..      @#   ",
"  $%%&%&&**@#=-=",
"   ;$%$%&&&@#-=-",
"           >#   ",
"          >#    ",
"                ",
"                ",
"                ",
"                ",
"                "};
