/* XPM */
static char * box_16px4_xpm[] = {
"16 16 9 1",
" 	c None",
".	c #E6D9CE",
"+	c #2C2721",
"@	c #DEAF86",
"#	c #703D11",
"$	c #CD8A50",
"%	c #B17139",
"&	c #482A05",
"*	c #AAA097",
"                ",
"                ",
" .+@@@+@+#+#### ",
" .+$+$%+%+%%%+& ",
" @$++&&&+&&&+%& ",
" +$&%+%%+%&#+%& ",
" #+&+#+##+#+&++ ",
" #%+$$+$+#+$&%& ",
" #%&+%%+#&%++%& ",
" ++&#+++&++#&+& ",
" #%++&#&+$$$&%& ",
" #%+&#&+%+%+&%& ",
" #+&#&+###+#+%& ",
" #%&&&+&&&+&&+& ",
" +*%%+%+%+%%%*& ",
" &&&&&&&&&&&&&& "};
