/* XPM */
static char * box_16px0_xpm[] = {
"16 16 8 1",
" 	c None",
".	c #E6D9CE",
"+	c #DEAF86",
"@	c #703D11",
"#	c #CD8A50",
"$	c #B17139",
"%	c #AAA097",
"&	c #482A05",
"                ",
"                ",
" ..+++@+@@@@@@@ ",
" .####$$$$$$$%& ",
" +#&&&&&&&&&&$& ",
" @#&$$$$$$&@&$& ",
" @$&@@@@@&@&&$& ",
" @$&####&@&#&$& ",
" @$&$$$&@&$$&$& ",
" @$&@@&@&@@@&$& ",
" @$&$&@&####&$& ",
" @$&&@&$$$$$&$& ",
" @$&@&@@@@@@&$& ",
" @$&&&&&&&&&&$& ",
" @%$$$$$$$$$$%& ",
" &&&&&&&&&&&&&& "};
