/* XPM */
static char * box_16px5_xpm[] = {
"16 16 7 1",
" 	c None",
".	c #E6D9CE",
"+	c #DEAF86",
"@	c #482A05",
"#	c #703D11",
"$	c #CD8A50",
"%	c #B17139",
"                ",
"                ",
"                ",
"                ",
"                ",
"  ..+     @#+   ",
"  .$$$     @#   ",
"  +$@@@ @#  $.  ",
"   $@%%@#@      ",
"    @###@   $   ",
"     @$$  %%%   ",
"    @#@%  ###   ",
"    @@          ",
"                ",
"                ",
"                "};
