/* XPM */
static char * stone_16px16_xpm[] = {
"16 16 7 1",
" 	c None",
".	c #B7B7B7",
"+	c #AFAFAF",
"@	c #929293",
"#	c #757882",
"$	c #8A8A8B",
"%	c #5F5F66",
"                ",
"                ",
"                ",
"                ",
"                ",
"                ",
"                ",
"                ",
"                ",
"                ",
"    .+.         ",
"   +@@#         ",
"  +@@$$#    @@@ ",
"  @@$$.++@ .@@# ",
"  @$$##.@@@@##% ",
"   ###%.$$##%%  "};
