/* XPM */
static char * stone_16px7_xpm[] = {
"16 16 21 1",
" 	c None",
".	c #FDCB39",
"+	c #FFBE00",
"@	c #6D3B14",
"#	c #62310B",
"$	c #FFE18B",
"%	c #FFFFFF",
"&	c #A6A6A6",
"*	c #C5C5C5",
"=	c #F9F9F9",
"-	c #CDCDCD",
";	c #AFAFAF",
">	c #929293",
",	c #B7B7B7",
"'	c #9E9E9E",
")	c #757882",
"!	c #4D4848",
"~	c #8A8A8B",
"{	c #5F5F66",
"]	c #454141",
"^	c #3D3A3A",
"                ",
" .+             ",
".@#             ",
"+#@#            ",
"  #@$.++        ",
"   $..          ",
"  $..%          ",
"  . &*%         ",
"  .  &*=        ",
"      &*-;;>;   ",
"    ,;,'*->>>>  ",
"   ;>>) '&*!~)) ",
"  ;>>~~) '&&))) ",
"  >>~~)  ~'&)){ ",
"  >~~))  ~~)]{{ ",
"   ))){{  ){{^  "};
