/* XPM */
static char * stone_16px9_xpm[] = {
"16 16 18 1",
" 	c None",
".	c #FFE18B",
"+	c #FDCB39",
"@	c #62310B",
"#	c #6D3B14",
"$	c #FFFFFF",
"%	c #F9F9F9",
"&	c #C5C5C5",
"*	c #9E9E9E",
"=	c #FFBE00",
"-	c #A6A6A6",
";	c #969696",
">	c #B7B7B7",
",	c #AFAFAF",
"'	c #929293",
")	c #757882",
"!	c #8A8A8B",
"~	c #5F5F66",
"                ",
"                ",
"                ",
"                ",
"                ",
"     .+         ",
" +  .+          ",
"+@#@.+$%$%&%&*  ",
"=#@#+=%&%&-**;* ",
" =  +=          ",
"    >== >,,',   ",
"   ,'')  >''''  ",
"  ,''!!) >! >'' ",
"  ''!!)  !!>'') ",
"  '!!))  !)'))~ ",
"   )))~~  ))~~  "};
