/* XPM */
static char * stone_16px4_xpm[] = {
"16 16 22 1",
" 	c None",
".	c #FDCB39",
"+	c #FFBE00",
"@	c #6D3B14",
"#	c #62310B",
"$	c #FFE18B",
"%	c #C5C5C5",
"&	c #F9F9F9",
"*	c #9E9E9E",
"=	c #A6A6A6",
"-	c #6E6E6E",
";	c #AFAFAF",
">	c #929293",
",	c #B7B7B7",
"'	c #554F4F",
")	c #454141",
"!	c #4D4848",
"~	c #8A8A8B",
"{	c #757882",
"]	c #3D3A3A",
"^	c #353333",
"/	c #5F5F66",
"    .+          ",
"   .@#+         ",
"    #@          ",
"     #@ .       ",
"     $..++      ",
"    $..% +      ",
"    . &*        ",
"      &%*       ",
"       =*       ",
"       =-;>;    ",
"     ,;-'>>>>   ",
"    ;>>)!~~~{{  ",
"   ;>>~~)]~{{{  ",
"   >>~~]{{^{{/  ",
"   >~~{^{{{{//  ",
"    {{{{{////   "};
