/* XPM */
static char * stone_16px5_xpm[] = {
"16 16 23 1",
" 	c None",
".	c #FDCB39",
"+	c #FFBE00",
"@	c #6D3B14",
"#	c #62310B",
"$	c #FFE18B",
"%	c #C5C5C5",
"&	c #F9F9F9",
"*	c #9E9E9E",
"=	c #6E6E6E",
"-	c #AFAFAF",
";	c #929293",
">	c #B7B7B7",
",	c #756B6B",
"'	c #554F4F",
")	c #7D7272",
"!	c #8A8A8B",
"~	c #6D6464",
"{	c #757882",
"]	c #454141",
"^	c #5F5F66",
"/	c #3D3A3A",
"(	c #353333",
"                ",
" .+             ",
".@#             ",
"+#@#            ",
"  #@$.++        ",
"   $..          ",
"  $..%          ",
"  . &%*         ",
"  .  &%*        ",
"      %*=-;-    ",
"     >-=,;;;;   ",
"    -;;')!~!{{  ",
"   -;;!!']!{{{  ",
"   ;;!!]{{]{{^  ",
"   ;!!{/{{{]^^  ",
"    {{{{(^^^(   "};
