/* XPM */
static char * stone_16px6_xpm[] = {
"16 16 22 1",
" 	c None",
".	c #FDCB39",
"+	c #FFBE00",
"@	c #6D3B14",
"#	c #62310B",
"$	c #FFE18B",
"%	c #F9F9F9",
"&	c #C5C5C5",
"*	c #9E9E9E",
"=	c #B7B7B7",
"-	c #AFAFAF",
";	c #929293",
">	c #A6A6A6",
",	c #757882",
"'	c #6E6E6E",
")	c #8A8A8B",
"!	c #454141",
"~	c #666666",
"{	c #4D4848",
"]	c #5F5F66",
"^	c #3D3A3A",
"/	c #353333",
"   .+           ",
"  .@#+          ",
"   #@           ",
"    #@ .        ",
"    $..++       ",
"   $..%         ",
"   . %&         ",
"     &%&        ",
"      &*        ",
"      &*=--;-   ",
"    =-=>*=;;;;  ",
"   -;;,>'=)!),, ",
"  -;;)),'~{),,, ",
"  ;;)), ~))!,,] ",
"  ;)),,  )),^]] ",
"   ,,,]]  ,]]/  "};
