/* XPM */
static char * stone_16px0_xpm[] = {
"16 16 16 1",
" 	c None",
".	c #FDCB39",
"+	c #FFBE00",
"@	c #6D3B14",
"#	c #62310B",
"$	c #FFE18B",
"%	c #F9F9F9",
"&	c #9E9E9E",
"*	c #C5C5C5",
"=	c #6E6E6E",
"-	c #AFAFAF",
";	c #929293",
">	c #B7B7B7",
",	c #8A8A8B",
"'	c #757882",
")	c #5F5F66",
"                ",
"                ",
"       .+       ",
"      .@#+      ",
"       #@       ",
"       @#       ",
"      $$..      ",
"     $..+++     ",
"     . %& +     ",
"       *=-;-    ",
"     >-&;;;;;   ",
"    -;;;,,,,''  ",
"   -;;,,,,,'''  ",
"   ;;,,,''''')  ",
"   ;,,''''''))  ",
"    '''''))))   "};
