/* XPM */
static char * stone_16px13_xpm[] = {
"16 16 18 1",
" 	c None",
".	c #FFFFFF",
"+	c #F9F9F9",
"@	c #C5C5C5",
"#	c #9E9E9E",
"$	c #6E6E6E",
"%	c #FFE18B",
"&	c #666666",
"*	c #FDCB39",
"=	c #B7B7B7",
"-	c #FFBE00",
";	c #AFAFAF",
">	c #929293",
",	c #8A8A8B",
"'	c #62310B",
")	c #6D3B14",
"!	c #757882",
"~	c #5F5F66",
"                ",
"        .       ",
"    .  .+  .    ",
"     . +@ .     ",
"       @+       ",
"   ..  +#  ..   ",
"       #@       ",
"     . @# .     ",
"    .  #$  .    ",
"     % $& *     ",
"    =*%%*--     ",
"   ;>>*---      ",
"  ;>>,,')   >>> ",
"  >>,,=)'> =>>! ",
"  >,,!*')->>!!~ ",
"   !!!~*-,!!~~  "};
