/* XPM */
static char * stone_16px8_xpm[] = {
"16 16 18 1",
" 	c None",
".	c #FDCB39",
"+	c #FFE18B",
"@	c #62310B",
"#	c #6D3B14",
"$	c #FFBE00",
"%	c #F9F9F9",
"&	c #FFFFFF",
"*	c #C5C5C5",
"=	c #A6A6A6",
"-	c #CDCDCD",
";	c #B7B7B7",
">	c #9E9E9E",
",	c #929293",
"'	c #AFAFAF",
")	c #757882",
"!	c #8A8A8B",
"~	c #5F5F66",
"                ",
"                ",
"                ",
"                ",
"                ",
" .   +.         ",
".@# +.          ",
"$#@#+.%&%       ",
" $ @.$*%**=-    ",
"    .$  ;=*=>*  ",
"    ;$$  ;,,=>= ",
"   ',,)  ;! ;,, ",
"  ',,!!)   ;,,) ",
"  ,,!!)  !! ,)~ ",
"  ,!!))  !), ~~ ",
"   )))~~  ))~   "};
