/* XPM */
static char * player_16px22_xpm[] = {
"16 16 10 1",
" 	c None",
".	c #FFE700",
"+	c #E9D514",
"@	c #E6CA97",
"#	c #6349CA",
"$	c #5539C6",
"%	c #4F37B3",
"&	c #615D56",
"*	c #504D47",
"=	c #45423C",
"                ",
"                ",
"                ",
"     ......     ",
"    ........    ",
"    ......++    ",
"    ....++++    ",
"     @.+++@     ",
"      @@@@      ",
"    #$$%%%%$    ",
"   #$$$$$$$$$   ",
"   @ #$$$$% @   ",
"   @ #$$$$% @   ",
"     &$$$$*     ",
"     &****=     ",
"     &    =     "};
