/* XPM */
static char * exit_16px2_xpm[] = {
"16 16 14 1",
" 	c None",
".	c #F7FFD4",
"+	c #3A5B34",
"@	c #C296D4",
"#	c #D4D8C1",
"$	c #5DA1CB",
"%	c #7FC6F2",
"&	c #578BAB",
"*	c #669DBE",
"=	c #3578A2",
"-	c #8B9368",
";	c #388EC4",
">	c #174E6F",
",	c #1A5C84",
"      ..+@#     ",
"   ..+#+##+.#   ",
"   .+#@$%&&+#+  ",
"  .@#&&%$&&*@#  ",
"  +#&&%$==**&-@ ",
"  .+&&%$=;;&&+  ",
"  .+&=$%$;=&+## ",
" .+#==;$%>==&+# ",
" @##=;,$$%%=&#@+",
" .+&;;$%$$$%&#-+",
" .+*;=$%>>$%$#+ ",
" @#*=$$%===;%@- ",
" #+&$%%===;*&+- ",
".+##$$&==**&#+##",
"+#############+#",
"#--------------+"};
