/* XPM */
static char * exit_empty_16px_xpm[] = {
"16 16 5 1",
" 	c None",
".	c #F7FFD4",
"+	c #3A5B34",
"@	c #D4D8C1",
"#	c #8B9368",
"      ..++@     ",
"   ..+@+@@+.@   ",
"   .+@+    +@+  ",
"  .+@       +@  ",
"  +@         #+ ",
"  .+         +  ",
"  .+        +@@ ",
" .+@         +@ ",
" +@@         @++",
" .+          @#+",
" .+          @+ ",
" +@          +# ",
" @+          +# ",
".+@@        @+@@",
"+@@@@@@@@@@@@@+@",
"@##############+"};
