/* XPM */
static char * exit_16px4_xpm[] = {
"16 16 14 1",
" 	c None",
".	c #F7FFD4",
"+	c #3A5B34",
"@	c #C296D4",
"#	c #D4D8C1",
"$	c #578BAB",
"%	c #3578A2",
"&	c #669DBE",
"*	c #8B9368",
"=	c #7FC6F2",
"-	c #5DA1CB",
";	c #174E6F",
">	c #1A5C84",
",	c #388EC4",
"      ..+@#     ",
"   ..+#+##+.#   ",
"   .+#@$$$$+#+  ",
"  .@#$$$$$$$@#  ",
"  +#$$$%%%$$&*@ ",
"  .+$$%%%%%&&+  ",
"  .+=-%%;%=-+## ",
" .+#-=--;=-=-+# ",
" @##%%=-=--%$#@+",
" .+$%%;-=>%%$#*+",
" .+$%%;>-=%%$#+ ",
" @#$%%,,-=%%$@* ",
" #+$$,,%=-%$$+* ",
".+##&&$=-$$$#+##",
"+#############+#",
"#**************+"};
