/* XPM */
static char * burning_tree_16px0_xpm[] = {
"16 16 22 1",
" 	c None",
".	c #FF7610",
"+	c #FF7F1F",
"@	c #FF882E",
"#	c #FFA71F",
"$	c #FFD81F",
"%	c #FFAD2E",
"&	c #954715",
"*	c #D16832",
"=	c #AF4D10",
"-	c #7C380D",
";	c #FC740E",
">	c #914617",
",	c #F16600",
"'	c #A23F00",
")	c #FF913D",
"!	c #FFB33D",
"~	c #FF9B01",
"{	c #FFDB2E",
"]	c #663728",
"^	c #592F21",
"/	c #4A2012",
"                ",
"        .       ",
"   +   .@ +     ",
"   #+  @$ #+    ",
"   %# &*=-$     ",
"    $;*===>>    ",
"   &*===,'''-+  ",
"    >>'+.'>> #+ ",
"+  &-')#+>'&-!# ",
"~#;*==$#''==={- ",
"%$*======+===''-",
" >==&'==%@=>''- ",
"  >>''''$#''>-  ",
"    ----$---    ",
"     ]^]^^]     ",
"   ]]^]^^]///   "};
