/* XPM */
static char * burning_tree_16px1_xpm[] = {
"16 16 20 1",
" 	c None",
".	c #FF7610",
"+	c #FF7F1F",
"@	c #FFA71F",
"#	c #FFDB2E",
"$	c #FF882E",
"%	c #FFD81F",
"&	c #954715",
"*	c #D16832",
"=	c #AF4D10",
"-	c #7C380D",
";	c #FC740E",
">	c #914617",
",	c #FF6D01",
"'	c #A23F00",
")	c #FFAD2E",
"!	c #FC862C",
"~	c #663728",
"{	c #592F21",
"]	c #4A2012",
"                ",
"       .        ",
"     + .@  .    ",
"    +@ @# @$    ",
"    @%&*=-%@    ",
"    %;*===>>    ",
"   &*=,=='''-   ",
" +  >>$,''>>  + ",
"+@ &-')$>>'&-+@ ",
"@%;*==%@''===@% ",
"%**=======+==''-",
" >==&'===.$>''- ",
"  >>'''''!@'>-  ",
"    ------#-    ",
"     ~{~{{~     ",
"   ~~{~{{~]]]   "};
