/* XPM */
static char * burning_tree_16px2_xpm[] = {
"16 16 22 1",
" 	c None",
".	c #FC740E",
"+	c #FFA71F",
"@	c #FF7F1F",
"#	c #DA5E03",
"$	c #FFD81F",
"%	c #FC7D1D",
"&	c #FF6D01",
"*	c #954715",
"=	c #D16832",
"-	c #AF4D10",
";	c #7C380D",
">	c #FF913D",
",	c #FC862C",
"'	c #FFAD2E",
")	c #A23F00",
"!	c #914617",
"~	c #FF882E",
"{	c #FFDB2E",
"]	c #663728",
"^	c #592F21",
"/	c #4A2012",
"                ",
"       .        ",
"    .  +@       ",
"   #@  $+ %     ",
"   &+ *=-;>,    ",
"   +$.=---$'    ",
"   *=----)));   ",
" .  !!@)))!!  . ",
" %.*;.+!!!)*; ~@",
" +@=-'$)))---;$+",
"*$=-----@----));",
" !--*)--~'-!)); ",
"  !!))))+$))!;  ",
"    ;;;;;{;;    ",
"     ]^]^^]     ",
"   ]]^]^^]///   "};
