/* XPM */
static char * enemy_16px7_xpm[] = {
"16 16 8 1",
" 	c None",
".	c #352B1D",
"+	c #55432C",
"@	c #43311B",
"#	c #302415",
"$	c #8A1919",
"%	c #6E1010",
"&	c #23190D",
"      .         ",
"    + ... +     ",
"    @@###@@     ",
"     ##.###.    ",
"  + .#.  @+#..  ",
"  @+.#+  +  .## ",
"  #@.@          ",
"   #..          ",
"    .# ++       ",
"  + #.+@        ",
"   @$.%#        ",
"    @#..#       ",
"    &#.&.##     ",
"   && &&  &&    ",
"       &&       ",
"                "};
