/* XPM */
static char * enemy_16px4_xpm[] = {
"16 16 8 1",
" 	c None",
".	c #55432C",
"+	c #352B1D",
"@	c #43311B",
"#	c #302415",
"$	c #9E3131",
"%	c #8A1919",
"&	c #23190D",
"                ",
"      . +++ .   ",
"      @@+##@@   ",
"      +##+###+  ",
"    . +##  @.#+ ",
"    @.+#   . #+ ",
"    #@+@.     # ",
"     #++        ",
"      +#..      ",
"   .  +.@       ",
"    @$+%#       ",
"     @#++#      ",
"    &#+&&##     ",
"   && &&  &&    ",
"       &&       ",
"                "};
