/* XPM */
static char * enemy_16px5_xpm[] = {
"16 16 7 1",
" 	c None",
".	c #55432C",
"+	c #352B1D",
"@	c #43311B",
"#	c #302415",
"$	c #6E1010",
"%	c #23190D",
"                ",
"     . +        ",
"     @@+++ .    ",
"      ####@@    ",
"   . +##+###+   ",
"   @.+#   @.#+  ",
"   #@+@.  . #+  ",
"    #++      #  ",
"     +#..       ",
"  .  +.@        ",
"   @$+$#        ",
"    @#++#       ",
"    %#+%+##     ",
"   %% %%  %%    ",
"       %%       ",
"                "};
