/* XPM */
static char * broken_tree_16px_xpm[] = {
"16 16 7 1",
" 	c None",
".	c #592F21",
"+	c #E1AB6E",
"@	c #663728",
"$	c #E4B27B",
"%	c #562515",
"&	c #4A2012",
"                ",
"                ",
"                ",
"                ",
"                ",
"                ",
"                ",
"                ",
"          .     ",
"         +@     ",
"      $+$+.     ",
"     .@++@.     ",
"     @..@.%     ",
"     @..@.%     ",
"     @.@..%     ",
"    @.@..@&&    "};
