/* XPM */
static char * burning_grass_16px_xpm[] = {
"16 16 19 1",
" 	c #F67705",
".	c #2E1F12",
"+	c #FA9F4C",
"@	c #FA973D",
"#	c #392616",
"$	c #FA8F2E",
"%	c #D17E00",
"&	c #C96205",
"*	c #FA7F10",
"=	c #D86905",
"-	c #442D1A",
";	c #E77005",
">	c #FA871F",
",	c #F9A75B",
"'	c #BA5B05",
")	c #4F341E",
"!	c #FAAF6A",
"~	c #AB5405",
"{	c #FAB779",
" ..+@...#$$%..&*",
"....=##-&*.....;",
"#...&=;=;=-#..#$",
">###.;...; ;#  ;",
"= ;@= -....@; .>",
";;-..&>##..;*...",
".  ##., ; $*+--.",
".. &&=*'....  ;#",
"'@*..++-)....!;=",
".>..)#$; )## +..",
"#$--!$ .;+$ =###",
"* ;& ....@=.; =>",
".. !...#-*...*..",
"...&-###>>#. >..",
"#)-; $~=;>'#*--#",
" $ ;;=...@$> {+>"};
