/* XPM */
static char * fire_ground_16px_xpm[] = {
"16 16 2 1",
" 	c #A9703C",
".	c #6A4B30",
"                ",
" . .            ",
"  .             ",
"          .     ",
"       .  .     ",
"        .       ",
"        .       ",
"                ",
"                ",
"                ",
"                ",
"  .           . ",
" .      . .   . ",
" .       .      ",
"                ",
"                "};
