/* XPM */
static char * wine_16px_xpm[] = {
"16 16 12 1",
" 	c None",
".	c #7E7151",
"+	c #134914",
"@	c #103D11",
"#	c #38252A",
"$	c #372229",
"%	c #0D310E",
"&	c #C5BF91",
"*	c #2C2A17",
"=	c #A9A47E",
"-	c #938F70",
";	c #372029",
"                ",
"                ",
"       ..       ",
"      +@@@      ",
"       +@       ",
"       +@       ",
"      ++@@      ",
"     ++@@@@     ",
"     +#$$$%     ",
"     &*=*=-     ",
"     &&*==-     ",
"     &*=*--     ",
"     +#$$;%     ",
"     +#$$;%     ",
"     ++@@%%     ",
"                "};
