/* XPM */
static char * fire_tree_16px0_xpm[] = {
"16 16 9 1",
" 	c None",
".	c #B5440C",
"+	c #CB6C0A",
"@	c #CB970A",
"#	c #B52E0C",
"$	c #2A626C",
"%	c #CBB90A",
"&	c #234950",
"*	c #28555D",
"    .  +        ",
"    @..@    #   ",
"   $% +%    .#  ",
"    .$$& .  +.  ",
"  $@+  $.+*$@+  ",
"   %&$$*+@ *%   ",
"     &  %$.  $  ",
".       *.+     ",
"+.     $*+@     ",
"@+   *$**$%     ",
" % $*&$*$&      ",
"  $*& *$*$&     ",
"  *&  $& *$&    ",
" $&  $$&  *$$   ",
" &   $&    $&   ",
"     $&     &   "};
