/* XPM */
static char * token0_xpm[] = {
"16 16 6 1",
" 	c None",
".	c #205266",
"+	c #316E86",
"@	c #4B8095",
"#	c #245E75",
"$	c #134356",
"     ......     ",
"    .+@++@+.    ",
"   .+@+##++@.   ",
"  .+@+##+.@++.  ",
"  .@++#++.++@.  ",
" .@++@#+@.+@++. ",
" .++@++..+@+++. ",
" .###....#####. ",
" ..$+@+#.++@.$. ",
" .++@++#.+@++@. ",
" .+@++##..++@+. ",
"  .++@#...+@+.  ",
"  .+@+#...@++.  ",
"   .+##.$$.+.   ",
"    .#.+++$.    ",
"     ......     "};
