/* XPM */
static char * tree_16px1_xpm[] = {
"16 16 7 1",
" 	c None",
".	c #688C46",
"+	c #4F6837",
"@	c #5B2D2D",
"#	c #608241",
"$	c #542323",
"%	c #643232",
"                ",
"    . .+        ",
"   @#+#+.+      ",
" .+ ++@$#+#+    ",
" #@%++#@+@%+.   ",
".+ @$#@%$# %#+  ",
"#+ + # #%#+ #@+ ",
"# # #+ .%@+ # + ",
"# + +  #%%$ ##  ",
"     %@%%@$  #  ",
"   @%$@%@$   .  ",
"  @%$ %@%@$     ",
"  %$  @$ %@$    ",
" @$  @@$  %@@   ",
" $   @$    @$   ",
"     @$     $   "};
