/* XPM */
static char * waterpx1_xpm[] = {
"16 16 10 1",
" 	c #219D9A",
".	c #34BBB8",
"+	c #31AFAC",
"@	c #3A8C36",
"#	c #3B9337",
"$	c #BE98CB",
"%	c #B484C6",
"&	c #CFC9D1",
"*	c #F3D837",
"=	c #F3DC52",
"  ...     ...   ",
" .+++.   .+++@  ",
".+   +...+  @+@.",
"+    @@@@@  @ ++",
"  ..@##$##@..   ",
" .+@$#$%$#$@+.  ",
".+@##%%&%%##@+..",
"+ @#$%&*&%$#@ ++",
"  @$%&*=*&%$@   ",
" .@#$%&*&%$#@.  ",
".+@##%%&%%##@+..",
"+  @$#$%$#$@  ++",
"  ..@##$##@..   ",
" .+++@@@@@+++.  ",
".+   +...+   +..",
"+     +++     ++"};
