/* XPM */
static char * player_16px03_xpm[] = {
"16 16 13 1",
" 	c None",
".	c #2B3231",
"+	c #E9A033",
"@	c #D38803",
"#	c #CBC3B6",
"$	c #D78B05",
"%	c #6E5023",
"&	c #463111",
"*	c #E6BD80",
"=	c #B98D4C",
"-	c #E6CFAC",
";	c #CF5422",
">	c #B53A08",
"                ",
"   ..........   ",
"  .++@@@@@@#.   ",
"  .+@@@@@@$#.   ",
"  .+@@@@@$$#.   ",
"  ............. ",
"  .%&&&&**.=.   ",
"  .%&=&***.=.   ",
"  .-*******=.   ",
"  .-******=..   ",
"  ..........    ",
"   .+@@.$$$.    ",
"   .+$$.$$$.    ",
"   ;;>>*>>>>    ",
"   ........>    ",
"      ...  >    "};
