/* XPM */
static char * player_16px02_xpm[] = {
"16 16 15 1",
" 	c None",
".	c #2B3231",
"+	c #E9A033",
"@	c #FFFFFF",
"#	c #CBC3B6",
"$	c #D38803",
"%	c #E8E5E2",
"&	c #E2DAD3",
"*	c #E6CFAC",
"=	c #E6BD80",
"-	c #B98D4C",
";	c #845309",
">	c #D78B05",
",	c #CF5422",
"'	c #B53A08",
"   ..........   ",
"   .++@@@##$$.  ",
"   .+$@%&%#$$.  ",
"   .$$#%&%#$$.  ",
"   ...........  ",
"    .*.===.-.   ",
"    .*.===.-.   ",
"    .*=====-.   ",
"   ..*==..--..  ",
"  ..+.......$;. ",
" . .+>>$$$$$$;..",
"=  .>$$$$$>>>;.=",
"   .>$$$>>>>>;. ",
"   ,,'''''''''' ",
"   .....,''.... ",
"     ..  ,  ..  "};
