/* XPM */
static char * player_16px11_xpm[] = {
"16 16 16 1",
" 	c None",
".	c #2B3231",
"+	c #E9A033",
"@	c #D38803",
"#	c #FFFFFF",
"$	c #E8E5E2",
"%	c #E2DAD3",
"&	c #CBC3B6",
"*	c #D78B05",
"=	c #6E5023",
"-	c #463111",
";	c #2C1E09",
">	c #845309",
",	c #E6BD80",
"'	c #CF5422",
")	c #B53A08",
"   ..........   ",
"   .+@#$%$&@*.  ",
"   .+@#$%$&@*.  ",
"   .@@&$%$&**.  ",
"   ...........  ",
"    .==----;.   ",
"    .=-----;.   ",
"    .=-----;.   ",
"    .=----;;.   ",
"   ............ ",
"  ..+@@@@@@@@>..",
" . .+**@@@@**>.,",
" , .*@@@@****>. ",
"   '')))))))))) ",
"   ............ ",
"     .. )   ..  "};
