/* XPM */
static char * player_16px06_xpm[] = {
"16 16 13 1",
" 	c None",
".	c #2B3231",
"+	c #CBC3B6",
"@	c #E9A033",
"#	c #D38803",
"$	c #E6CFAC",
"%	c #E6BD80",
"&	c #463111",
"*	c #2C1E09",
"=	c #B98D4C",
"-	c #D78B05",
";	c #CF5422",
">	c #B53A08",
"                ",
"   ..........   ",
"   .+@@######.  ",
"   .+########.  ",
"   .+########.  ",
" .............  ",
"   .$.%%&&&&*.  ",
"   .$.%%%&=&*.  ",
"   .$%%%%%%%=.  ",
"   ..$%%%%%==.  ",
"    ..........  ",
"    .@##.##-.   ",
"    .@##.#--.   ",
"    ;;>>%>>>>   ",
"    ;........   ",
"    ;  ...      "};
