/* XPM */
static char * lvl_pad_1_xpm[] = {
"16 8 8 1",
" 	c None",
".	c #FFE43E",
"+	c #E2C300",
"@	c #74DE57",
"#	c #FFFDF2",
"$	c #25A004",
"%	c #2D8615",
"&	c #C4A900",
"    ...+.+++    ",
" ..+@@@@@@@@+++ ",
".#@@$$$$$$$$@@$+",
"+@$$$$$$$$$$$$$+",
"+$$$$$$$$$$$$$%+",
"+%%%$$$$$$$$%%%&",
" &&&%%%%%%%%&&& ",
"    &&&&&&&&    "};
