/* XPM */
static char *mc_00[] = {
/* columns rows colors chars-per-pixel */
"16 16 44 1 ",
"  c #3D6334",
". c #436A38",
"X c #446A38",
"o c #466C3B",
"O c #466F3C",
"+ c #47713C",
"@ c #48723C",
"# c #48733D",
"$ c #4B763D",
"% c #4C773E",
"& c #4C7840",
"* c #4C7940",
"= c #4C7941",
"- c #4E7B43",
"; c #4E7C43",
": c #4F7D44",
"> c #507E44",
", c #507F45",
"< c #518046",
"1 c #548346",
"2 c #548448",
"3 c #548548",
"4 c #568749",
"5 c #58884A",
"6 c #58884B",
"7 c #59884C",
"8 c #5B8C4C",
"9 c #5C8F4E",
"0 c #5D904E",
"q c #5E9250",
"w c #5E9350",
"e c #5F9450",
"r c #609550",
"t c #629754",
"y c #629854",
"u c #649B56",
"i c #659C57",
"p c #669D57",
"a c #69A25A",
"s c #6AA55B",
"d c #6CA85D",
"f c #71AE5F",
"g c #70AD60",
"h c #73B062",
/* pixels */
"4h4%*<#:75:*;y <",
"4,075$7$#ie4h;*;",
"w:+***<,<00i*.#s",
".*;527+4#$<5<:e+",
"w*i$iu*is.@ri#*<",
"77Xt$457*5*%.*<4",
"+8r,4$-#**si2r5<",
",*8,,+w$7i*@28+u",
"r5auu%g7ai+2&4r#",
"7%s<*5gO*<4i,a8@",
"785r%a,4gXr%1*t<",
"%i*e5%4>52<Xa#O,",
"d5@;71&o-,,#8rX7",
"%i.2#7#g84t70*yi",
"wwf.au24#54*y7,X",
"*5*;w424<g+y%4*8"
};
