/* XPM */
static char *mc_06[] = {
/* columns rows colors chars-per-pixel */
"16 16 57 1 ",
"  c #2E7407",
". c #337C0A",
"X c #3D6334",
"o c #436A38",
"O c #456A3A",
"+ c #466C3B",
"@ c #466F3C",
"# c #47703C",
"$ c #47713C",
"% c #48723C",
"& c #48733D",
"* c #4B763D",
"= c #4C773E",
"- c #4C7840",
"; c #4C7940",
": c #4C7941",
"> c #4E7B43",
", c #4E7C43",
"< c #4F7D44",
"1 c #507E44",
"2 c #507F45",
"3 c #45891F",
"4 c #4D8F2A",
"5 c #54A22B",
"6 c #518046",
"7 c #528246",
"8 c #548346",
"9 c #548448",
"0 c #548548",
"q c #568749",
"w c #58884A",
"e c #58884B",
"r c #59894B",
"t c #59884C",
"y c #5B8C4C",
"u c #5C8F4E",
"i c #5D904E",
"p c #5E9250",
"a c #5E9350",
"s c #5F9450",
"d c #609550",
"f c #629754",
"g c #629854",
"h c #639955",
"j c #659C57",
"k c #669D57",
"l c #69A25A",
"z c #6AA55B",
"x c #6CA85D",
"c c #71AE5F",
"v c #70AD60",
"b c #73B062",
"n c #D0C514",
"m c #E8E4AB",
"M c gray86",
"N c #E9E9E9",
"B c #F4F4F4",
/* pixels */
"qbq=;2&,yw<-;sX6",
"q2ite*t=&gaqb<;<",
"a<$;=<6B8iaj-o*z",
"o;,w8BMBMB6w6<s$",
"a;j=jNmnmM*sj$-6",
"ttofBBnnnBB=o-7e",
"$yd29MmnmNzjqse6",
"2;y22BMBMB;$<a&g",
"dwzjh=xB4j$q-qd$",
"w=z229v5 6qg<ly&",
"yywd=z;4v+d*8;dq",
"=k=iw 43t76+l$$>",
"xw=;t8 4> ;&ysOt",
"=fo8@t&5 9jta-gj",
"aav@lje4 qq;dy6o",
"-q;>aqq.2v@h;2-a"
};
