/* XPM */
static char * leave_text_xpm[] = {
"64 30 3 1",
" 	c None",
".	c #2B2626",
"+	c #1B1818",
"                                                                ",
"                                                                ",
"                                                                ",
"                                                                ",
"                                                                ",
"                                                                ",
"          ..  .. ..                                             ",
"         .++..+ .+                                              ",
"         +  ++ ++                                               ",
"            ++ ++                                               ",
"          . ++ ++                                               ",
"          +.++ ++                                               ",
"           +++ ++         ..     ..     .   .     ..            ",
"            ++ ++        .++.   +++.   .+. .+.   .++.           ",
"          . ++ ++       .+ ++  ++ ++.   ++  ++  .+ ++           ",
"          +.++ ++       ++ ++  ++  ++   ++  ++  ++ ++           ",
"           +++ ++       ++.+   ++  ++   ++  ++  ++.+            ",
"            ++ ++       +++    ++  ++   ++  ++  +++             ",
"            ++ ++       ++  .  ++. ++   ++. ++  ++  .           ",
"         .  ++ ++..   . ++..+   ++.++.   ++.+   ++..+           ",
"         +..+ .++++...   +++     ++ +     ++     +++            ",
"          +++++   +++                                           ",
"                                                                ",
"                                                                ",
"                                                                ",
"                                                                ",
"                                                                ",
"                                                                ",
"                                                                ",
"                                                                "};
