/* XPM */
static char * grass_16px4_xpm[] = {
"16 16 5 1",
" 	c #77B371",
".	c #DE93D4",
"+	c #C07BB7",
"@	c #C8A33F",
"#	c #428C3D",
"                ",
"                ",
"                ",
"    ..          ",
"  .+++          ",
"  .+@+.         ",
" ##+++.         ",
"  #..##         ",
"                ",
"                ",
"          .     ",
"         +@.    ",
"         #+     ",
"         #      ",
"                ",
"                "};
