/* XPM */
static char * grass_16px1_xpm[] = {
"16 16 4 1",
" 	c #77B371",
".	c #68DA5F",
"+	c #94E08C",
"@	c #428C3D",
"                ",
"                ",
"                ",
"                ",
"                ",
"                ",
"          .++   ",
"    ++.  ..+    ",
"     +.. ..@@   ",
"    @@..  @@    ",
"     @@         ",
"                ",
"                ",
"                ",
"                ",
"                "};
