/* XPM */
static char * grass_16px2_xpm[] = {
"16 16 2 1",
" 	c #77B371",
".	c #558851",
"                ",
"                ",
"                ",
"                ",
"                ",
"   . .          ",
"    .           ",
"                ",
"            .   ",
"         . .    ",
"         . .    ",
"                ",
"                ",
"                ",
"                ",
"                "};
