/* XPM */
static char * grass_16px5_xpm[] = {
"16 16 7 1",
" 	c #77B371",
".	c #9DA49D",
"+	c #AEB9AE",
"@	c #428C3D",
"#	c #DE93D4",
"$	c #C07BB7",
"%	c #C8A33F",
"                ",
"                ",
"                ",
"                ",
"                ",
"       ...      ",
"      .+...     ",
"     .+.+..     ",
"    @.......    ",
"     @@...#.@   ",
"       @@$%#    ",
"                ",
"                ",
"                ",
"                ",
"                "};
