/* XPM */
static char * grass_16px3_xpm[] = {
"16 16 2 1",
" 	c #77B371",
".	c #428C3D",
"                ",
" . .            ",
"  .             ",
"                ",
"                ",
"                ",
"                ",
"                ",
"                ",
"                ",
"      .. ..     ",
"     .  .  .    ",
"                ",
"                ",
"                ",
"                "};
