/* XPM */
static char * dino1_xpm[] = {
"16 16 7 1",
" 	c None",
"+	c #77B4D2",
"@	c #2889B2",
"#	c #38B3E6",
"$	c #01D6FE",
"%	c #AAE3FF",
"&	c #F3D4FF",
"         + +    ",
"        +@###   ",
"       +@$$$$#  ",
"      +%@$$@$$# ",
"       +#$$&$$@ ",
"      +%#$$$$@  ",
"       +#$$#@   ",
"      +@$$@     ",
"     +#$$$$#    ",
"    +%@$$@$$#   ",
"   +%#$$$$@$#   ",
"  +%@$$$$$$@#   ",
" +%@$$$$$$@     ",
"+###$$$#$#      ",
"   @@##@$$#     ",
"       #@@      "};
