/* XPM */
static char * bird_16px0_xpm[] = {
"16 16 11 1",
" 	c None",
".	c #5F5E5E",
"+	c #575656",
"@	c #464543",
"#	c #AF9538",
"$	c #4F4E4E",
"%	c #323028",
"&	c #998028",
"*	c #B97548",
"=	c #AF6E43",
"-	c #4A392A",
"                ",
"     ...        ",
"   ..+++++      ",
"   .+@++++      ",
"  #+@@++++$     ",
" ##+%+++++$     ",
"&&&++++++++$    ",
"   ++++++++$    ",
"   *=++++++$    ",
"   *==++++++$   ",
"    *==++++++...",
"     *==+++++$$ ",
"      *==+++$$  ",
"       *=$$$$   ",
"         - -    ",
"        - - -   "};
