/* XPM */
static char * tele_pad_x_16px3_xpm[] = {
"16 16 7 1",
" 	c None",
".	c #573E10",
"+	c #413010",
"@	c #392809",
"#	c #AAE405",
"$	c #CBBA9C",
"%	c #7BA011",
"                ",
"          ...   ",
"         .+++.  ",
"        .+  ++  ",
"        ++ @ ++ ",
"         +@@ +@ ",
"      #  #   ++ ",
"       # #   +@ ",
"       #    .+@ ",
"           .++@ ",
"    $$$$$$$$$+@ ",
"  .$$%$%$%$%$$@ ",
" .+$%$%$%$%$%$.@",
" +@.$$$$$$$$$.+@",
".@@.+..++@..+@+@",
"@@++@@++@@++@@  "};
