/* XPM */
static char * tele_pad_x_16px6_xpm[] = {
"16 16 7 1",
" 	c None",
".	c #573E10",
"+	c #413010",
"@	c #AAE405",
"#	c #392809",
"$	c #7BA011",
"%	c #CBBA9C",
"                ",
"          ...   ",
"         .+++.  ",
"        .+  ++  ",
"        ++@# ++ ",
"         +#@ +# ",
"     @       ++ ",
"    @ @      +# ",
"     $      .+# ",
"           .++# ",
"    %%%%%%%%%+# ",
"  .%%$%$%$%$%%# ",
" .+%$%$%$%$%$%.#",
" +#.%%%%%%%%%.+#",
".##.+..++#..+#+#",
"##++##++##++##  "};
