/* XPM */
static char *a_1[] = {
/* columns rows colors chars-per-pixel */
"16 16 73 1 ",
"  c black",
". c #000001",
"X c #000101",
"o c #000002",
"O c #000102",
"+ c #000003",
"@ c #000103",
"# c #010006",
"$ c #000106",
"% c #010206",
"& c #020207",
"* c #040404",
"= c #040407",
"- c #020209",
"; c #030309",
": c #040409",
"> c #03030C",
", c #03030F",
"< c #04030D",
"1 c #04030F",
"2 c #04040C",
"3 c #04040D",
"4 c #04040F",
"5 c #030313",
"6 c #040313",
"7 c #040410",
"8 c #060410",
"9 c #040314",
"0 c #0F071F",
"q c #100920",
"w c #140D24",
"e c #181026",
"r c #1A1229",
"t c #291A45",
"y c #2F224C",
"u c #342750",
"i c #372952",
"p c #3B2D57",
"a c #41345D",
"s c #00807C",
"d c #00837F",
"f c #008682",
"g c #008783",
"h c #008985",
"j c #008E8A",
"k c #008F8B",
"l c #00928E",
"z c #009490",
"x c #009591",
"c c #009894",
"v c #009A96",
"b c #009C97",
"n c #00A09B",
"m c #00A39E",
"M c #00A5A0",
"N c #00AAA5",
"B c #00ABA6",
"V c #00ACA7",
"C c #00ADA8",
"Z c #00AEA9",
"A c #00B0AB",
"S c #00B5B0",
"D c #00BDB8",
"F c #00BEB9",
"G c #00C3BD",
"H c #00C5BF",
"J c #00C7C1",
"K c #00CAC4",
"L c #00DDD7",
"P c #00DED8",
"I c #00E9E2",
"U c #00EBE4",
"Y c None",
/* pixels */
"YYYYYYYYYYYYYYYY",
"Y2OOO*9<Oy<<8OiY",
"YOuii--Oiw8-OiwY",
"YOwe-**aww-<O,<Y",
"YOw<NslNMZHxw,<Y",
"Y<:%ffNAUAID<<-Y",
"Y*7<lvNZKZNPOOOY",
"Y<O%zfvZSNZZtiwY",
"YOiwffbxfnnMqw-Y",
"Y,,8NghbvkMLw-<Y",
"Y<,,GZhbvlHP<%<Y",
"YO%<NPSnMDGNOpwY",
"YiuesNKZNJMj<:-Y",
"Y<ww9Ow<Orww<<<Y",
"Y2<w2<%,O0www<,Y",
"Y-<5<2<<<7:<<:,Y"
};
