/* XPM */
static char *a_3[] = {
/* columns rows colors chars-per-pixel */
"16 16 71 1 ",
"  c black",
". c #000001",
"X c #000101",
"o c #000002",
"O c #000102",
"+ c #000003",
"@ c #000103",
"# c #010006",
"$ c #000106",
"% c #010206",
"& c #020207",
"* c #040404",
"= c #040407",
"- c #020209",
"; c #030309",
": c #040409",
"> c #03030C",
", c #03030F",
"< c #04030D",
"1 c #04030F",
"2 c #04040C",
"3 c #04040D",
"4 c #04040F",
"5 c #030313",
"6 c #040313",
"7 c #040410",
"8 c #060410",
"9 c #040314",
"0 c #0F071F",
"q c #100920",
"w c #140D24",
"e c #181026",
"r c #1A1229",
"t c #291A45",
"y c #2F224C",
"u c #342750",
"i c #372952",
"p c #3B2D57",
"a c #41345D",
"s c #00807C",
"d c #00837F",
"f c #008682",
"g c #008783",
"h c #008985",
"j c #008F8B",
"k c #00928E",
"l c #009490",
"z c #009591",
"x c #009894",
"c c #009A96",
"v c #009C97",
"b c #00A09B",
"n c #00A39E",
"m c #00A5A0",
"M c #00AAA5",
"N c #00ABA6",
"B c #00ACA7",
"V c #00ADA8",
"C c #00AEA9",
"Z c #00B0AB",
"A c #00B5B0",
"S c #00BDB8",
"D c #00BEB9",
"F c #00C3BD",
"G c #00C5BF",
"H c #00CAC4",
"J c #00DDD7",
"K c #00DED8",
"L c #00E9E2",
"P c #00EBE4",
"I c None",
/* pixels */
"IIIIIIIIIIIIIIII",
"I2OOO*9<Oy<<8OiI",
"IOuii--Oiw8-OiwI",
"IOwe-**aww-<O,<I",
"IOw<MFDmnAKBw,<I",
"I<:%JGlxxhVF<<-I",
"I*7<JmkxvhgMOOOI",
"I<O%mvbgzxdgtiwI",
"IOiwVCMAZvgzqw-I",
"I<<9KVVHVMxkw-<I",
"I<<<DLZPZMgg<%<I",
"IOO<kHVmMlsMOpwI",
"IiuefkVzlgbD<:-I",
"I<ww9Ow<Orww<<<I",
"I:<w2<%-O0www<,I",
"I-,9<2<,,8:<<:,I"
};
