/* XPM */
static char *g_0[] = {
/* columns rows colors chars-per-pixel */
"16 16 73 1 ",
"  c black",
". c #000001",
"X c #000101",
"o c #000002",
"O c #000102",
"+ c #000003",
"@ c #000103",
"# c #010006",
"$ c #000106",
"% c #010206",
"& c #020207",
"* c #040404",
"= c #040407",
"- c #020209",
"; c #030309",
": c #040409",
"> c #03030C",
", c #03030F",
"< c #04030D",
"1 c #04030F",
"2 c #04040C",
"3 c #04040D",
"4 c #04040F",
"5 c #030313",
"6 c #040313",
"7 c #040410",
"8 c #060410",
"9 c #040314",
"0 c #0F071F",
"q c #100920",
"w c #140D24",
"e c #181026",
"r c #1A1229",
"t c #306F11",
"y c #317211",
"u c #337412",
"i c #337512",
"p c #347712",
"a c #367B13",
"s c #367C13",
"d c #377F13",
"f c #291A45",
"g c #2F224C",
"h c #342750",
"j c #372952",
"k c #3B2D57",
"l c #41345D",
"z c #388014",
"x c #388114",
"c c #398414",
"v c #3A8614",
"b c #3B8715",
"n c #3C8B15",
"m c #3E8D16",
"M c #3E8F16",
"N c #409317",
"B c #419417",
"V c #419517",
"C c #419617",
"Z c #429717",
"A c #429917",
"S c #449D18",
"D c #47A419",
"F c #48A519",
"G c #4AA91A",
"H c #4AAB1A",
"J c #4CAF1B",
"K c #50B71C",
"L c #53C01D",
"P c #54C01E",
"I c #58CA1F",
"U c #59CC1F",
"Y c None",
/* pixels */
"YYYYYYYYYYYYYYYY",
"Y2OOO*5<Og<<8OjY",
"YOhjj--Ojw8-OjwY",
"YOwe-**lww-<O><Y",
"YOw<BGBuxduNw5:Y",
"Y<:%PBpyyvut<<-Y",
"Y*7<SppvbNNdOO%Y",
"Y<O%mvbxABANfjwY",
"YOjwMvviSJUmqw=Y",
"Y339DssmNAAAw-<Y",
"Y<73HHMMABIH>%<Y",
"YO%2MPKMBPDxOkwY",
"YjheavKSBGvt<%:Y",
"Y<ww8Ow>Orww<85Y",
"Y2<w2<%>Oqwww<-Y",
"Y-<5<7<<27:2<<<Y"
};
