/* XPM */
static char *g_2[] = {
/* columns rows colors chars-per-pixel */
"16 16 73 1 ",
"  c black",
". c #000001",
"X c #000101",
"o c #000002",
"O c #000102",
"+ c #000003",
"@ c #000103",
"# c #010006",
"$ c #000106",
"% c #010206",
"& c #020207",
"* c #040404",
"= c #040407",
"- c #020209",
"; c #030309",
": c #040409",
"> c #03030C",
", c #03030F",
"< c #04030D",
"1 c #04030F",
"2 c #04040C",
"3 c #04040D",
"4 c #04040F",
"5 c #030313",
"6 c #040313",
"7 c #040410",
"8 c #060410",
"9 c #040314",
"0 c #0F071F",
"q c #100920",
"w c #140D24",
"e c #181026",
"r c #1A1229",
"t c #306F11",
"y c #317211",
"u c #337412",
"i c #337512",
"p c #347712",
"a c #347812",
"s c #367C13",
"d c #377F13",
"f c #291A45",
"g c #2F224C",
"h c #342750",
"j c #372952",
"k c #3B2D57",
"l c #41345D",
"z c #388014",
"x c #388114",
"c c #398414",
"v c #3A8614",
"b c #3B8715",
"n c #3C8B15",
"m c #3E8D16",
"M c #3E8F16",
"N c #409317",
"B c #419417",
"V c #419517",
"C c #419617",
"Z c #429717",
"A c #429917",
"S c #449D18",
"D c #459E18",
"F c #47A419",
"G c #48A519",
"H c #4AA91A",
"J c #4AAB1A",
"K c #4CAF1B",
"L c #53C01D",
"P c #54C01E",
"I c #58CA1F",
"U c #59CC1F",
"Y c None",
/* pixels */
"YYYYYYYYYYYYYYYY",
"Y2OOO*52Og<<6OjY",
"YOhjj--*jw7-OjwY",
"YOwe-**lww:<O<<Y",
"YOw<zFKDMPKNw,<Y",
"Y<:%JIZAMZKJ<<-Y",
"Y*7<ZAZNnsdGOOOY",
"Y<O%MIKDizvMfjwY",
"YOjwNAZZznvMqw:Y",
"Y<<9dNNvvisGw-<Y",
"Y<6:tyvuyyZK,%<Y",
"YOO<ZuddiZJZOkwY",
"YjheIZvSSKNs<=-Y",
"Y<ww6Ow<Orww<<<Y",
"Y2<w26%-O0www<,Y",
"Y-<5<2<<<6:<<:,Y"
};
