/* XPM */
static char *g_3[] = {
/* columns rows colors chars-per-pixel */
"16 16 71 1 ",
"  c black",
". c #000001",
"X c #000101",
"o c #000002",
"O c #000102",
"+ c #000003",
"@ c #000103",
"# c #010006",
"$ c #000106",
"% c #010206",
"& c #020207",
"* c #040404",
"= c #040407",
"- c #020209",
"; c #030309",
": c #040409",
"> c #03030C",
", c #03030F",
"< c #04030D",
"1 c #04030F",
"2 c #04040C",
"3 c #04040D",
"4 c #04040F",
"5 c #030313",
"6 c #040313",
"7 c #040410",
"8 c #060410",
"9 c #040314",
"0 c #0F071F",
"q c #100920",
"w c #140D24",
"e c #181026",
"r c #1A1229",
"t c #306F11",
"y c #317211",
"u c #337412",
"i c #337512",
"p c #347712",
"a c #367C13",
"s c #377F13",
"d c #291A45",
"f c #2F224C",
"g c #342750",
"h c #372952",
"j c #3B2D57",
"k c #41345D",
"l c #388014",
"z c #388114",
"x c #398414",
"c c #3A8614",
"v c #3B8715",
"b c #3C8B15",
"n c #3E8D16",
"m c #3E8F16",
"M c #409317",
"N c #419417",
"B c #419517",
"V c #419617",
"C c #429717",
"Z c #429917",
"A c #449D18",
"S c #47A419",
"D c #48A519",
"F c #4AA91A",
"G c #4AAB1A",
"H c #4CAF1B",
"J c #53C01D",
"K c #54C01E",
"L c #58CA1F",
"P c #59CC1F",
"I c None",
/* pixels */
"IIIIIIIIIIIIIIII",
"I2OOO*6<Of<<6OhI",
"IOghh-%Ohw7-OhwI",
"IOwe-**kww:<O<<I",
"IOw<MFDmmAJNw,<I",
"I<:%KFlxcpNF<<-I",
"I*7<KmaxcpuNOOOI",
"I<O%mbbizcuudhwI",
"IOhwNZNAZcilqw-I",
"I,29KMZHNMclw-2I",
"I<72SLZPZmii,%<I",
"IOO2lGNmNlumOjwI",
"IhgeuaZzsibD<=-I",
"I<ww9Ow<Orww<<<I",
"I2<w2<%,%0www<,I",
"I-<5<2<<<<*6<:,I"
};
