/* XPM */
static char *o_2[] = {
/* columns rows colors chars-per-pixel */
"16 16 73 1 ",
"  c black",
". c #000001",
"X c #000101",
"o c #000002",
"O c #000102",
"+ c #000003",
"@ c #000103",
"# c #010006",
"$ c #000106",
"% c #010206",
"& c #020207",
"* c #040404",
"= c #040407",
"- c #020209",
"; c #030309",
": c #040409",
"> c #03030C",
", c #03030F",
"< c #04030D",
"1 c #04030F",
"2 c #04040C",
"3 c #04040D",
"4 c #04040F",
"5 c #030313",
"6 c #040313",
"7 c #040410",
"8 c #060410",
"9 c #040314",
"0 c #0F071F",
"q c #100920",
"w c #140D24",
"e c #181026",
"r c #1A1229",
"t c #291A45",
"y c #2F224C",
"u c #342750",
"i c #372952",
"p c #3B2D57",
"a c #41345D",
"s c #805700",
"d c #835900",
"f c #865B00",
"g c #875C00",
"h c #895D00",
"j c #8A5E00",
"k c #8F6100",
"l c #926300",
"z c #946400",
"x c #956500",
"c c #986700",
"v c #9A6900",
"b c #9C6A00",
"n c #A06D00",
"m c #A36F00",
"M c #A57000",
"N c #AA7300",
"B c #AB7400",
"V c #AC7500",
"C c #AD7500",
"Z c #AE7600",
"A c #B07800",
"S c #B57B00",
"D c #B67C00",
"F c #BD8000",
"G c #BE8100",
"H c #C38400",
"J c #C58600",
"K c #CA8900",
"L c #DD9600",
"P c #DE9700",
"I c #E99E00",
"U c #EBA000",
"Y c None",
/* pixels */
"YYYYYYYYYYYYYYYY",
"Y2OOO*9<Oy<<8OiY",
"YOuii-:Oiw8-OiwY",
"YOwe-**aww-<O><Y",
"YOw<xDLCMLLNw7>Y",
"Y<:%KICZnNHH<<-Y",
"Y*7<ZAZBnklGOO%Y",
"Y<O%mUKDgcvmtiwY",
"YOiwNACZxbvnqw-Y",
"Y<<9lNNvvhhSw:2Y",
"Y<7>sfvfdfCL<%<Y",
"YOO<CflxfCHCOpwY",
"YiueINvSDKCh<%:Y",
"Y<ww9Ow<Orww<87Y",
"Y2<w2<%>%0www<>Y",
"Y->7<7<<<>:2<<>Y"
};
