/* XPM */
static char *o_3[] = {
/* columns rows colors chars-per-pixel */
"16 16 71 1 ",
"  c black",
". c #000001",
"X c #000101",
"o c #000002",
"O c #000102",
"+ c #000003",
"@ c #000103",
"# c #010006",
"$ c #000106",
"% c #010206",
"& c #020207",
"* c #040404",
"= c #040407",
"- c #020209",
"; c #030309",
": c #040409",
"> c #03030C",
", c #03030F",
"< c #04030D",
"1 c #04030F",
"2 c #04040C",
"3 c #04040D",
"4 c #04040F",
"5 c #030313",
"6 c #040313",
"7 c #040410",
"8 c #060410",
"9 c #040314",
"0 c #0F071F",
"q c #100920",
"w c #140D24",
"e c #181026",
"r c #1A1229",
"t c #291A45",
"y c #2F224C",
"u c #342750",
"i c #372952",
"p c #3B2D57",
"a c #41345D",
"s c #805700",
"d c #835900",
"f c #865B00",
"g c #875C00",
"h c #895D00",
"j c #8F6100",
"k c #926300",
"l c #946400",
"z c #956500",
"x c #986700",
"c c #9A6900",
"v c #9C6A00",
"b c #A06D00",
"n c #A36F00",
"m c #A57000",
"M c #AA7300",
"N c #AB7400",
"B c #AC7500",
"V c #AD7500",
"C c #AE7600",
"Z c #B07800",
"A c #B57B00",
"S c #BD8000",
"D c #BE8100",
"F c #C38400",
"G c #C58600",
"H c #CA8900",
"J c #DD9600",
"K c #DE9700",
"L c #E99E00",
"P c #EBA000",
"I c None",
/* pixels */
"IIIIIIIIIIIIIIII",
"I2OOO*9<Oy<<8OiI",
"IOuii-:Oiw8-OiwI",
"IOwe-**aww:<O><I",
"IOw<MFDnbAKVw7>I",
"I<:%KGkcchVF<<-I",
"I*7<KnkxvhfVOO%I",
"I<O%nbbfzcdftiwI",
"IOiwVZMAZcfzqw-I",
"I<<9KVVHVMckw-<I",
"I<>>DLZPZMff>%<I",
"IO%>zGVmMksVOpwI",
"IiuedlVzzfbD<%:I",
"I<ww9Ow<Orww<87I",
"I2<w><%>%0www<>I",
"I->9>8<<<>:2<<>I"
};
