/* XPM */
static char *p_1[] = {
/* columns rows colors chars-per-pixel */
"16 16 73 1 ",
"  c black",
". c #000001",
"X c #000101",
"o c #000002",
"O c #000102",
"+ c #000003",
"@ c #000103",
"# c #010006",
"$ c #000106",
"% c #010206",
"& c #020207",
"* c #040404",
"= c #040407",
"- c #020209",
"; c #030309",
": c #040409",
"> c #03030C",
", c #03030F",
"< c #04030D",
"1 c #04030F",
"2 c #04040C",
"3 c #04040D",
"4 c #04040F",
"5 c #030313",
"6 c #040313",
"7 c #040410",
"8 c #060410",
"9 c #040314",
"0 c #0F071F",
"q c #100920",
"w c #140D24",
"e c #181026",
"r c #1A1229",
"t c #291A45",
"y c #2F224C",
"u c #342750",
"i c #372952",
"p c #3B2D57",
"a c #41345D",
"s c #750B64",
"d c #770C66",
"f c #7A0C68",
"g c #7B0C69",
"h c #7D0C6B",
"j c #810D6F",
"k c #820D6F",
"l c #850D72",
"z c #870D73",
"x c #880D74",
"c c #8A0E77",
"v c #8C0E78",
"b c #8E0E7A",
"n c #920E7D",
"m c #940F7F",
"M c #960F81",
"N c #9B0F85",
"B c #9C0F85",
"V c #9D0F86",
"C c #9E0F87",
"Z c #9F0F88",
"A c #A01089",
"S c #A5108D",
"D c #AC1193",
"F c #AD1194",
"G c #B21198",
"H c #B3129A",
"J c #B5129B",
"K c #B8129D",
"L c #C914AC",
"P c #CA14AD",
"I c #D415B6",
"U c #D615B7",
"Y c None",
/* pixels */
"YYYYYYYYYYYYYYYY",
"Y2OO%*5<Oy<<8OiY",
"YOuii--Oiw8-OiwY",
"YOwe-**aww-<O><Y",
"YOw<BszBMZJxw5:Y",
"Y<:%ffBZIAID<<-Y",
"Y*7<lvBBKZBPOO%Y",
"Y<O%zfvZSBZBtiwY",
"YOiwfdblgnnM0w;Y",
"Y<<9BfhbxkMPw-2Y",
"Y<8>HBhbblHP>%<Y",
"YOO<BPSmMFHNOpwY",
"YiuesBKZNJMk<%:Y",
"Y<ww9Ow<Orww<85Y",
"Y2<w2<%>O0www<-Y",
"Y-<5<7<<<7:2<<<Y"
};
