/* XPM */
static char *p_3[] = {
/* columns rows colors chars-per-pixel */
"16 16 71 1 ",
"  c black",
". c #000001",
"X c #000101",
"o c #000002",
"O c #000102",
"+ c #000003",
"@ c #000103",
"# c #010006",
"$ c #000106",
"% c #010206",
"& c #020207",
"* c #040404",
"= c #040407",
"- c #020209",
"; c #030309",
": c #040409",
"> c #03030C",
", c #03030F",
"< c #04030D",
"1 c #04030F",
"2 c #04040C",
"3 c #04040D",
"4 c #04040F",
"5 c #030313",
"6 c #040313",
"7 c #040410",
"8 c #060410",
"9 c #040314",
"0 c #0F071F",
"q c #100920",
"w c #140D24",
"e c #181026",
"r c #1A1229",
"t c #291A45",
"y c #2F224C",
"u c #342750",
"i c #372952",
"p c #3B2D57",
"a c #41345D",
"s c #750B64",
"d c #770C66",
"f c #7A0C68",
"g c #7B0C69",
"h c #7D0C6B",
"j c #820D6F",
"k c #850D72",
"l c #870D73",
"z c #880D74",
"x c #8A0E77",
"c c #8C0E78",
"v c #8E0E7A",
"b c #920E7D",
"n c #940F7F",
"m c #960F81",
"M c #9B0F85",
"N c #9C0F85",
"B c #9D0F86",
"V c #9E0F87",
"C c #9F0F88",
"Z c #A01089",
"A c #A5108D",
"S c #AC1193",
"D c #AD1194",
"F c #B21198",
"G c #B3129A",
"H c #B8129D",
"J c #C914AC",
"K c #CA14AD",
"L c #D415B6",
"P c #D615B7",
"I c None",
/* pixels */
"IIIIIIIIIIIIIIII",
"I2OOO*6<Oy<<6OiI",
"IOuii--Oiw6-OiwI",
"IOwe-**aww:<O<<I",
"IOw<NFSmmAKNw,<I",
"I<:%KGkcchNG<<-I",
"I*7<JmjxchfNOOOI",
"I<O%mbbgxcdgtiwI",
"IOiwCCNACcgkqw:I",
"I<29KNCHNNxkw-<I",
"I<<-DLCPCNgg<%<I",
"IOO,xGNnNkdMOpwI",
"IiuedzCxkfbD<:-I",
"I<ww9Ow,Orww<<<I",
"I2<w2<%<%0www<,I",
"I-<9<2<<<<:<<:,I"
};
