/* XPM */
static char *r_1[] = {
/* columns rows colors chars-per-pixel */
"16 16 73 1 ",
"  c black",
". c #000001",
"X c #000101",
"o c #000002",
"O c #000102",
"+ c #000003",
"@ c #000103",
"# c #010006",
"$ c #000106",
"% c #010206",
"& c #020207",
"* c #040404",
"= c #040407",
"- c #020209",
"; c #030309",
": c #040409",
"> c #03030C",
", c #03030F",
"< c #04030D",
"1 c #04030F",
"2 c #04040C",
"3 c #04040D",
"4 c #04040F",
"5 c #030313",
"6 c #040313",
"7 c #040410",
"8 c #060410",
"9 c #040314",
"0 c #0F071F",
"q c #100920",
"w c #140D24",
"e c #181026",
"r c #1A1229",
"t c #710F2A",
"y c #73102B",
"u c #76102C",
"i c #77102C",
"p c #79102D",
"a c #7D112E",
"s c #7E112F",
"d c #291A45",
"f c #2F224C",
"g c #342750",
"h c #372952",
"j c #3B2D57",
"k c #41345D",
"l c #811130",
"z c #821230",
"x c #831231",
"c c #861232",
"v c #881232",
"b c #891333",
"n c #8D1334",
"m c #901335",
"M c #911436",
"N c #961437",
"B c #971438",
"V c #981438",
"C c #981538",
"Z c #991539",
"A c #9B1539",
"S c #9F163B",
"D c #A6173E",
"F c #A7173E",
"G c #AC1740",
"H c #AE1740",
"J c #AF1841",
"K c #B21842",
"L c #C31A48",
"P c #C41A48",
"I c #CD1C4C",
"U c #CF1C4D",
"Y c None",
/* pixels */
"YYYYYYYYYYYYYYYY",
"Y2OOO*5<Of<<8OhY",
"YOghh--Ohw8-OhwY",
"YOwe-**kww-<O><Y",
"YOw<VtlNMAHlw5:Y",
"Y<:%ptNAIAID<<-Y",
"Y*7<lvNCKABLOO%Y",
"Y<O%lpvAANACdhwY",
"YOhwuyvcpnnMqw-Y",
"Y<<9AupvcsMLw-2Y",
"Y<7>GBtvvlHL<%<Y",
"YOO2BLDnMFHBOjwY",
"YhgetBKANJMa<%:Y",
"Y<ww9Ow<Orww<85Y",
"Y2<w2<%>O0www<-Y",
"Y-<5<7<<<7:2<<<Y"
};
