/* XPM */
static char *r_3[] = {
/* columns rows colors chars-per-pixel */
"16 16 71 1 ",
"  c black",
". c #000001",
"X c #000101",
"o c #000002",
"O c #000102",
"+ c #000003",
"@ c #000103",
"# c #010006",
"$ c #000106",
"% c #010206",
"& c #020207",
"* c #040404",
"= c #040407",
"- c #020209",
"; c #030309",
": c #040409",
"> c #03030C",
", c #03030F",
"< c #04030D",
"1 c #04030F",
"2 c #04040C",
"3 c #04040D",
"4 c #04040F",
"5 c #030313",
"6 c #040313",
"7 c #040410",
"8 c #060410",
"9 c #040314",
"0 c #0F071F",
"q c #100920",
"w c #140D24",
"e c #181026",
"r c #1A1229",
"t c #710F2A",
"y c #73102B",
"u c #76102C",
"i c #77102C",
"p c #79102D",
"a c #7E112F",
"s c #291A45",
"d c #2F224C",
"f c #342750",
"g c #372952",
"h c #3B2D57",
"j c #41345D",
"k c #811130",
"l c #821230",
"z c #831231",
"x c #861232",
"c c #881232",
"v c #891333",
"b c #8D1334",
"n c #901335",
"m c #911436",
"M c #961437",
"N c #971438",
"B c #981438",
"V c #981538",
"C c #991539",
"Z c #9B1539",
"A c #9F163B",
"S c #A6173E",
"D c #A7173E",
"F c #AC1740",
"G c #AE1740",
"H c #B21842",
"J c #C31A48",
"K c #C41A48",
"L c #CD1C4C",
"P c #CF1C4D",
"I c None",
/* pixels */
"IIIIIIIIIIIIIIII",
"I2OOO*9<Od<<8OgI",
"IOfgg-:Ogw8-OgwI",
"IOwe-**jww-<O,<I",
"IOw<MDDnnAKCw,<I",
"I<:%KHkvvpBF<<-I",
"I*7<KnkvvpuCOOOI",
"I<O%nbbtxxutsgwI",
"I%gwCCMABvik0w;I",
"I<<9KNCHBMvkw;2I",
"I<2<DLCPBMii,%<I",
"IOO<xDCmBktMOhwI",
"IgfeykCxkubD<*-I",
"I<ww9Ow<Orww<<8I",
"I2<w2<%,O0www<,I",
"I-,8<2<<<7:<<:,I"
};
