/* XPM */
static char *y_2[] = {
/* columns rows colors chars-per-pixel */
"16 16 73 1 ",
"  c black",
". c #000001",
"X c #000101",
"o c #000002",
"O c #000102",
"+ c #000003",
"@ c #000103",
"# c #010006",
"$ c #000106",
"% c #010206",
"& c #020207",
"* c #040404",
"= c #040407",
"- c #020209",
"; c #030309",
": c #040409",
"> c #03030C",
", c #03030F",
"< c #04030D",
"1 c #04030F",
"2 c #04040C",
"3 c #04040D",
"4 c #04040F",
"5 c #030313",
"6 c #040313",
"7 c #040410",
"8 c #060410",
"9 c #040314",
"0 c #0F071F",
"q c #100920",
"w c #140D24",
"e c #181026",
"r c #1A1229",
"t c #291A45",
"y c #2F224C",
"u c #342750",
"i c #372952",
"p c #3B2D57",
"a c #41345D",
"s c #806D00",
"d c #837000",
"f c #867300",
"g c #877300",
"h c #897500",
"j c #8A7600",
"k c #8F7A00",
"l c #927D00",
"z c #947F00",
"x c #957F00",
"c c #988200",
"v c #9A8400",
"b c #9C8500",
"n c #A08900",
"m c #A38B00",
"M c #A58D00",
"N c #AA9100",
"B c #AB9200",
"V c #AC9300",
"C c #AD9400",
"Z c #AE9500",
"A c #B09600",
"S c #B59B00",
"D c #B69C00",
"F c #BDA200",
"G c #BEA200",
"H c #C3A700",
"J c #C5A800",
"K c #CAAD00",
"L c #DDBD00",
"P c #DEBE00",
"I c #E9C700",
"U c #EBC900",
"Y c None",
/* pixels */
"YYYYYYYYYYYYYYYY",
"Y2OOO*9<Oy<<8OiY",
"YOuii--Oiw8-OiwY",
"YOwe-**aww:<O><Y",
"YOw<xGLVMLLNw7>Y",
"Y<:%JIVAnMJH<<-Y",
"Y*7<CACNnklGOO%Y",
"Y<O%MUKSfvvMtiwY",
"YOiwNACAxbvnqw:Y",
"Y<<9lNNvvhhSw:<Y",
"Y<7>sfvfsfCL<%<Y",
"YOO<NflxgCJVOpwY",
"YiueINvSDKVh<:-Y",
"Y<ww9Ow<Orww<<<Y",
"Y2<w28%>O0www<>Y",
"Y-<7<2<<<7:7<<>Y"
};
