/* XPM */
static char *y_3[] = {
/* columns rows colors chars-per-pixel */
"16 16 71 1 ",
"  c black",
". c #000001",
"X c #000101",
"o c #000002",
"O c #000102",
"+ c #000003",
"@ c #000103",
"# c #010006",
"$ c #000106",
"% c #010206",
"& c #020207",
"* c #040404",
"= c #040407",
"- c #020209",
"; c #030309",
": c #040409",
"> c #03030C",
", c #03030F",
"< c #04030D",
"1 c #04030F",
"2 c #04040C",
"3 c #04040D",
"4 c #04040F",
"5 c #030313",
"6 c #040313",
"7 c #040410",
"8 c #060410",
"9 c #040314",
"0 c #0F071F",
"q c #100920",
"w c #140D24",
"e c #181026",
"r c #1A1229",
"t c #291A45",
"y c #2F224C",
"u c #342750",
"i c #372952",
"p c #3B2D57",
"a c #41345D",
"s c #806D00",
"d c #837000",
"f c #867300",
"g c #877300",
"h c #897500",
"j c #8F7A00",
"k c #927D00",
"l c #947F00",
"z c #957F00",
"x c #988200",
"c c #9A8400",
"v c #9C8500",
"b c #A08900",
"n c #A38B00",
"m c #A58D00",
"M c #AA9100",
"N c #AB9200",
"B c #AC9300",
"V c #AD9400",
"C c #AE9500",
"Z c #B09600",
"A c #B59B00",
"S c #BDA200",
"D c #BEA200",
"F c #C3A700",
"G c #C5A800",
"H c #CAAD00",
"J c #DDBD00",
"K c #DEBE00",
"L c #E9C700",
"P c #EBC900",
"I c None",
/* pixels */
"IIIIIIIIIIIIIIII",
"I2OOO*9<Oy<<8OiI",
"IOuii--Oiw8-OiwI",
"IOwe-**aww:<O><I",
"IOw<MFDmbAJBw7>I",
"I<:%KFkxvhCF<<-I",
"I*7<JmkxvhgCOO%I",
"I<O%mbbgxcsgtiwI",
"I%iwBZMACcgkqw:I",
"I>>8JBCHCMckw-2I",
"I<7<DLZPCMgg>%<I",
"IOO<lGCmMksMOpwI",
"IiuedlClkgbD<--I",
"I<ww9Ow<%rww<8<I",
"I2<w2<%>O0www<>I",
"I-<5<7<<27*7<<>I"
};
